quadrata.sfdir
StartChar: exclam
Encoding: 33 33 2
Width: 238
Flags: HW
LayerCount: 2
Fore
SplineSet
172 700 m 1
 185 699 188 698 188 684 c 0
 188 663 184 637 183 608 c 2
 163 173 l 1
 90 173 l 1
 70 624 l 2
 67 667 61 684 35 700 c 1
 172 700 l 1
127 -15 m 0
 90 -14 61 13 61 51 c 0
 61 87 90 117 127 117 c 0
 163 117 193 87 193 51 c 0
 193 14 163 -14 127 -15 c 0
EndSplineSet
EndChar
StartChar: quotedbl
Encoding: 34 34 3
Width: 364
Flags: HW
LayerCount: 2
Fore
SplineSet
72 427 m 1
 45 721 l 1
 137 721 l 1
 110 427 l 1
 72 427 l 1
254 427 m 1
 227 721 l 1
 319 721 l 1
 292 427 l 1
 254 427 l 1
EndSplineSet
EndChar
StartChar: numbersign
Encoding: 35 35 4
Width: 676
Flags: HW
LayerCount: 2
Fore
SplineSet
434 32 m 1
 367 32 l 1
 404 213 l 1
 202 213 l 1
 166 32 l 1
 98 32 l 1
 135 213 l 1
 20 213 l 1
 31 269 l 1
 146 269 l 1
 187 470 l 1
 68 470 l 1
 79 526 l 1
 198 526 l 1
 239 730 l 1
 306 730 l 1
 265 526 l 1
 467 526 l 1
 508 730 l 1
 575 730 l 1
 534 526 l 1
 656 526 l 1
 644 470 l 1
 523 470 l 1
 482 269 l 1
 608 269 l 1
 596 213 l 1
 471 213 l 1
 434 32 l 1
415 269 m 1
 456 470 l 1
 254 470 l 1
 213 269 l 1
 415 269 l 1
EndSplineSet
EndChar
StartChar: dollar
Encoding: 36 36 5
Width: 522
Flags: HW
LayerCount: 2
Fore
SplineSet
25 535 m 0
 25 644 118 715 230 715 c 1
 230 803 l 1
 290 803 l 1
 290 715 l 1
 342 714 388 704 429 689 c 1
 429 572 l 1
 396 607 350 629 290 635 c 1
 290 430 l 1
 409 380 505 331 507 201 c 0
 507 76 407 -5 290 -15 c 1
 290 -111 l 1
 230 -111 l 1
 230 -15 l 1
 161 -14 93 -7 33 3 c 1
 33 132 l 1
 82 91 147 57 230 60 c 1
 230 335 l 1
 128 373 23 420 25 535 c 0
230 635 m 1
 176 635 123 607 123 555 c 0
 123 494 169 477 230 451 c 1
 230 635 l 1
290 66 m 1
 353 73 406 122 407 186 c 0
 407 250 345 287 290 308 c 1
 290 66 l 1
EndSplineSet
EndChar
StartChar: percent
Encoding: 37 37 6
Width: 694
Flags: HW
LayerCount: 2
Fore
SplineSet
477 700 m 1
 537 700 l 1
 210 0 l 1
 150 0 l 1
 477 700 l 1
40 534 m 0
 40 628 96 700 188 700 c 0
 278 699 337 630 337 536 c 0
 336 446 278 375 190 375 c 0
 98 375 40 441 40 534 c 0
190 430 m 257
 285 430 279 647 187 645 c 1
 94 648 95 424 190 430 c 257
357 159 m 0
 357 253 413 325 505 325 c 0
 596 325 653 254 654 161 c 0
 654 70 595 0 507 0 c 0
 415 0 357 66 357 159 c 0
507 55 m 0
 602 54 595 272 504 270 c 256
 451 270 437 218 437 160 c 0
 436 103 455 53 507 55 c 0
EndSplineSet
Ligature2: "'frac' Diagonal Fractions lookup 3 subtable" zero uni2215 zero
Ligature2: "'frac' Diagonal Fractions lookup 3 subtable" zero slash zero
EndChar
StartChar: ampersand
Encoding: 38 38 7
Width: 571
Flags: HW
LayerCount: 2
Fore
SplineSet
395 575 m 0
 395 501 345 457 293 415 c 1
 424 287 l 2
 546 168 661 61 811 0 c 1
 681 -4 l 2
 588 -6 532 49 469 109 c 1
 416 34 364 -13 249 -15 c 0
 114 -15 4 56 4 188 c 0
 4 304 73 366 154 423 c 1
 108 465 68 502 68 570 c 0
 68 661 141 715 235 715 c 0
 324 715 395 663 395 575 c 0
230 651 m 0
 191 651 160 627 160 588 c 0
 158 539 199 502 233 478 c 1
 267 498 303 532 303 580 c 0
 303 622 272 651 230 651 c 0
115 202 m 0
 115 117 174 60 260 60 c 0
 343 60 384 95 426 148 c 1
 215 356 l 1
 166 324 115 273 115 202 c 0
EndSplineSet
EndChar
StartChar: quotesingle
Encoding: 39 39 8
Width: 182
Flags: HW
LayerCount: 2
Fore
SplineSet
72 427 m 1
 45 721 l 1
 137 721 l 1
 110 427 l 1
 72 427 l 1
EndSplineSet
EndChar
StartChar: parenleft
Encoding: 40 40 9
Width: 317
Flags: HW
LayerCount: 2
Fore
SplineSet
80 228 m 0
 80 419 169 596 258 715 c 1
 327 715 l 1
 245 587 180 422 180 228 c 0
 180 33 244 -130 327 -258 c 1
 258 -258 l 1
 168 -139 78 36 80 228 c 0
EndSplineSet
EndChar
StartChar: parenright
Encoding: 41 41 10
Width: 317
Flags: HW
LayerCount: 2
Fore
SplineSet
137 228 m 0
 137 422 71 587 -10 715 c 1
 59 715 l 1
 147 595 235 418 237 228 c 0
 237 37 148 -139 59 -258 c 1
 -10 -258 l 1
 72 -130 137 33 137 228 c 0
EndSplineSet
EndChar
StartChar: asterisk
Encoding: 42 42 11
Width: 469
Flags: HW
LayerCount: 2
Fore
SplineSet
268 554 m 1
 358 591 l 1
 399 629 l 1
 429 535 l 1
 375 542 l 1
 282 519 l 1
 343 445 l 1
 392 418 l 1
 312 360 l 1
 302 414 l 1
 251 495 l 1
 200 414 l 1
 189 359 l 1
 110 417 l 1
 158 444 l 1
 219 517 l 1
 126 540 l 1
 70 534 l 1
 101 627 l 1
 142 590 l 1
 230 554 l 1
 223 649 l 1
 200 700 l 1
 298 700 l 1
 275 649 l 1
 268 554 l 1
EndSplineSet
EndChar
StartChar: plus
Encoding: 43 43 12
Width: 640
Flags: HW
LayerCount: 2
Fore
SplineSet
347 68 m 1
 293 68 l 1
 293 323 l 1
 38 323 l 1
 38 377 l 1
 293 377 l 1
 293 632 l 1
 347 632 l 1
 347 377 l 1
 602 377 l 1
 602 323 l 1
 347 323 l 1
 347 68 l 1
EndSplineSet
EndChar
StartChar: comma
Encoding: 44 44 13
Width: 223
Flags: HW
LayerCount: 2
Fore
SplineSet
183 50 m 0
 183 -17 132 -74 92 -110 c 1
 40 -110 l 1
 60 -90 108 -36 110 -7 c 0
 110 2 67 16 62 22 c 128
 31 62 58 125 114 125 c 0
 156 125 183 93 183 50 c 0
EndSplineSet
EndChar
StartChar: hyphen
Encoding: 45 45 14
Width: 425
Flags: HW
LayerCount: 2
Fore
SplineSet
40 225 m 1
 98 305 l 2
 102 312 111 316 122 316 c 2
 385 316 l 1
 327 236 l 2
 322 229 314 225 303 225 c 2
 40 225 l 1
EndSplineSet
EndChar
StartChar: period
Encoding: 46 46 15
Width: 212
Flags: HW
LayerCount: 2
Fore
SplineSet
106 -15 m 0
 69 -15 40 14 40 51 c 0
 40 87 69 117 106 117 c 0
 142 117 172 87 172 51 c 0
 172 14 142 -15 106 -15 c 0
EndSplineSet
EndChar
StartChar: slash
Encoding: 47 47 16
Width: 382
Flags: HW
LayerCount: 2
Fore
SplineSet
313 715 m 1
 377 715 l 1
 54 -136 l 1
 -10 -136 l 1
 313 715 l 1
EndSplineSet
EndChar
StartChar: zero
Encoding: 48 48 17
Width: 640
Flags: HW
LayerCount: 2
Fore
SplineSet
34 357 m 0
 34 552 137 714 323 715 c 0
 510 715 606 541 606 343 c 0
 606 149 503 -15 317 -15 c 0
 129 -14 34 157 34 357 c 0
149 372 m 0
 149 230 191 67 318 67 c 0
 439 67 491 194 491 328 c 0
 490 467 448 633 323 633 c 0
 201 633 149 506 149 372 c 0
EndSplineSet
Substitution2: "'sups' Superscript lookup 10 subtable" uni2070
Substitution2: "'sinf' Scientific Inferiors lookup 5 subtable" uni2080
Substitution2: "'subs' Subscript lookup 4 subtable" uni2080
AlternateSubs2: "'aalt' Access All Alternates lookup 1 subtable" uni2080 uni2070
EndChar
StartChar: one
Encoding: 49 49 18
Width: 640
Flags: HW
LayerCount: 2
Fore
SplineSet
242 0 m 1
 274 22 288 48 288 100 c 2
 288 557 l 1
 165 557 l 1
 260 595 343 657 390 743 c 1
 390 100 l 1
 389 47 404 22 436 0 c 1
 242 0 l 1
EndSplineSet
Substitution2: "'sups' Superscript lookup 10 subtable" uni00B9
Substitution2: "'sinf' Scientific Inferiors lookup 5 subtable" uni2081
Substitution2: "'subs' Subscript lookup 4 subtable" uni2081
AlternateSubs2: "'aalt' Access All Alternates lookup 1 subtable" uni2081 uni00B9
EndChar
StartChar: two
Encoding: 50 50 19
Width: 640
Flags: HW
LayerCount: 2
Fore
SplineSet
395 525 m 0
 394 593 346 630 276 631 c 0
 206 631 147 600 98 568 c 1
 157 693 l 1
 300 743 513 712 510 551 c 0
 508 492 481 438 454 398 c 2
 239 85 l 1
 367 68 510 73 596 123 c 1
 539 0 l 1
 64 0 l 1
 351 422 l 2
 381 467 395 478 395 525 c 0
EndSplineSet
Substitution2: "'sups' Superscript lookup 10 subtable" uni00B2
Substitution2: "'sinf' Scientific Inferiors lookup 5 subtable" uni2082
Substitution2: "'subs' Subscript lookup 4 subtable" uni2082
AlternateSubs2: "'aalt' Access All Alternates lookup 1 subtable" uni2082 uni00B2
EndChar
StartChar: three
Encoding: 51 51 20
Width: 640
Flags: HW
LayerCount: 2
Fore
SplineSet
414 533 m 0
 414 598 345 633 273 633 c 0
 212 633 163 613 118 588 c 1
 165 698 l 1
 316 742 535 704 529 544 c 0
 529 461 461 409 390 394 c 1
 390 390 l 1
 486 384 565 309 566 209 c 0
 569 9 310 -45 106 0 c 1
 59 126 l 1
 125 91 174 67 259 67 c 0
 361 66 451 116 451 208 c 0
 451 329 317 367 199 336 c 1
 199 426 l 1
 300 406 417 429 414 533 c 0
EndSplineSet
Substitution2: "'sups' Superscript lookup 10 subtable" uni00B3
Substitution2: "'sinf' Scientific Inferiors lookup 5 subtable" uni2083
Substitution2: "'subs' Subscript lookup 4 subtable" uni2083
AlternateSubs2: "'aalt' Access All Alternates lookup 1 subtable" uni2083 uni00B3
EndChar
StartChar: four
Encoding: 52 52 21
Width: 640
Flags: HW
LayerCount: 2
Fore
SplineSet
332 0 m 1
 363 22 378 47 378 100 c 2
 378 141 l 1
 12 141 l 1
 337 700 l 1
 480 700 l 1
 480 230 l 1
 536 230 577 245 609 270 c 1
 560 141 l 1
 480 141 l 1
 480 100 l 1
 479 47 494 22 526 0 c 1
 332 0 l 1
155 232 m 1
 224 222 305 217 378 225 c 1
 378 619 l 1
 155 232 l 1
EndSplineSet
Substitution2: "'sups' Superscript lookup 10 subtable" uni2074
Substitution2: "'sinf' Scientific Inferiors lookup 5 subtable" uni2084
Substitution2: "'subs' Subscript lookup 4 subtable" uni2084
AlternateSubs2: "'aalt' Access All Alternates lookup 1 subtable" uni2084 uni2074
EndChar
StartChar: five
Encoding: 53 53 22
Width: 640
Flags: HW
LayerCount: 2
Fore
SplineSet
456 222 m 0
 456 384 221 392 103 331 c 1
 124 700 l 1
 510 700 l 1
 510 576 l 1
 448 627 326 621 219 611 c 1
 210 435 l 1
 383 482 571 407 571 235 c 0
 571 23 331 -52 118 1 c 1
 70 110 l 1
 189 35 456 51 456 222 c 0
EndSplineSet
Substitution2: "'sups' Superscript lookup 10 subtable" uni2075
Substitution2: "'sinf' Scientific Inferiors lookup 5 subtable" uni2085
Substitution2: "'subs' Subscript lookup 4 subtable" uni2085
AlternateSubs2: "'aalt' Access All Alternates lookup 1 subtable" uni2085 uni2075
EndChar
StartChar: six
Encoding: 54 54 23
Width: 640
Flags: HW
LayerCount: 2
Fore
SplineSet
323 -15 m 0
 156 -15 41 115 42 283 c 0
 42 528 280 686 512 715 c 1
 465 652 l 1
 304 606 157 476 157 281 c 0
 156 160 220 67 335 67 c 0
 428 67 484 125 484 218 c 0
 484 318 423 385 325 385 c 0
 278 385 238 371 205 353 c 1
 263 430 l 1
 288 451 323 461 369 461 c 0
 503 461 598 372 599 241 c 0
 598 88 478 -15 323 -15 c 0
EndSplineSet
Substitution2: "'sups' Superscript lookup 10 subtable" uni2076
Substitution2: "'sinf' Scientific Inferiors lookup 5 subtable" uni2086
Substitution2: "'subs' Subscript lookup 4 subtable" uni2086
AlternateSubs2: "'aalt' Access All Alternates lookup 1 subtable" uni2086 uni2076
EndChar
StartChar: seven
Encoding: 55 55 24
Width: 640
Flags: HW
LayerCount: 2
Fore
SplineSet
429 609 m 1
 380 620 336 624 278 624 c 0
 186 624 126 610 73 570 c 1
 119 700 l 1
 573 700 l 1
 347 157 l 2
 330 117 311 82 311 43 c 0
 309 20 322 7 340 0 c 1
 165 0 l 1
 429 609 l 1
EndSplineSet
Substitution2: "'sups' Superscript lookup 10 subtable" uni2077
Substitution2: "'sinf' Scientific Inferiors lookup 5 subtable" uni2087
Substitution2: "'subs' Subscript lookup 4 subtable" uni2087
AlternateSubs2: "'aalt' Access All Alternates lookup 1 subtable" uni2087 uni2077
EndChar
StartChar: eight
Encoding: 56 56 25
Width: 640
Flags: HW
LayerCount: 2
Fore
SplineSet
36 184 m 0
 36 286 112 337 196 370 c 1
 128 393 62 448 62 533 c 0
 62 658 182 715 315 715 c 0
 448 715 565 661 565 543 c 0
 565 459 493 408 425 385 c 1
 524 348 602 306 604 196 c 0
 604 58 465 -15 319 -15 c 0
 172 -15 36 46 36 184 c 0
307 654 m 0
 236 654 168 623 168 558 c 0
 166 492 224 461 282 441 c 2
 371 410 l 1
 420 441 467 472 467 534 c 0
 467 613 391 654 307 654 c 0
316 51 m 0
 404 51 494 94 494 177 c 0
 494 256 429 283 351 309 c 2
 263 337 l 1
 205 316 141 267 143 195 c 0
 143 107 225 50 316 51 c 0
EndSplineSet
Substitution2: "'sups' Superscript lookup 10 subtable" uni2078
Substitution2: "'sinf' Scientific Inferiors lookup 5 subtable" uni2088
Substitution2: "'subs' Subscript lookup 4 subtable" uni2088
AlternateSubs2: "'aalt' Access All Alternates lookup 1 subtable" uni2088 uni2078
EndChar
StartChar: nine
Encoding: 57 57 26
Width: 640
Flags: HW
LayerCount: 2
Fore
SplineSet
314 715 m 0
 482 715 599 585 599 417 c 0
 598 173 362 13 129 -15 c 1
 176 48 l 1
 337 94 484 224 484 419 c 0
 484 538 420 633 306 633 c 0
 213 633 157 575 157 482 c 0
 157 381 217 315 316 315 c 0
 363 315 403 329 436 347 c 1
 378 270 l 1
 352 248 318 239 272 239 c 0
 137 239 42 326 42 459 c 0
 41 611 163 714 314 715 c 0
EndSplineSet
Substitution2: "'sups' Superscript lookup 10 subtable" uni2079
Substitution2: "'sinf' Scientific Inferiors lookup 5 subtable" uni2089
Substitution2: "'subs' Subscript lookup 4 subtable" uni2089
AlternateSubs2: "'aalt' Access All Alternates lookup 1 subtable" uni2089 uni2079
EndChar
StartChar: colon
Encoding: 58 58 27
Width: 212
Flags: HW
LayerCount: 2
Fore
SplineSet
106 265 m 0
 69 264 40 294 40 331 c 0
 40 367 69 397 106 397 c 0
 141 396 172 367 172 331 c 0
 172 295 142 264 106 265 c 0
106 -15 m 0
 69 -15 40 14 40 51 c 0
 40 87 69 117 106 117 c 0
 142 117 172 87 172 51 c 0
 172 14 142 -15 106 -15 c 0
EndSplineSet
EndChar
StartChar: semicolon
Encoding: 59 59 28
Width: 223
Flags: HW
LayerCount: 2
Fore
SplineSet
117 265 m 0
 80 265 50 294 51 331 c 0
 50 367 81 397 117 397 c 0
 153 397 183 367 183 331 c 0
 183 294 153 265 117 265 c 0
183 50 m 0
 183 -17 132 -74 92 -110 c 1
 40 -110 l 1
 60 -90 108 -36 110 -7 c 0
 110 2 67 16 62 22 c 128
 53 32 49 47 49 64 c 0
 49 102 76 125 114 125 c 0
 156 125 183 93 183 50 c 0
EndSplineSet
EndChar
StartChar: less
Encoding: 60 60 29
Width: 640
Flags: HW
LayerCount: 2
Fore
SplineSet
58 346 m 1
 558 662 l 1
 583 622 l 1
 150 346 l 1
 583 70 l 1
 558 30 l 1
 58 346 l 1
EndSplineSet
EndChar
StartChar: equal
Encoding: 61 61 30
Width: 640
Flags: HW
LayerCount: 2
Fore
SplineSet
38 233 m 1
 38 288 l 1
 602 288 l 1
 602 233 l 1
 38 233 l 1
38 412 m 1
 38 467 l 1
 602 467 l 1
 602 412 l 1
 38 412 l 1
EndSplineSet
EndChar
StartChar: greater
Encoding: 62 62 31
Width: 640
Flags: HW
LayerCount: 2
Fore
SplineSet
583 346 m 1
 83 30 l 1
 58 70 l 1
 491 346 l 1
 58 622 l 1
 83 662 l 1
 583 346 l 1
EndSplineSet
EndChar
StartChar: question
Encoding: 63 63 32
Width: 399
Flags: HW
LayerCount: 2
Fore
SplineSet
295 507 m 0
 295 590 226 643 140 643 c 0
 86 641 42 624 0 602 c 1
 17 636 l 2
 48 699 68 715 162 715 c 0
 294 715 399 653 399 528 c 0
 399 438 355 396 295 345 c 2
 264 319 l 2
 219 282 187 259 187 206 c 0
 187 192 189 181 195 173 c 1
 109 173 l 1
 108 177 108 182 108 186 c 128
 108 192 108 192 108 199 c 0
 108 279 137 308 191 351 c 0
 252 400 295 430 295 507 c 0
148 -15 m 0
 111 -14 82 13 82 51 c 0
 82 87 111 117 148 117 c 0
 184 117 214 87 214 51 c 0
 213 14 184 -14 148 -15 c 0
EndSplineSet
EndChar
StartChar: at
Encoding: 64 64 33
Width: 820
Flags: HW
LayerCount: 2
Fore
SplineSet
427 26 m 0
 497 26 544 38 595 61 c 1
 607 23 l 1
 554 0 491 -14 417 -14 c 0
 202 -13 50 130 50 336 c 0
 50 552 220 714 437 714 c 0
 623 714 770 581 770 400 c 0
 770 250 682 146 541 146 c 0
 502 146 474 166 474 204 c 0
 474 218 476 226 479 241 c 2
 528 469 l 1
 508 482 487 490 456 490 c 0
 358 490 291 404 292 303 c 0
 291 242 319 204 378 204 c 0
 407 204 438 213 459 225 c 1
 403 154 l 1
 390 142 381 143 353 143 c 0
 269 143 219 206 219 292 c 0
 219 437 321 545 467 545 c 0
 482 545 563 534 563 534 c 130
 563 534 563 534 564 534 c 0
 573 534 574 535 586 539 c 2
 615 548 l 1
 555 263 l 2
 552 252 551 245 551 242 c 128
 551 238 551 238 551 234 c 0
 550 207 559 200 586 200 c 0
 682 200 728 295 728 400 c 0
 728 564 604 673 438 674 c 0
 250 674 100 530 101 340 c 0
 101 148 232 26 427 26 c 0
EndSplineSet
EndChar
StartChar: B
Encoding: 66 66 35
Width: 592
Flags: HW
LayerCount: 2
Fore
SplineSet
89 600 m 1
 88 652 74 677 43 700 c 1
 312 705 l 2
 421 706 513 652 513 548 c 0
 513 473 466 428 407 406 c 1
 504 395 579 324 579 218 c 0
 577 65 456 0 286 0 c 2
 43 0 l 1
 75 22 89 48 89 100 c 2
 89 600 l 1
270 631 m 0
 248 629 214 627 191 625 c 1
 191 421 l 1
 246 420 l 2
 327 418 398 455 399 532 c 0
 399 600 341 631 270 631 c 0
274 356 m 0
 249 356 221 353 191 352 c 1
 191 83 l 1
 222 77 260 74 295 74 c 0
 396 74 463 116 464 211 c 0
 464 309 382 356 274 356 c 0
EndSplineSet
Position2: "'cpsp' Capital Spacing lookup 0 subtable" dx=5 dy=0 dh=10 dv=0
EndChar
StartChar: D
Encoding: 68 68 37
Width: 731
Flags: HW
LayerCount: 2
Fore
SplineSet
43 0 m 1
 75 22 89 48 89 100 c 2
 89 600 l 1
 88 652 74 677 43 700 c 1
 101 703 242 709 303 709 c 0
 539 709 694 584 695 353 c 0
 695 134 528 0 302 0 c 2
 43 0 l 1
303 627 m 0
 267 627 230 623 191 619 c 1
 191 91 l 1
 222 84 246 82 282 82 c 0
 464 82 580 177 580 357 c 0
 580 518 463 627 303 627 c 0
EndSplineSet
Position2: "'cpsp' Capital Spacing lookup 0 subtable" dx=5 dy=0 dh=10 dv=0
EndChar
StartChar: F
Encoding: 70 70 39
Width: 431
Flags: HW
LayerCount: 2
Fore
SplineSet
89 600 m 1
 88 651 74 677 43 700 c 1
 395 700 l 2
 408 700 420 701 431 703 c 1
 431 585 l 1
 407 612 376 622 326 621 c 2
 191 618 l 1
 191 418 l 1
 335 418 l 2
 348 418 360 419 371 421 c 1
 371 312 l 1
 353 328 329 338 295 338 c 2
 191 338 l 1
 191 100 l 2
 191 47 207 20 242 0 c 1
 43 0 l 1
 74 22 89 48 89 100 c 2
 89 600 l 1
EndSplineSet
Position2: "'cpsp' Capital Spacing lookup 0 subtable" dx=5 dy=0 dh=10 dv=0
EndChar
StartChar: G
Encoding: 71 71 40
Width: 744
Flags: HW
LayerCount: 2
Fore
SplineSet
450 715 m 0
 507 715 581 700 626 696 c 1
 626 576 l 1
 579 612 519 633 441 633 c 0
 277 632 151 528 151 366 c 0
 151 189 284 67 465 67 c 0
 514 67 553 73 591 86 c 1
 591 267 l 2
 591 313 580 335 556 356 c 1
 699 356 l 1
 695 348 693 337 693 326 c 2
 693 67 l 1
 692 44 693 37 698 21 c 1
 623 -3 551 -15 458 -15 c 0
 219 -15 36 121 36 346 c 0
 36 576 216 715 450 715 c 0
EndSplineSet
Position2: "'cpsp' Capital Spacing lookup 0 subtable" dx=5 dy=0 dh=10 dv=0
EndChar
StartChar: H
Encoding: 72 72 41
Width: 767
Flags: HW
LayerCount: 2
Fore
SplineSet
237 700 m 1
 204 677 191 654 191 600 c 2
 191 424 l 1
 576 424 l 1
 576 600 l 2
 576 654 562 676 530 700 c 1
 724 700 l 1
 691 677 678 654 678 600 c 2
 678 100 l 2
 678 45 691 23 724 0 c 1
 530 0 l 1
 562 23 576 46 576 100 c 2
 576 344 l 1
 191 344 l 1
 191 100 l 2
 191 45 204 23 237 0 c 1
 43 0 l 1
 75 23 89 46 89 100 c 2
 89 600 l 2
 89 654 75 676 43 700 c 1
 237 700 l 1
EndSplineSet
Position2: "'cpsp' Capital Spacing lookup 0 subtable" dx=5 dy=0 dh=10 dv=0
EndChar
StartChar: I
Encoding: 73 73 42
Width: 280
Flags: HW
LayerCount: 2
Fore
SplineSet
89 600 m 1
 88 652 74 677 43 700 c 1
 237 700 l 1
 205 677 191 653 191 600 c 2
 191 100 l 1
 190 47 205 22 237 0 c 1
 43 0 l 1
 75 22 89 48 89 100 c 2
 89 600 l 1
EndSplineSet
Position2: "'cpsp' Capital Spacing lookup 0 subtable" dx=5 dy=0 dh=10 dv=0
EndChar
StartChar: J
Encoding: 74 74 43
Width: 280
Flags: HW
LayerCount: 2
Fore
SplineSet
92 600 m 2
 92 652 71 681 39 700 c 1
 240 700 l 1
 208 677 194 653 194 600 c 2
 194 -16 l 2
 194 -134 169 -164 86 -202 c 128
 46 -220 6 -231 -35 -235 c 1
 45 -186 92 -131 92 -12 c 2
 92 600 l 2
EndSplineSet
Position2: "'cpsp' Capital Spacing lookup 0 subtable" dx=5 dy=0 dh=10 dv=0
EndChar
StartChar: K
Encoding: 75 75 44
Width: 585
Flags: HW
LayerCount: 2
Fore
SplineSet
89 600 m 1
 88 652 74 677 43 700 c 1
 237 700 l 1
 205 677 191 653 191 600 c 2
 191 100 l 1
 190 47 205 22 237 0 c 1
 43 0 l 1
 75 22 89 48 89 100 c 2
 89 600 l 1
408 651 m 0
 408 675 389 691 372 700 c 1
 564 700 l 1
 321 385 l 1
 436 233 l 2
 491 159 534 106 564 76 c 128
 594 46 628 21 665 0 c 1
 558 -5 l 2
 532 -6 508 0 486 13 c 128
 464 26 432 62 389 121 c 2
 211 363 l 1
 367 573 l 2
 390 603 406 619 408 651 c 0
EndSplineSet
Position2: "'cpsp' Capital Spacing lookup 0 subtable" dx=5 dy=0 dh=10 dv=0
EndChar
StartChar: L
Encoding: 76 76 45
Width: 514
Flags: HW
LayerCount: 2
Fore
SplineSet
89 600 m 1
 88 652 74 677 43 700 c 1
 242 700 l 1
 209 679 191 651 191 600 c 2
 191 89 l 1
 223 84 271 78 306 80 c 0
 397 80 479 103 529 145 c 1
 473 0 l 1
 43 0 l 1
 75 22 89 48 89 100 c 2
 89 600 l 1
EndSplineSet
Position2: "'cpsp' Capital Spacing lookup 0 subtable" dx=5 dy=0 dh=10 dv=0
EndChar
StartChar: M
Encoding: 77 77 46
Width: 920
Flags: HW
LayerCount: 2
Fore
SplineSet
84 700 m 1
 262 700 l 1
 464 177 l 1
 652 630 l 2
 660 649 668 676 673 700 c 1
 846 700 l 1
 816 682 807 649 814 599 c 2
 879 89 l 2
 884 43 898 20 928 0 c 1
 734 0 l 1
 772 25 778 52 770 125 c 2
 717 595 l 1
 470 -10 l 1
 442 14 l 2
 417 35 403 62 389 98 c 2
 193 593 l 1
 126 117 l 1
 115 47 125 20 166 0 c 1
 -8 0 l 1
 23 28 38 64 46 114 c 2
 116 596 l 1
 124 661 119 678 84 700 c 1
EndSplineSet
Position2: "'cpsp' Capital Spacing lookup 0 subtable" dx=5 dy=0 dh=10 dv=0
EndChar
StartChar: N
Encoding: 78 78 47
Width: 777
Flags: HW
LayerCount: 2
Fore
SplineSet
86 600 m 1
 85 652 71 677 40 700 c 1
 189 700 l 1
 192 691 198 680 204 674 c 2
 613 164 l 1
 613 600 l 2
 613 652 598 677 567 700 c 1
 737 700 l 1
 705 677 691 653 691 600 c 2
 691 -28 l 1
 615 -5 589 23 535 91 c 2
 164 555 l 1
 164 100 l 1
 163 47 178 22 210 0 c 1
 40 0 l 1
 72 22 86 48 86 100 c 2
 86 600 l 1
EndSplineSet
Position2: "'cpsp' Capital Spacing lookup 0 subtable" dx=5 dy=0 dh=10 dv=0
EndChar
StartChar: O
Encoding: 79 79 48
Width: 840
Flags: HW
LayerCount: 2
Fore
SplineSet
36 350 m 0
 36 563 197 715 420 715 c 0
 638 715 804 567 804 350 c 0
 804 137 643 -15 420 -15 c 0
 201 -15 36 131 36 350 c 0
689 334 m 0
 689 499 584 633 422 633 c 0
 265 632 151 523 151 366 c 0
 150 199 255 67 418 67 c 0
 576 67 689 177 689 334 c 0
EndSplineSet
Position2: "'cpsp' Capital Spacing lookup 0 subtable" dx=5 dy=0 dh=10 dv=0
EndChar
StartChar: P
Encoding: 80 80 49
Width: 560
Flags: HW
LayerCount: 2
Fore
SplineSet
191 116 m 1
 190 55 211 18 253 0 c 1
 43 0 l 1
 75 23 89 46 89 100 c 2
 89 600 l 1
 88 652 74 677 43 700 c 1
 291 700 l 1
 438 699 540 649 540 515 c 256
 540 393 441 314 314 315 c 0
 284 315 254 320 229 328 c 1
 337 332 424 387 425 495 c 0
 424 580 364 626 275 626 c 0
 246 625 217 621 191 616 c 1
 191 116 l 1
EndSplineSet
Position2: "'cpsp' Capital Spacing lookup 0 subtable" dx=5 dy=0 dh=10 dv=0
EndChar
StartChar: Q
Encoding: 81 81 50
Width: 840
Flags: HW
LayerCount: 2
Fore
SplineSet
36 350 m 0
 36 563 197 715 420 715 c 0
 638 715 804 567 804 350 c 0
 804 198 721 85 615 31 c 1
 705 -59 813 -150 959 -146 c 1
 925 -175 882 -199 825 -199 c 0
 783 -199 733 -183 674 -150 c 128
 615 -117 552 -71 484 -10 c 1
 463 -12 442 -15 420 -15 c 0
 202 -14 36 132 36 350 c 0
689 334 m 0
 689 499 584 633 422 633 c 0
 265 632 151 523 151 366 c 0
 150 199 255 67 418 67 c 0
 576 67 689 177 689 334 c 0
EndSplineSet
Position2: "'cpsp' Capital Spacing lookup 0 subtable" dx=5 dy=0 dh=10 dv=0
EndChar
StartChar: R
Encoding: 82 82 51
Width: 562
Flags: HW
LayerCount: 2
Fore
SplineSet
89 600 m 1
 88 652 74 677 43 700 c 1
 108 700 219 704 262 704 c 0
 402 703 513 652 513 522 c 0
 513 425 430 359 340 345 c 1
 414 228 545 47 662 0 c 1
 623 -2 587 -6 554 -6 c 0
 512 -6 460 27 400 94 c 128
 340 161 280 252 220 365 c 1
 308 373 398 422 398 513 c 0
 398 595 342 630 258 630 c 0
 230 630 213 628 191 623 c 1
 191 100 l 1
 190 47 205 22 237 0 c 1
 43 0 l 1
 75 22 89 48 89 100 c 2
 89 600 l 1
EndSplineSet
Position2: "'cpsp' Capital Spacing lookup 0 subtable" dx=5 dy=0 dh=10 dv=0
EndChar
StartChar: S
Encoding: 83 83 52
Width: 511
Flags: HW
LayerCount: 2
Fore
SplineSet
288 715 m 0
 349 715 400 707 449 693 c 1
 449 576 l 1
 404 612 353 641 278 641 c 0
 201 641 141 609 141 540 c 0
 141 517 151 496 170 478 c 128
 189 460 238 433 317 398 c 0
 398 361 450 329 472 302 c 128
 494 275 506 241 506 200 c 0
 506 55 381 -15 225 -15 c 0
 150 -15 93 -5 34 15 c 1
 5 147 l 1
 61 97 133 65 231 65 c 0
 314 65 394 95 394 172 c 0
 394 198 386 221 368 240 c 128
 350 259 302 287 225 322 c 0
 142 359 89 392 64 422 c 128
 39 452 26 487 26 528 c 0
 24 661 142 715 288 715 c 0
EndSplineSet
Position2: "'cpsp' Capital Spacing lookup 0 subtable" dx=5 dy=0 dh=10 dv=0
EndChar
StartChar: T
Encoding: 84 84 53
Width: 492
Flags: HW
LayerCount: 2
Fore
SplineSet
487 587 m 1
 471 612 449 621 407 621 c 2
 295 620 l 1
 295 100 l 2
 295 47 309 22 341 0 c 1
 147 0 l 1
 179 22 193 48 193 100 c 2
 193 620 l 1
 74 621 l 2
 26 621 -4 604 -30 579 c 1
 10 704 l 1
 32 699 43 700 74 700 c 2
 461 700 l 2
 481 700 503 702 522 704 c 1
 487 587 l 1
EndSplineSet
Position2: "'cpsp' Capital Spacing lookup 0 subtable" dx=5 dy=0 dh=10 dv=0
EndChar
StartChar: U
Encoding: 85 85 54
Width: 730
Flags: HW
LayerCount: 2
Fore
SplineSet
86 600 m 1
 85 652 71 677 40 700 c 1
 234 700 l 1
 202 677 188 653 188 600 c 2
 188 243 l 2
 188 123 241 67 355 67 c 0
 464 67 539 124 539 230 c 2
 539 600 l 1
 538 652 524 677 493 700 c 1
 687 700 l 1
 655 677 641 653 641 600 c 2
 641 100 l 1
 640 47 655 22 687 0 c 1
 542 0 l 1
 542 67 l 1
 493 15 432 -13 339 -15 c 0
 174 -15 86 66 86 230 c 2
 86 600 l 1
EndSplineSet
Position2: "'cpsp' Capital Spacing lookup 0 subtable" dx=5 dy=0 dh=10 dv=0
EndChar
StartChar: V
Encoding: 86 86 55
Width: 592
Flags: HW
LayerCount: 2
Fore
SplineSet
494 635 m 0
 492 662 476 688 457 700 c 1
 622 700 l 1
 330 -28 l 1
 265 8 234 28 208 99 c 2
 17 614 l 2
 1 655 -11 674 -40 700 c 1
 116 700 l 1
 116 676 122 651 129 633 c 2
 312 132 l 1
 467 532 l 2
 480 567 494 598 494 635 c 0
EndSplineSet
Position2: "'cpsp' Capital Spacing lookup 0 subtable" dx=5 dy=0 dh=10 dv=0
EndChar
StartChar: W
Encoding: 87 87 56
Width: 941
Flags: HW
LayerCount: 2
Fore
SplineSet
858 621 m 0
 858 658 837 687 810 700 c 1
 971 700 l 1
 727 -28 l 1
 653 10 620 41 595 125 c 2
 476 507 l 1
 305 -28 l 1
 236 11 196 49 172 127 c 2
 24 600 l 2
 10 642 -10 677 -40 700 c 1
 110 700 l 1
 110 676 114 657 120 638 c 2
 280 119 l 1
 424 566 l 2
 429 584 434 610 435 631 c 0
 434 664 421 685 400 700 c 1
 537 700 l 1
 533 666 539 638 547 611 c 2
 703 116 l 1
 844 551 l 2
 850 574 858 596 858 621 c 0
EndSplineSet
Position2: "'cpsp' Capital Spacing lookup 0 subtable" dx=5 dy=0 dh=10 dv=0
EndChar
StartChar: X
Encoding: 88 88 57
Width: 646
Flags: HW
LayerCount: 2
Fore
SplineSet
130 50 m 0
 130 24 149 7 171 0 c 1
 -40 0 l 1
 -11 29 6 50 33 84 c 2
 261 374 l 1
 86 627 l 2
 62 661 42 683 7 700 c 1
 92 703 l 2
 180 706 162 707 201 652 c 2
 337 455 l 1
 453 610 l 2
 462 623 474 640 474 658 c 0
 474 681 454 694 435 700 c 1
 627 700 l 1
 382 389 l 1
 588 90 l 2
 614 50 644 20 686 0 c 1
 520 0 l 1
 498 20 494 29 474 59 c 2
 310 307 l 1
 157 105 l 2
 143 87 130 72 130 50 c 0
EndSplineSet
Position2: "'cpsp' Capital Spacing lookup 0 subtable" dx=5 dy=0 dh=10 dv=0
EndChar
StartChar: Y
Encoding: 89 89 58
Width: 571
Flags: HW
LayerCount: 2
Fore
SplineSet
195 0 m 1
 226 22 241 47 241 100 c 2
 241 314 l 1
 35 632 l 2
 15 662 -8 684 -40 700 c 1
 90 702 l 2
 102 702 109 700 119 697 c 1
 310 395 l 1
 448 609 l 2
 455 619 462 634 462 649 c 0
 462 672 444 691 428 700 c 1
 601 700 l 1
 343 313 l 1
 343 100 l 2
 343 47 357 22 389 0 c 1
 195 0 l 1
EndSplineSet
Position2: "'cpsp' Capital Spacing lookup 0 subtable" dx=5 dy=0 dh=10 dv=0
EndChar
StartChar: Z
Encoding: 90 90 59
Width: 609
Flags: HW
LayerCount: 2
Fore
SplineSet
386 615 m 1
 339 620 275 626 224 626 c 0
 140 626 97 613 48 578 c 1
 99 700 l 1
 565 700 l 1
 187 89 l 1
 272 84 315 80 384 80 c 0
 483 80 556 95 619 134 c 1
 565 0 l 1
 5 0 l 1
 386 615 l 1
EndSplineSet
Position2: "'cpsp' Capital Spacing lookup 0 subtable" dx=5 dy=0 dh=10 dv=0
EndChar
StartChar: bracketleft
Encoding: 91 91 60
Width: 343
Flags: HW
LayerCount: 2
Fore
SplineSet
126 632 m 2
 126 684 111 709 80 732 c 1
 343 732 l 1
 343 672 l 1
 216 672 l 1
 216 -197 l 1
 343 -197 l 1
 343 -257 l 1
 80 -257 l 1
 111 -234 126 -209 126 -157 c 2
 126 632 l 2
EndSplineSet
EndChar
StartChar: backslash
Encoding: 92 92 61
Width: 382
Flags: HW
LayerCount: 2
Fore
SplineSet
69 715 m 1
 392 -136 l 1
 328 -136 l 1
 5 715 l 1
 69 715 l 1
EndSplineSet
EndChar
StartChar: bracketright
Encoding: 93 93 62
Width: 343
Flags: HW
LayerCount: 2
Fore
SplineSet
217 -157 m 1
 216 -210 231 -234 263 -257 c 1
 0 -257 l 1
 0 -197 l 1
 127 -197 l 1
 127 672 l 1
 0 672 l 1
 0 732 l 1
 263 732 l 1
 231 709 217 685 217 632 c 2
 217 -157 l 1
EndSplineSet
EndChar
StartChar: asciicircum
Encoding: 94 94 63
Width: 488
Flags: HW
LayerCount: 2
Fore
SplineSet
244 631 m 1
 97 433 l 1
 30 433 l 1
 244 721 l 1
 458 433 l 1
 391 433 l 1
 244 631 l 1
EndSplineSet
EndChar
StartChar: underscore
Encoding: 95 95 64
Width: 569
Flags: HW
LayerCount: 2
Fore
SplineSet
0 -270 m 1
 0 -223 l 1
 569 -223 l 1
 569 -270 l 1
 0 -270 l 1
EndSplineSet
EndChar
StartChar: grave
Encoding: 96 96 65
Width: 301
Flags: HW
LayerCount: 2
Fore
SplineSet
54 710 m 1
 301 553 l 1
 298 550 l 1
 0 633 l 1
 54 710 l 1
EndSplineSet
EndChar
StartChar: a
Encoding: 97 97 66
Width: 490
Flags: HW
LayerCount: 2
Fore
SplineSet
322 366 m 0
 322 411 279 429 230 429 c 0
 175 429 123 413 85 392 c 1
 148 496 l 1
 177 501 207 505 239 505 c 0
 358 505 421 451 421 333 c 2
 421 138 l 1
 420 84 447 66 502 66 c 128
 505 66 509 66 512 67 c 1
 464 0 l 1
 449 0 l 2
 367 0 326 35 326 112 c 2
 326 269 l 1
 273 235 119 237 119 145 c 0
 118 89 161 61 220 61 c 0
 252 61 280 66 307 74 c 1
 243 -6 l 1
 223 -11 202 -15 179 -15 c 0
 83 -15 17 48 17 143 c 0
 17 242 81 263 187 288 c 0
 270 307 322 309 322 366 c 0
EndSplineSet
Substitution2: "'sups' Superscript lookup 9 subtable" uniF6E9
Substitution2: "'ordn' Ordinals lookup 6 subtable" uniF6E9
Substitution2: "'aalt' Access All Alternates lookup 0 subtable" uniF6E9
EndChar
StartChar: b
Encoding: 98 98 67
Width: 579
Flags: HW
LayerCount: 2
Fore
SplineSet
63 630 m 2
 63 665 50 684 28 700 c 1
 105 700 l 2
 130 700 143 705 158 716 c 1
 158 73 l 1
 187 66 225 61 258 61 c 0
 375 60 447 130 448 245 c 0
 447 347 388 429 288 429 c 0
 249 429 214 418 186 404 c 1
 232 478 l 2
 246 502 278 505 320 505 c 0
 461 505 552 404 552 261 c 0
 552 81 419 -15 233 -15 c 0
 166 -14 93 -8 31 2 c 1
 52 17 63 36 63 70 c 2
 63 630 l 2
EndSplineSet
Substitution2: "'sups' Superscript lookup 9 subtable" uniF6EA
Substitution2: "'ordn' Ordinals lookup 6 subtable" uniF6EA
Substitution2: "'aalt' Access All Alternates lookup 0 subtable" uniF6EA
EndChar
StartChar: c
Encoding: 99 99 68
Width: 508
Flags: HW
LayerCount: 2
Fore
SplineSet
328 505 m 0
 381 504 394 495 446 491 c 1
 446 381 l 1
 412 408 369 428 313 429 c 0
 206 429 131 359 131 255 c 0
 131 131 219 61 348 61 c 0
 419 61 471 76 513 107 c 1
 461 8 454 -13 324 -15 c 0
 146 -15 27 67 27 241 c 0
 24 414 154 505 328 505 c 0
EndSplineSet
EndChar
StartChar: d
Encoding: 100 100 69
Width: 600
Flags: HW
LayerCount: 2
Fore
SplineSet
444 630 m 2
 444 665 431 684 409 700 c 1
 486 700 l 1
 511 699 524 705 539 716 c 1
 539 70 l 2
 539 34 550 15 574 0 c 1
 444 0 l 1
 444 270 l 2
 444 363 383 429 293 429 c 0
 198 429 131 353 131 255 c 0
 131 147 207 61 313 61 c 0
 360 61 385 69 413 89 c 1
 369 14 l 1
 352 -11 333 -15 291 -15 c 0
 139 -14 27 92 27 244 c 0
 27 392 132 504 277 505 c 0
 348 505 401 479 444 445 c 1
 444 630 l 2
EndSplineSet
Substitution2: "'sups' Superscript lookup 9 subtable" uniF6EB
Substitution2: "'ordn' Ordinals lookup 6 subtable" uniF6EB
Substitution2: "'aalt' Access All Alternates lookup 0 subtable" uniF6EB
EndChar
StartChar: e
Encoding: 101 101 70
Width: 558
Flags: HW
LayerCount: 2
Fore
SplineSet
27 248 m 0
 26 402 136 505 293 505 c 0
 441 505 538 404 534 257 c 1
 131 257 l 1
 125 132 212 61 343 61 c 0
 426 60 485 79 541 111 c 1
 475 7 l 1
 426 -8 383 -15 322 -15 c 0
 148 -15 27 77 27 248 c 0
420 322 m 1
 413 388 360 429 288 429 c 0
 212 428 154 386 141 322 c 1
 420 322 l 1
EndSplineSet
Substitution2: "'sups' Superscript lookup 9 subtable" uniF6EC
Substitution2: "'ordn' Ordinals lookup 6 subtable" uniF6EC
Substitution2: "'aalt' Access All Alternates lookup 0 subtable" uniF6EC
EndChar
StartChar: f
Encoding: 102 102 71
Width: 284
Flags: HW
LayerCount: 2
Fore
SplineSet
29 0 m 1
 52 15 64 35 64 70 c 2
 64 415 l 1
 8 415 l 1
 64 485 l 1
 64 543 l 2
 64 658 168 715 287 715 c 0
 314 715 335 712 359 708 c 1
 289 629 l 1
 273 636 256 642 234 642 c 0
 186 642 159 617 159 568 c 2
 159 485 l 1
 285 485 l 2
 292 485 300 487 306 489 c 1
 306 398 l 1
 297 410 288 415 266 415 c 2
 159 415 l 1
 159 70 l 1
 158 33 174 14 199 0 c 1
 29 0 l 1
EndSplineSet
EndChar
StartChar: g
Encoding: 103 103 72
Width: 555
Flags: HW
LayerCount: 2
Fore
SplineSet
276 505 m 0
 325 505 375 496 423 499 c 0
 476 499 530 505 577 514 c 1
 554 456 l 2
 541 423 517 428 469 434 c 2
 413 441 l 1
 456 417 491 374 491 312 c 0
 489 212 412 164 314 150 c 0
 268 144 226 142 226 117 c 0
 224 104 241 97 256 97 c 2
 296 97 l 2
 454 97 578 72 578 -55 c 0
 578 -182 418 -243 279 -243 c 0
 151 -242 -8 -204 -10 -96 c 0
 -10 -40 37 -10 97 -10 c 0
 120 -10 136 -16 152 -25 c 1
 125 -26 108 -47 108 -75 c 0
 108 -146 192 -176 273 -177 c 0
 365 -177 463 -147 463 -63 c 0
 463 14 377 31 287 31 c 0
 264 31 198 28 178 28 c 0
 133 28 101 53 101 99 c 0
 101 116 112 124 126 131 c 2
 185 160 l 1
 102 173 39 234 39 326 c 0
 39 442 150 505 276 505 c 0
387 320 m 0
 387 387 324 437 257 438 c 0
 195 438 143 401 143 341 c 0
 142 269 203 212 275 213 c 0
 340 212 387 256 387 320 c 0
EndSplineSet
EndChar
StartChar: i
Encoding: 105 105 74
Width: 218
Flags: HW
LayerCount: 2
Fore
SplineSet
65 415 m 2
 65 450 52 469 30 485 c 1
 107 485 l 1
 132 484 145 490 160 501 c 1
 160 70 l 2
 160 34 171 15 195 0 c 1
 30 0 l 1
 52 15 65 34 65 70 c 2
 65 415 l 2
107 555 m 0
 72 554 43 585 43 619 c 0
 43 653 74 682 107 683 c 0
 140 683 171 652 171 619 c 0
 171 585 141 555 107 555 c 0
EndSplineSet
Substitution2: "'sups' Superscript lookup 9 subtable" uniF6ED
Substitution2: "'ordn' Ordinals lookup 6 subtable" uniF6ED
Substitution2: "'aalt' Access All Alternates lookup 0 subtable" uniF6ED
EndChar
StartChar: k
Encoding: 107 107 76
Width: 499
Flags: HW
LayerCount: 2
Fore
SplineSet
63 630 m 2
 63 665 50 684 28 700 c 1
 105 700 l 2
 130 700 143 705 158 716 c 1
 158 70 l 2
 158 34 169 15 193 0 c 1
 28 0 l 1
 51 15 63 35 63 70 c 2
 63 630 l 2
320 452 m 0
 320 467 308 477 297 485 c 1
 460 485 l 1
 279 282 l 1
 293 268 305 257 317 242 c 2
 450 75 l 1
 473 44 497 21 529 0 c 1
 491 -1 l 2
 394 -3 385 -5 354 36 c 2
 178 271 l 1
 278 380 l 2
 291 394 320 430 320 452 c 0
EndSplineSet
EndChar
StartChar: l
Encoding: 108 108 77
Width: 221
Flags: HW
LayerCount: 2
Fore
SplineSet
63 630 m 2
 63 665 50 684 28 700 c 1
 105 700 l 2
 130 700 143 705 158 716 c 1
 158 70 l 2
 158 34 169 15 193 0 c 1
 28 0 l 1
 51 15 63 35 63 70 c 2
 63 630 l 2
EndSplineSet
Substitution2: "'sups' Superscript lookup 9 subtable" uniF6EE
Substitution2: "'ordn' Ordinals lookup 6 subtable" uniF6EE
Substitution2: "'aalt' Access All Alternates lookup 0 subtable" uniF6EE
EndChar
StartChar: m
Encoding: 109 109 78
Width: 891
Flags: HW
LayerCount: 2
Fore
SplineSet
160 70 m 2
 160 34 171 15 195 0 c 1
 30 0 l 1
 52 15 65 34 65 70 c 2
 65 415 l 2
 65 450 52 469 30 485 c 1
 105 485 l 1
 130 484 143 490 158 501 c 1
 158 423 l 1
 187 473 234 505 308 505 c 0
 392 504 444 470 474 411 c 1
 509 468 562 503 646 505 c 0
 773 505 830 432 830 304 c 2
 830 70 l 2
 830 34 841 15 865 0 c 1
 700 0 l 1
 723 15 735 35 735 70 c 2
 735 280 l 1
 734 372 704 429 618 429 c 0
 530 428 495 377 495 286 c 2
 495 70 l 1
 494 34 507 15 530 0 c 1
 365 0 l 1
 388 15 400 35 400 70 c 2
 400 287 l 2
 400 372 365 429 281 429 c 0
 205 429 160 384 160 308 c 2
 160 70 l 2
EndSplineSet
Substitution2: "'sups' Superscript lookup 9 subtable" uniF6EF
Substitution2: "'ordn' Ordinals lookup 6 subtable" uniF6EF
Substitution2: "'aalt' Access All Alternates lookup 0 subtable" uniF6EF
EndChar
StartChar: n
Encoding: 110 110 79
Width: 562
Flags: HW
LayerCount: 2
Fore
SplineSet
160 70 m 2
 160 34 171 15 195 0 c 1
 30 0 l 1
 52 15 65 34 65 70 c 2
 65 415 l 2
 65 450 52 469 30 485 c 1
 107 485 l 1
 132 484 145 490 160 501 c 1
 160 434 l 1
 183 476 251 505 316 505 c 0
 424 505 501 450 501 347 c 2
 501 70 l 2
 501 34 512 15 536 0 c 1
 371 0 l 1
 394 15 406 35 406 70 c 2
 406 320 l 2
 406 389 355 429 284 429 c 0
 206 429 160 392 160 314 c 2
 160 70 l 2
EndSplineSet
Substitution2: "'sups' Superscript lookup 9 subtable" uni207F
Substitution2: "'ordn' Ordinals lookup 6 subtable" uni207F
Substitution2: "'aalt' Access All Alternates lookup 0 subtable" uni207F
EndChar
StartChar: o
Encoding: 111 111 80
Width: 610
Flags: HW
LayerCount: 2
Fore
SplineSet
27 245 m 0
 27 397 155 505 309 505 c 0
 463 504 583 394 583 245 c 0
 583 91 454 -14 300 -15 c 0
 145 -15 26 95 27 245 c 0
479 245 m 0
 478 348 410 429 303 429 c 0
 197 429 131 352 131 245 c 0
 131 140 199 61 307 61 c 0
 413 60 479 137 479 245 c 0
EndSplineSet
Substitution2: "'sups' Superscript lookup 9 subtable" uniF6F0
Substitution2: "'ordn' Ordinals lookup 6 subtable" uniF6F0
Substitution2: "'aalt' Access All Alternates lookup 0 subtable" uniF6F0
EndChar
StartChar: q
Encoding: 113 113 82
Width: 601
Flags: HW
LayerCount: 2
Fore
SplineSet
27 241 m 0
 26 403 155 505 325 505 c 2
 575 505 l 1
 552 489 540 471 540 435 c 2
 540 -151 l 2
 540 -187 552 -205 575 -221 c 1
 405 -221 l 1
 429 -206 445 -187 445 -151 c 2
 445 411 l 1
 415 417 363 424 329 424 c 0
 214 423 131 361 131 246 c 0
 131 126 208 61 329 61 c 0
 367 61 387 65 415 77 c 1
 365 5 l 1
 353 -11 339 -15 309 -15 c 0
 137 -14 27 77 27 241 c 0
EndSplineSet
EndChar
StartChar: r
Encoding: 114 114 83
Width: 315
Flags: HW
LayerCount: 2
Fore
SplineSet
160 70 m 2
 160 33 175 14 200 0 c 1
 30 0 l 1
 52 15 65 34 65 70 c 2
 65 415 l 2
 65 450 52 469 30 485 c 1
 103 485 l 1
 128 483 141 489 155 501 c 1
 155 421 l 1
 182 464 226 505 290 505 c 0
 302 504 314 503 325 501 c 1
 325 403 l 1
 309 413 294 419 270 419 c 0
 193 418 160 361 160 276 c 2
 160 70 l 2
EndSplineSet
Substitution2: "'sups' Superscript lookup 9 subtable" uniF6F1
Substitution2: "'ordn' Ordinals lookup 6 subtable" uniF6F1
Substitution2: "'aalt' Access All Alternates lookup 0 subtable" uniF6F1
EndChar
StartChar: t
Encoding: 116 116 85
Width: 308
Flags: HW
LayerCount: 2
Fore
SplineSet
-2 451 m 1
 87 462 133 538 126 640 c 1
 163 640 l 1
 163 485 l 1
 275 485 l 2
 288 485 297 485 308 489 c 1
 308 392 l 1
 297 407 282 415 257 415 c 2
 163 415 l 1
 163 161 l 1
 162 91 197 55 267 55 c 0
 282 55 293 58 306 61 c 1
 248 -12 l 1
 237 -13 227 -15 216 -15 c 0
 122 -15 68 49 68 144 c 2
 68 415 l 1
 -2 415 l 1
 -2 451 l 1
EndSplineSet
Substitution2: "'sups' Superscript lookup 9 subtable" uniF6F3
Substitution2: "'ordn' Ordinals lookup 6 subtable" uniF6F3
Substitution2: "'aalt' Access All Alternates lookup 0 subtable" uniF6F3
EndChar
StartChar: v
Encoding: 118 118 87
Width: 490
Flags: HW
LayerCount: 2
Fore
SplineSet
400 433 m 0
 399 457 384 476 366 485 c 1
 520 485 l 1
 282 -28 l 1
 222 5 200 21 172 86 c 2
 34 407 l 2
 19 441 -8 467 -40 485 c 1
 54 485 l 2
 78 485 95 490 108 502 c 1
 109 488 114 472 118 462 c 2
 265 111 l 1
 383 376 l 2
 391 395 398 413 400 433 c 0
EndSplineSet
EndChar
StartChar: w
Encoding: 119 119 88
Width: 770
Flags: HW
LayerCount: 2
Fore
SplineSet
695 432 m 0
 695 457 680 472 663 485 c 1
 800 485 l 1
 594 -28 l 1
 540 -2 520 13 499 70 c 2
 394 350 l 1
 251 -28 l 1
 199 -8 169 21 149 72 c 2
 9 426 l 1
 -3 452 -18 471 -40 485 c 1
 35 485 l 1
 57 484 70 490 82 500 c 1
 227 110 l 1
 334 396 l 2
 340 414 346 425 346 443 c 0
 346 463 332 475 319 485 c 1
 454 485 l 1
 451 466 454 454 460 439 c 2
 577 115 l 1
 683 386 l 2
 689 403 695 414 695 432 c 0
EndSplineSet
EndChar
StartChar: y
Encoding: 121 121 90
Width: 472
Flags: HW
LayerCount: 2
Fore
SplineSet
13 -114 m 1
 29 -126 47 -133 73 -133 c 0
 135 -131 160 -95 184 -44 c 2
 210 15 l 1
 187 36 170 58 157 87 c 2
 10 413 l 2
 -4 445 -25 473 -57 485 c 1
 30 488 l 2
 70 489 74 492 90 484 c 1
 254 114 l 1
 361 374 l 2
 369 394 376 412 376 437 c 0
 375 459 364 476 348 485 c 1
 504 485 l 1
 267 -56 l 2
 227 -146 171 -209 56 -209 c 0
 3 -209 -40 -197 -80 -182 c 1
 13 -114 l 1
EndSplineSet
EndChar
StartChar: z
Encoding: 122 122 91
Width: 478
Flags: HW
LayerCount: 2
Fore
SplineSet
289 404 m 1
 255 408 219 411 182 411 c 0
 113 410 70 400 28 373 c 1
 83 485 l 1
 460 485 l 1
 177 85 l 1
 218 79 271 76 315 76 c 0
 394 76 448 86 498 115 c 1
 440 0 l 1
 -5 0 l 1
 289 404 l 1
EndSplineSet
EndChar
StartChar: braceleft
Encoding: 123 123 92
Width: 402
Flags: HW
LayerCount: 2
Fore
SplineSet
165 68 m 0
 165 152 143 208 70 214 c 1
 70 254 l 1
 143 257 165 315 165 400 c 0
 165 438 162 491 162 533 c 0
 162 649 219 725 332 724 c 1
 332 696 l 1
 278 687 257 644 257 575 c 0
 255 547 257 522 258 493 c 0
 260 401 260 401 260 401 c 129
 260 401 260 401 260 399 c 0
 260 300 216 246 127 237 c 1
 127 231 l 1
 215 220 260 168 260 69 c 0
 260 -18 257 -25 257 -109 c 0
 257 -175 276 -222 332 -228 c 1
 332 -256 l 1
 219 -262 162 -181 162 -65 c 0
 162 -22 165 29 165 68 c 0
EndSplineSet
EndChar
StartChar: bar
Encoding: 124 124 93
Width: 135
Flags: HW
LayerCount: 2
Fore
SplineSet
30 773 m 1
 105 773 l 1
 105 -270 l 1
 30 -270 l 1
 30 773 l 1
EndSplineSet
EndChar
StartChar: braceright
Encoding: 125 125 94
Width: 402
Flags: HW
LayerCount: 2
Fore
SplineSet
237 400 m 0
 237 315 258 258 332 254 c 1
 332 214 l 1
 259 209 237 154 237 68 c 0
 235 29 240 -23 240 -65 c 0
 239 -180 183 -257 70 -256 c 1
 70 -228 l 1
 124 -219 145 -175 145 -107 c 0
 145 -80 144 -54 144 -25 c 0
 142 36 142 66 142 66 c 130
 142 66 142 67 142 69 c 0
 142 168 186 220 275 231 c 1
 275 237 l 1
 185 246 142 299 142 399 c 0
 142 485 145 494 145 577 c 0
 145 642 126 690 70 696 c 1
 70 724 l 1
 183 730 240 648 240 533 c 0
 239 491 237 438 237 400 c 0
EndSplineSet
EndChar
StartChar: asciitilde
Encoding: 126 126 95
Width: 610
Flags: HW
LayerCount: 2
Fore
SplineSet
193 643 m 0
 143 643 119 605 96 566 c 1
 62 583 l 1
 96 645 134 692 216 694 c 0
 298 694 340 622 430 622 c 0
 472 622 498 663 515 700 c 1
 549 684 l 1
 516 623 483 567 409 569 c 0
 347 569 339 580 277 614 c 0
 240 633 231 643 193 643 c 0
EndSplineSet
EndChar
StartChar: exclamdown
Encoding: 161 161 97
Width: 238
Flags: HW
LayerCount: 2
Fore
SplineSet
111 373 m 0
 74 373 44 402 45 439 c 0
 45 475 74 505 111 505 c 0
 147 505 176 474 177 439 c 0
 177 402 147 373 111 373 c 0
66 -210 m 1
 52 -209 50 -208 50 -194 c 0
 50 -172 53 -147 55 -118 c 2
 75 317 l 1
 148 317 l 1
 168 -134 l 2
 169 -177 176 -194 203 -210 c 1
 66 -210 l 1
EndSplineSet
EndChar
StartChar: cent
Encoding: 162 162 98
Width: 488
Flags: HW
LayerCount: 2
Fore
SplineSet
27 352 m 0
 27 497 133 607 268 619 c 1
 268 704 l 1
 330 704 l 1
 330 622 l 1
 377 621 404 611 446 608 c 1
 446 498 l 1
 416 523 376 540 330 545 c 1
 330 178 l 1
 403 175 454 191 493 224 c 1
 477 181 l 2
 457 126 447 116 388 106 c 128
 366 102 347 101 330 102 c 1
 330 0 l 1
 268 0 l 1
 268 105 l 1
 136 114 27 216 27 352 c 0
268 541 m 1
 191 529 131 463 131 373 c 0
 131 274 189 207 268 188 c 1
 268 541 l 1
EndSplineSet
EndChar
StartChar: sterling
Encoding: 163 163 99
Width: 480
Flags: HW
LayerCount: 2
Fore
SplineSet
262 714 m 0
 327 714 372 701 414 676 c 1
 414 570 l 1
 384 603 341 632 283 632 c 0
 225 632 180 603 181 547 c 0
 181 484 223 442 263 394 c 1
 381 394 l 1
 381 335 l 1
 298 335 l 1
 320 298 344 244 344 190 c 0
 344 162 335 131 326 107 c 1
 344 99 373 89 396 89 c 0
 425 89 444 102 460 119 c 1
 460 5 l 1
 439 -7 416 -15 385 -15 c 0
 338 -15 304 6 271 31 c 1
 243 6 198 -15 150 -15 c 0
 95 -14 50 9 50 64 c 256
 50 123 103 151 166 151 c 0
 192 149 216 145 237 137 c 1
 241 148 244 160 244 174 c 0
 244 234 204 294 171 335 c 1
 62 335 l 1
 62 394 l 1
 125 394 l 1
 92 437 67 473 67 534 c 0
 67 646 144 714 262 714 c 0
107 64 m 0
 107 43 125 34 149 35 c 0
 179 35 200 50 217 69 c 1
 200 82 181 92 153 92 c 0
 129 91 105 85 107 64 c 0
EndSplineSet
EndChar
StartChar: currency
Encoding: 164 164 100
Width: 680
Flags: HW
LayerCount: 2
Fore
SplineSet
339 606 m 0
 409 605 462 581 502 547 c 1
 595 640 l 1
 635 601 l 1
 541 509 l 1
 573 469 599 413 599 346 c 0
 599 278 574 223 541 183 c 1
 635 91 l 1
 595 52 l 1
 502 145 l 1
 462 111 408 86 339 86 c 0
 270 86 217 111 178 145 c 1
 85 52 l 1
 45 91 l 1
 138 183 l 1
 106 223 79 280 79 346 c 256
 79 412 106 469 138 509 c 1
 45 601 l 1
 85 640 l 1
 178 547 l 1
 216 582 269 606 339 606 c 0
339 560 m 256
 226 560 131 460 131 346 c 0
 131 231 225 132 339 132 c 256
 453 132 547 231 547 346 c 0
 547 460 452 560 339 560 c 256
EndSplineSet
EndChar
StartChar: yen
Encoding: 165 165 101
Width: 511
Flags: HW
LayerCount: 2
Fore
SplineSet
165 0 m 1
 197 22 211 48 211 100 c 2
 211 173 l 1
 73 173 l 1
 73 227 l 1
 211 227 l 1
 211 283 l 1
 73 283 l 1
 73 337 l 1
 193 337 l 1
 35 632 l 2
 18 661 -8 686 -40 700 c 1
 90 702 l 2
 102 702 109 700 119 697 c 1
 280 400 l 1
 388 607 l 2
 395 622 402 633 402 649 c 0
 402 672 384 691 368 700 c 1
 541 700 l 1
 333 337 l 1
 438 337 l 1
 438 283 l 1
 313 283 l 1
 313 227 l 1
 438 227 l 1
 438 173 l 1
 313 173 l 1
 313 100 l 1
 312 47 327 22 359 0 c 1
 165 0 l 1
EndSplineSet
EndChar
StartChar: brokenbar
Encoding: 166 166 102
Width: 135
Flags: HW
LayerCount: 2
Fore
SplineSet
30 773 m 1
 105 773 l 1
 105 454 l 1
 30 454 l 1
 30 773 l 1
30 49 m 1
 105 49 l 1
 105 -270 l 1
 30 -270 l 1
 30 49 l 1
EndSplineSet
EndChar
StartChar: section
Encoding: 167 167 103
Width: 461
Flags: HW
LayerCount: 2
Fore
SplineSet
30 389 m 0
 30 549 114 715 259 715 c 0
 299 715 344 704 373 691 c 1
 376 586 l 1
 351 608 316 631 274 631 c 0
 227 631 196 592 196 545 c 0
 196 469 246 430 301 380 c 0
 384 304 431 248 431 117 c 0
 430 -47 354 -209 203 -209 c 0
 161 -209 120 -199 89 -186 c 1
 85 -78 l 1
 108 -98 150 -125 188 -125 c 0
 234 -125 266 -86 266 -39 c 0
 266 -19 261 0 252 18 c 128
 243 36 213 71 160 124 c 0
 76 207 30 256 30 389 c 0
328 41 m 1
 332 70 331 82 332 122 c 0
 332 186 314 228 281 263 c 2
 245 301 l 2
 180 369 160 386 136 463 c 1
 130 438 129 415 129 382 c 0
 129 319 148 283 182 246 c 2
 217 206 l 1
 289 122 295 118 328 41 c 1
EndSplineSet
EndChar
StartChar: dieresis
Encoding: 168 168 104
Width: 318
Flags: HW
LayerCount: 2
Fore
SplineSet
64 555 m 0
 29 554 0 585 0 619 c 0
 0 653 31 682 64 683 c 0
 97 683 128 652 128 619 c 0
 128 585 98 555 64 555 c 0
254 555 m 0
 220 555 190 585 190 619 c 0
 190 653 220 683 254 683 c 0
 287 683 318 652 318 619 c 0
 318 585 288 555 254 555 c 0
EndSplineSet
EndChar
StartChar: copyright
Encoding: 169 169 105
Width: 828
Flags: HW
LayerCount: 2
Fore
SplineSet
414 -14 m 0
 216 -14 50 152 50 350 c 256
 50 548 216 714 414 714 c 256
 612 714 778 548 778 350 c 0
 777 151 613 -13 414 -14 c 0
414 674 m 0
 240 674 100 525 100 350 c 0
 100 174 239 26 414 26 c 0
 588 26 728 175 728 350 c 0
 728 525 587 674 414 674 c 0
444 579 m 0
 484 579 521 565 555 561 c 1
 555 486 l 1
 523 505 479 526 432 526 c 0
 337 526 270 463 270 365 c 0
 270 255 338 179 446 179 c 0
 511 178 555 194 592 224 c 1
 550 141 l 1
 516 130 486 126 442 126 c 0
 296 125 198 207 198 349 c 0
 198 489 303 579 444 579 c 0
EndSplineSet
EndChar
StartChar: guillemotleft
Encoding: 171 171 107
Width: 368
Flags: HW
LayerCount: 2
Fore
SplineSet
126 263 m 1
 192 82 l 1
 157 82 l 1
 40 263 l 1
 157 444 l 1
 192 444 l 1
 126 263 l 1
262 263 m 1
 328 82 l 1
 292 82 l 1
 176 263 l 1
 292 444 l 1
 328 444 l 1
 262 263 l 1
EndSplineSet
EndChar
StartChar: logicalnot
Encoding: 172 172 108
Width: 640
Flags: HW
LayerCount: 2
Fore
SplineSet
38 376 m 1
 38 431 l 1
 602 431 l 1
 602 166 l 1
 544 166 l 1
 544 376 l 1
 38 376 l 1
EndSplineSet
EndChar
StartChar: registered
Encoding: 174 174 110
Width: 828
Flags: HW
LayerCount: 2
Fore
SplineSet
414 -14 m 0
 216 -14 50 152 50 350 c 256
 50 548 216 714 414 714 c 256
 612 714 778 548 778 350 c 0
 777 151 613 -13 414 -14 c 0
269 124 m 1
 289 139 298 153 298 188 c 2
 298 508 l 2
 298 543 289 556 269 572 c 1
 297 572 325 573 353 574 c 1
 409 574 l 1
 500 573 571 544 571 458 c 0
 571 396 518 354 459 345 c 1
 499 282 585 162 647 133 c 1
 692 185 728 258 728 350 c 0
 728 524 587 674 414 674 c 0
 240 674 100 525 100 350 c 0
 100 174 239 26 414 26 c 0
 513 26 581 66 637 122 c 1
 593 115 552 128 516 160 c 128
 480 192 435 257 382 358 c 1
 439 362 495 394 495 452 c 0
 495 502 459 527 406 527 c 0
 385 527 378 526 363 522 c 1
 363 188 l 2
 363 151 371 140 393 124 c 1
 269 124 l 1
EndSplineSet
EndChar
StartChar: macron
Encoding: 175 175 111
AltUni2: 0002c9.ffffffff.0
Width: 382
Flags: HW
LayerCount: 2
Fore
SplineSet
0 657 m 1
 382 657 l 1
 382 597 l 1
 0 597 l 1
 0 657 l 1
EndSplineSet
EndChar
StartChar: degree
Encoding: 176 176 112
Width: 310
Flags: HW
LayerCount: 2
Fore
SplineSet
155 480 m 0
 94 480 45 529 45 590 c 0
 44 650 95 700 155 700 c 0
 214 700 265 649 265 590 c 0
 265 530 215 480 155 480 c 0
155 658 m 0
 118 657 87 628 87 590 c 0
 87 552 117 522 155 522 c 0
 193 522 223 552 223 590 c 0
 223 627 192 658 155 658 c 0
EndSplineSet
EndChar
StartChar: plusminus
Encoding: 177 177 113
Width: 640
Flags: HW
LayerCount: 2
Fore
SplineSet
38 52 m 1
 38 106 l 1
 602 106 l 1
 602 52 l 1
 38 52 l 1
347 161 m 1
 293 161 l 1
 293 367 l 1
 38 367 l 1
 38 421 l 1
 293 421 l 1
 293 654 l 1
 347 654 l 1
 347 421 l 1
 602 421 l 1
 602 367 l 1
 347 367 l 1
 347 161 l 1
EndSplineSet
EndChar
StartChar: uni00B2
Encoding: 178 178 114
Width: 315
Flags: HW
LayerCount: 2
Fore
SplineSet
201 589 m 0
 201 622 171 642 137 642 c 0
 96 642 58 622 24 605 c 1
 61 688 l 1
 88 697 117 702 153 702 c 0
 224 702 284 668 284 603 c 0
 284 560 271 547 247 511 c 2
 123 330 l 1
 150 327 170 326 197 326 c 0
 260 326 289 334 335 356 c 1
 297 270 l 1
 0 270 l 1
 178 531 l 2
 189 547 201 567 201 589 c 0
EndSplineSet
EndChar
StartChar: uni00B3
Encoding: 179 179 115
Width: 354
Flags: HW
LayerCount: 2
Fore
SplineSet
227 592 m 0
 227 630 190 650 148 650 c 0
 109 650 75 634 45 617 c 1
 79 698 l 1
 103 704 129 709 157 709 c 0
 235 709 306 674 306 601 c 0
 306 553 274 524 233 512 c 1
 285 504 328 458 329 400 c 0
 327 306 236 261 130 261 c 0
 97 259 72 264 44 271 c 1
 10 362 l 1
 51 338 85 318 139 320 c 0
 196 320 250 346 250 400 c 0
 249 451 204 477 149 477 c 0
 132 477 114 474 98 472 c 1
 98 536 l 1
 119 533 128 532 146 532 c 0
 189 532 227 552 227 592 c 0
EndSplineSet
EndChar
StartChar: acute
Encoding: 180 180 116
Width: 301
Flags: HW
LayerCount: 2
Fore
SplineSet
247 710 m 1
 301 633 l 1
 3 550 l 1
 0 553 l 1
 247 710 l 1
EndSplineSet
EndChar
StartChar: mu
Encoding: 181 181 117
Width: 549
Flags: HW
LayerCount: 2
Fore
SplineSet
56 415 m 2
 56 450 43 469 21 485 c 1
 98 485 l 1
 123 484 136 490 151 501 c 1
 151 202 l 2
 151 116 189 61 270 61 c 0
 343 60 393 113 393 185 c 2
 393 415 l 2
 393 450 380 469 358 485 c 1
 435 485 l 1
 460 484 473 490 488 501 c 1
 488 70 l 2
 488 34 499 15 523 0 c 1
 397 0 l 1
 397 70 l 1
 369 23 325 -14 256 -15 c 0
 187 -15 154 17 132 72 c 1
 143 -221 l 1
 48 -221 l 1
 56 71 l 1
 56 415 l 2
EndSplineSet
EndChar
StartChar: paragraph
Encoding: 182 182 118
Width: 616
Flags: HW
LayerCount: 2
Fore
SplineSet
545 -109 m 2
 545 -162 559 -186 591 -209 c 1
 458 -209 l 1
 458 700 l 1
 591 700 l 1
 559 677 545 653 545 600 c 2
 545 -109 l 2
55 450 m 0
 55 596 180 699 327 700 c 1
 405 700 l 1
 405 -209 l 1
 272 -209 l 1
 303 -186 318 -161 318 -109 c 2
 318 200 l 1
 172 194 55 311 55 450 c 0
EndSplineSet
EndChar
StartChar: periodcentered
Encoding: 183 183 119
AltUni2: 002219.ffffffff.0
Width: 328
Flags: HW
LayerCount: 2
Fore
SplineSet
164 196 m 0
 116 195 80 233 80 280 c 0
 80 327 117 364 164 364 c 0
 210 364 248 326 248 280 c 0
 247 233 211 196 164 196 c 0
EndSplineSet
EndChar
StartChar: cedilla
Encoding: 184 184 120
Width: 215
Flags: HW
LayerCount: 2
Fore
SplineSet
149 -119 m 0
 149 -90 118 -85 86 -93 c 1
 58 -50 l 1
 74 -12 l 1
 128 -12 l 1
 113 -53 l 1
 170 -45 214 -70 215 -122 c 0
 215 -171 166 -202 115 -202 c 0
 67 -202 30 -183 0 -160 c 1
 34 -117 l 1
 54 -135 78 -150 109 -152 c 0
 130 -152 148 -138 149 -119 c 0
EndSplineSet
EndChar
StartChar: uni00B9
Encoding: 185 185 121
Width: 229
Flags: HW
LayerCount: 2
Fore
SplineSet
45 270 m 1
 70 282 83 299 83 335 c 2
 83 604 l 1
 0 604 l 1
 68 633 116 672 153 732 c 1
 153 335 l 1
 152 301 166 283 189 270 c 1
 45 270 l 1
EndSplineSet
EndChar
StartChar: guillemotright
Encoding: 187 187 123
Width: 368
Flags: HW
LayerCount: 2
Fore
SplineSet
106 263 m 1
 40 444 l 1
 76 444 l 1
 192 263 l 1
 76 82 l 1
 40 82 l 1
 106 263 l 1
242 263 m 1
 176 444 l 1
 211 444 l 1
 328 263 l 1
 211 82 l 1
 176 82 l 1
 242 263 l 1
EndSplineSet
EndChar
StartChar: onequarter
Encoding: 188 188 124
Width: 716
Flags: HW
LayerCount: 2
Fore
SplineSet
45 270 m 1
 70 282 83 299 83 335 c 2
 83 604 l 1
 0 604 l 1
 69 634 116 672 154 732 c 1
 154 335 l 1
 153 301 167 283 190 270 c 1
 45 270 l 1
433 715 m 1
 487 715 l 1
 208 -23 l 1
 154 -23 l 1
 433 715 l 1
517 0 m 1
 542 12 555 29 555 65 c 2
 555 85 l 1
 331 85 l 1
 532 430 l 1
 626 430 l 1
 626 148 l 1
 656 150 681 160 706 172 c 1
 672 85 l 1
 626 85 l 1
 626 65 l 1
 625 31 639 13 662 0 c 1
 517 0 l 1
512 143 m 0
 527 143 540 144 555 145 c 1
 555 357 l 1
 434 148 l 1
 457 144 486 143 512 143 c 0
EndSplineSet
Ligature2: "'frac' Diagonal Fractions lookup 3 subtable" one uni2215 four
Ligature2: "'frac' Diagonal Fractions lookup 3 subtable" one slash four
EndChar
StartChar: onehalf
Encoding: 189 189 125
Width: 673
Flags: HW
LayerCount: 2
Fore
SplineSet
45 270 m 1
 70 282 83 299 83 335 c 2
 83 604 l 1
 0 604 l 1
 69 634 116 672 154 732 c 1
 154 335 l 1
 153 301 167 283 190 270 c 1
 45 270 l 1
413 715 m 1
 467 715 l 1
 188 -23 l 1
 134 -23 l 1
 413 715 l 1
559 319 m 0
 559 352 529 372 495 372 c 0
 454 370 416 352 382 335 c 1
 419 418 l 1
 446 427 475 432 511 432 c 0
 582 432 642 398 642 333 c 0
 640 290 630 278 605 241 c 2
 481 60 l 1
 508 57 528 56 555 56 c 0
 618 56 647 64 693 86 c 1
 655 0 l 1
 358 0 l 1
 536 261 l 2
 547 277 559 297 559 319 c 0
EndSplineSet
Ligature2: "'frac' Diagonal Fractions lookup 3 subtable" one uni2215 two
Ligature2: "'frac' Diagonal Fractions lookup 3 subtable" one slash two
EndChar
StartChar: threequarters
Encoding: 190 190 126
Width: 802
Flags: HW
LayerCount: 2
Fore
SplineSet
227 592 m 0
 227 630 190 650 148 650 c 0
 109 650 75 634 45 617 c 1
 79 698 l 1
 103 704 129 709 157 709 c 0
 235 709 306 674 306 601 c 0
 306 553 274 524 233 512 c 1
 285 504 328 458 329 400 c 0
 327 306 236 261 130 261 c 0
 97 259 72 264 44 271 c 1
 10 362 l 1
 51 338 85 318 139 320 c 0
 196 320 250 346 250 400 c 0
 249 451 204 477 149 477 c 0
 132 477 114 474 98 472 c 1
 98 536 l 1
 119 533 128 532 146 532 c 0
 189 532 227 552 227 592 c 0
523 715 m 1
 577 715 l 1
 298 -23 l 1
 244 -23 l 1
 523 715 l 1
603 0 m 1
 628 12 641 29 641 65 c 2
 641 85 l 1
 417 85 l 1
 618 430 l 1
 712 430 l 1
 712 148 l 1
 742 150 767 160 792 172 c 1
 758 85 l 1
 712 85 l 1
 712 65 l 1
 711 31 725 13 748 0 c 1
 603 0 l 1
598 143 m 0
 613 143 626 144 641 145 c 1
 641 357 l 1
 520 148 l 1
 543 144 572 143 598 143 c 0
EndSplineSet
Ligature2: "'frac' Diagonal Fractions lookup 3 subtable" three uni2215 four
Ligature2: "'frac' Diagonal Fractions lookup 3 subtable" three slash four
EndChar
StartChar: questiondown
Encoding: 191 191 127
Width: 399
Flags: HW
LayerCount: 2
Fore
SplineSet
244 373 m 0
 207 373 178 402 178 439 c 0
 178 475 207 505 244 505 c 0
 280 505 310 475 310 439 c 0
 310 402 280 373 244 373 c 0
104 -17 m 0
 103 -101 173 -153 259 -153 c 0
 313 -153 357 -133 399 -112 c 1
 382 -146 l 2
 350 -209 330 -225 237 -225 c 0
 104 -225 0 -163 0 -38 c 0
 0 52 43 93 104 145 c 2
 135 171 l 2
 179 208 212 230 212 284 c 0
 212 297 209 308 204 317 c 1
 290 317 l 1
 290 308 291 300 291 291 c 0
 291 211 262 182 208 139 c 0
 146 89 104 60 104 -17 c 0
EndSplineSet
EndChar
StartChar: AE
Encoding: 198 198 134
Width: 872
Flags: HW
LayerCount: 2
Fore
SplineSet
398 666 m 0
 398 683 385 691 373 700 c 1
 788 700 l 1
 788 585 l 1
 764 612 733 622 683 621 c 2
 548 618 l 1
 548 418 l 1
 692 418 l 2
 705 418 717 419 728 421 c 1
 728 312 l 1
 710 330 688 338 652 338 c 2
 548 338 l 1
 548 87 l 1
 588 82 634 80 678 80 c 0
 775 80 835 95 887 141 c 1
 836 0 l 1
 400 0 l 1
 431 22 446 48 446 100 c 2
 446 338 l 1
 268 338 l 1
 91 94 l 2
 78 76 69 64 69 42 c 0
 69 20 83 8 101 0 c 1
 -110 0 l 1
 -74 25 -34 67 -8 102 c 2
 377 620 l 2
 388 635 398 647 398 666 c 0
446 418 m 1
 446 544 l 2
 446 568 446 585 449 606 c 1
 441 585 431 561 418 544 c 2
 326 418 l 1
 446 418 l 1
EndSplineSet
Position2: "'cpsp' Capital Spacing lookup 0 subtable" dx=5 dy=0 dh=10 dv=0
EndChar
StartChar: Eth
Encoding: 208 208 144
Width: 731
Flags: HW
LayerCount: 2
Fore
SplineSet
43 0 m 1
 75 22 89 48 89 100 c 2
 89 361 l 1
 0 361 l 1
 0 421 l 1
 89 421 l 1
 89 600 l 1
 88 652 74 677 43 700 c 1
 103 703 220 709 280 709 c 0
 532 709 695 591 695 353 c 0
 695 111 519 0 263 0 c 2
 43 0 l 1
296 629 m 0
 261 629 224 624 191 619 c 1
 191 421 l 1
 382 421 l 1
 382 361 l 1
 191 361 l 1
 191 91 l 1
 221 81 241 80 282 80 c 0
 460 80 580 169 580 349 c 0
 580 520 465 629 296 629 c 0
EndSplineSet
Position2: "'cpsp' Capital Spacing lookup 0 subtable" dx=5 dy=0 dh=10 dv=0
EndChar
StartChar: multiply
Encoding: 215 215 151
Width: 640
Flags: HW
LayerCount: 2
Fore
SplineSet
321 311 m 1
 118 107 l 1
 79 145 l 1
 283 349 l 1
 79 553 l 1
 118 591 l 1
 321 387 l 1
 524 591 l 1
 563 553 l 1
 359 349 l 1
 563 145 l 1
 524 107 l 1
 321 311 l 1
EndSplineSet
EndChar
StartChar: Oslash
Encoding: 216 216 152
Width: 840
Flags: HW
LayerCount: 2
Fore
SplineSet
420 -15 m 0
 390 -15 361 -12 334 -8 c 1
 302 -102 l 1
 226 -102 l 1
 264 10 l 1
 138 60 36 182 36 350 c 0
 35 563 198 715 420 715 c 0
 450 715 475 713 502 709 c 1
 537 810 l 1
 613 810 l 1
 572 691 l 1
 700 648 804 514 804 350 c 0
 804 137 642 -15 420 -15 c 0
422 633 m 0
 263 633 151 519 151 360 c 0
 151 233 209 142 294 97 c 1
 475 628 l 1
 458 630 441 633 422 633 c 0
418 67 m 0
 577 67 689 181 689 340 c 0
 689 468 626 559 543 605 c 1
 362 73 l 1
 379 69 398 67 418 67 c 0
EndSplineSet
Position2: "'cpsp' Capital Spacing lookup 0 subtable" dx=5 dy=0 dh=10 dv=0
EndChar
StartChar: Thorn
Encoding: 222 222 158
Width: 547
Flags: HW
LayerCount: 2
Fore
SplineSet
88 659 m 2
 88 706 72 729 43 750 c 1
 238 750 l 1
 212 732 189 701 192 659 c 1
 374 678 527 567 527 387 c 0
 527 208 376 88 192 104 c 1
 192 94 l 2
 192 46 208 19 238 0 c 1
 43 0 l 1
 73 21 88 43 88 94 c 2
 88 659 l 2
192 177 m 1
 320 168 412 251 412 375 c 0
 411 502 323 593 192 586 c 1
 192 177 l 1
EndSplineSet
Position2: "'cpsp' Capital Spacing lookup 0 subtable" dx=5 dy=0 dh=10 dv=0
EndChar
StartChar: germandbls
Encoding: 223 223 159
Width: 584
Flags: HW
LayerCount: 2
Fore
SplineSet
173 70 m 2
 173 34 184 15 208 0 c 1
 43 0 l 1
 66 15 78 35 78 70 c 2
 78 402 l 1
 30 402 l 1
 44 422 l 2
 62 448 78 465 78 494 c 2
 78 510 l 2
 78 633 161 715 285 715 c 0
 382 715 470 663 470 571 c 0
 470 507 436 475 390 447 c 2
 372 436 l 2
 360 429 344 420 344 406 c 256
 344 394 352 392 364 387 c 2
 384 378 l 1
 480 333 569 282 569 165 c 0
 569 54 482 -15 370 -15 c 0
 323 -15 257 -7 247 26 c 2
 220 117 l 1
 253 85 293 61 351 61 c 0
 423 60 464 97 465 165 c 0
 465 242 404 278 339 309 c 2
 285 334 l 2
 253 348 234 355 234 387 c 0
 234 418 251 426 280 449 c 2
 319 480 l 2
 346 501 368 527 368 571 c 0
 368 620 333 647 280 647 c 0
 198 647 173 587 173 498 c 2
 173 70 l 2
EndSplineSet
EndChar
StartChar: ae
Encoding: 230 230 166
Width: 821
Flags: HW
LayerCount: 2
Fore
SplineSet
322 366 m 0
 322 411 279 429 230 429 c 0
 175 429 123 413 85 392 c 1
 148 496 l 1
 177 501 207 505 239 505 c 0
 315 505 373 483 396 435 c 1
 433 480 488 505 571 505 c 0
 718 505 805 403 802 257 c 1
 419 257 l 1
 413 135 495 61 621 61 c 0
 698 61 753 79 804 111 c 1
 743 7 l 1
 696 -8 657 -15 598 -15 c 0
 433 -15 315 79 315 243 c 0
 315 246 315 246 315 250 c 128
 315 253 315 257 316 262 c 1
 259 233 119 235 119 145 c 0
 119 89 161 61 220 61 c 0
 252 61 280 66 307 74 c 1
 243 -6 l 1
 224 -11 206 -15 184 -15 c 0
 85 -15 17 47 17 143 c 0
 17 242 81 263 187 288 c 0
 270 307 322 309 322 366 c 0
688 322 m 1
 683 386 635 429 566 429 c 0
 494 428 441 384 429 322 c 1
 688 322 l 1
EndSplineSet
EndChar
StartChar: eth
Encoding: 240 240 176
Width: 606
Flags: HW
LayerCount: 2
Fore
SplineSet
224 731 m 1
 266 724 305 713 341 699 c 1
 429 773 l 1
 468 727 l 1
 399 669 l 1
 500 588 566 476 566 302 c 0
 566 116 469 -15 288 -15 c 0
 138 -15 26 77 27 229 c 0
 27 382 127 489 276 489 c 0
 360 489 416 461 455 414 c 1
 439 497 392 571 331 612 c 1
 230 527 l 1
 191 573 l 1
 278 646 l 1
 247 664 213 678 173 685 c 1
 224 731 l 1
462 241 m 0
 462 342 392 412 291 413 c 0
 188 413 131 334 131 228 c 0
 131 128 195 61 292 61 c 0
 397 61 462 135 462 241 c 0
EndSplineSet
EndChar
StartChar: divide
Encoding: 247 247 183
Width: 640
Flags: HW
LayerCount: 2
Fore
SplineSet
38 322 m 1
 38 376 l 1
 602 376 l 1
 602 322 l 1
 38 322 l 1
320 499 m 0
 287 499 261 525 261 558 c 0
 261 590 287 617 320 617 c 0
 352 617 379 590 379 558 c 0
 379 525 352 499 320 499 c 0
320 81 m 0
 287 81 261 107 261 140 c 0
 261 172 287 199 320 199 c 0
 351 198 379 172 379 140 c 0
 379 108 352 80 320 81 c 0
EndSplineSet
EndChar
StartChar: oslash
Encoding: 248 248 184
Width: 610
Flags: HW
LayerCount: 2
Fore
SplineSet
311 505 m 0
 331 505 350 502 369 500 c 1
 413 614 l 1
 483 614 l 1
 431 481 l 1
 513 442 583 358 583 245 c 0
 583 91 452 -14 297 -15 c 0
 277 -15 258 -13 240 -10 c 1
 195 -126 l 1
 125 -126 l 1
 178 9 l 1
 95 48 27 131 27 245 c 0
 27 401 153 505 311 505 c 0
303 429 m 0
 198 429 130 352 131 245 c 0
 131 175 163 117 209 88 c 1
 340 426 l 1
 327 427 316 428 303 429 c 0
307 61 m 0
 413 61 478 138 479 245 c 0
 479 317 445 373 400 403 c 1
 268 64 l 1
 280 61 292 61 307 61 c 0
EndSplineSet
EndChar
StartChar: thorn
Encoding: 254 254 190
Width: 493
Flags: HW
LayerCount: 2
Fore
SplineSet
63 630 m 2
 63 665 50 684 28 700 c 1
 105 700 l 2
 130 700 143 705 158 716 c 1
 158 501 l 1
 173 503 185 505 201 505 c 0
 354 505 466 412 466 260 c 0
 466 96 361 -14 201 -15 c 0
 185 -15 173 -13 158 -11 c 1
 158 -151 l 2
 158 -187 170 -205 193 -221 c 1
 28 -221 l 1
 50 -205 63 -186 63 -151 c 2
 63 630 l 2
185 435 m 0
 175 435 167 433 158 432 c 1
 158 61 l 1
 172 56 191 55 210 55 c 0
 308 55 361 142 362 243 c 0
 362 354 294 435 185 435 c 0
EndSplineSet
EndChar
StartChar: Aogonek
Encoding: 260 260 196
Width: 658
Flags: HW
LayerCount: 2
Fore
SplineSet
532 -101 m 0
 532 -49 566 -12 609 0 c 1
 493 0 l 1
 523 13 539 36 523 78 c 2
 447 266 l 1
 178 266 l 1
 115 109 l 2
 93 56 103 25 139 0 c 1
 -50 0 l 1
 -2 30 16 65 41 127 c 2
 241 633 l 2
 254 667 242 689 218 700 c 1
 382 700 l 1
 623 103 l 2
 643 52 664 22 708 0 c 1
 684 0 l 1
 641 -9 597 -41 597 -88 c 0
 597 -113 610 -130 636 -130 c 0
 674 -130 704 -109 722 -86 c 1
 747 -118 l 1
 722 -154 687 -183 632 -183 c 0
 578 -183 532 -153 532 -101 c 0
312 609 m 1
 204 333 l 1
 421 333 l 1
 312 609 l 1
EndSplineSet
Position2: "'cpsp' Capital Spacing lookup 0 subtable" dx=5 dy=0 dh=10 dv=0
EndChar
StartChar: aogonek
Encoding: 261 261 197
Width: 490
Flags: HW
LayerCount: 2
Fore
SplineSet
322 366 m 0
 322 411 279 429 230 429 c 0
 175 429 123 413 85 392 c 1
 148 496 l 1
 177 501 207 505 239 505 c 0
 358 505 421 451 421 333 c 2
 421 138 l 1
 420 84 447 66 502 66 c 128
 505 66 509 66 512 67 c 1
 459 0 l 1
 421 -11 383 -41 383 -86 c 0
 383 -111 398 -128 422 -128 c 0
 451 -128 479 -105 493 -87 c 1
 517 -118 l 1
 491 -149 459 -176 408 -176 c 0
 356 -176 313 -149 313 -99 c 0
 313 -43 360 -1 415 2 c 1
 358 6 326 49 326 112 c 2
 326 269 l 1
 275 235 119 238 119 145 c 0
 119 89 161 61 220 61 c 0
 252 61 280 66 307 74 c 1
 243 -6 l 1
 223 -11 202 -15 179 -15 c 0
 83 -15 17 48 17 143 c 0
 17 242 81 263 187 288 c 0
 270 307 322 309 322 366 c 0
EndSplineSet
EndChar
StartChar: dcroat
Encoding: 273 273 209
Width: 600
Flags: HW
LayerCount: 2
Fore
SplineSet
444 630 m 2
 444 665 431 684 409 700 c 1
 486 700 l 1
 511 699 524 705 539 716 c 1
 539 617 l 1
 596 617 l 1
 596 547 l 1
 539 547 l 1
 539 70 l 2
 539 34 550 15 574 0 c 1
 444 0 l 1
 444 270 l 2
 444 363 383 429 293 429 c 0
 198 429 131 353 131 255 c 0
 131 147 207 61 313 61 c 0
 360 61 385 69 413 89 c 1
 369 14 l 1
 352 -11 333 -15 291 -15 c 0
 138 -14 26 91 27 244 c 0
 26 392 132 505 277 505 c 0
 350 505 399 479 444 445 c 1
 444 547 l 1
 239 547 l 1
 239 617 l 1
 444 617 l 1
 444 630 l 2
EndSplineSet
EndChar
StartChar: Eogonek
Encoding: 280 280 216
Width: 515
Flags: HW
LayerCount: 2
Fore
SplineSet
89 600 m 1
 88 651 74 677 43 700 c 1
 431 700 l 1
 431 585 l 1
 407 612 376 622 326 621 c 2
 191 618 l 1
 191 418 l 1
 335 418 l 2
 348 418 360 419 371 421 c 1
 371 312 l 1
 353 330 331 338 295 338 c 2
 191 338 l 1
 191 87 l 1
 231 82 277 80 321 80 c 0
 418 79 478 95 530 141 c 1
 479 0 l 1
 442 0 l 1
 406 -21 363 -45 365 -88 c 0
 365 -113 378 -130 404 -130 c 0
 442 -130 472 -109 490 -86 c 1
 515 -118 l 1
 490 -154 455 -183 400 -183 c 0
 342 -183 300 -150 300 -93 c 0
 299 -45 338 -12 377 0 c 1
 43 0 l 1
 74 22 89 48 89 100 c 2
 89 600 l 1
EndSplineSet
Position2: "'cpsp' Capital Spacing lookup 0 subtable" dx=5 dy=0 dh=10 dv=0
EndChar
StartChar: eogonek
Encoding: 281 281 217
Width: 558
Flags: HW
LayerCount: 2
Fore
SplineSet
27 248 m 0
 26 402 136 505 293 505 c 0
 441 505 538 404 534 257 c 1
 131 257 l 1
 125 132 212 61 343 61 c 0
 426 60 485 79 541 111 c 1
 475 7 l 1
 412 -8 l 1
 384 -25 357 -49 357 -86 c 0
 357 -111 376 -128 401 -128 c 0
 428 -128 453 -105 467 -87 c 1
 491 -116 l 1
 468 -148 432 -176 382 -176 c 0
 331 -175 286 -149 287 -99 c 0
 287 -60 307 -29 334 -15 c 1
 322 -15 l 1
 148 -12 26 74 27 248 c 0
420 322 m 1
 413 388 360 429 288 429 c 0
 212 428 154 386 141 322 c 1
 420 322 l 1
EndSplineSet
EndChar
StartChar: Iogonek
Encoding: 302 302 238
Width: 280
Flags: HW
LayerCount: 2
Fore
SplineSet
89 600 m 1
 88 652 74 677 43 700 c 1
 237 700 l 1
 205 677 191 653 191 600 c 2
 191 100 l 1
 190 47 205 22 237 0 c 1
 215 0 l 1
 178 -21 138 -44 138 -88 c 0
 137 -113 152 -130 177 -130 c 0
 215 -130 245 -109 263 -86 c 1
 288 -118 l 1
 263 -155 228 -181 173 -183 c 0
 119 -182 73 -154 73 -101 c 0
 73 -49 107 -12 150 0 c 1
 43 0 l 1
 75 22 89 48 89 100 c 2
 89 600 l 1
EndSplineSet
Position2: "'cpsp' Capital Spacing lookup 0 subtable" dx=5 dy=0 dh=10 dv=0
EndChar
StartChar: iogonek
Encoding: 303 303 239
Width: 218
Flags: HW
LayerCount: 2
Fore
SplineSet
65 415 m 2
 65 450 52 469 30 485 c 1
 107 485 l 1
 132 484 145 490 160 501 c 1
 160 70 l 2
 160 34 171 15 195 0 c 1
 159 -12 122 -42 122 -86 c 0
 122 -111 141 -128 166 -128 c 0
 193 -128 218 -105 232 -87 c 1
 256 -116 l 1
 233 -148 197 -174 147 -176 c 0
 95 -176 52 -149 52 -99 c 0
 51 -46 91 -10 136 0 c 1
 30 0 l 1
 52 15 65 34 65 70 c 2
 65 415 l 2
107 555 m 0
 72 554 43 585 43 619 c 0
 43 653 74 682 107 683 c 0
 140 683 171 652 171 619 c 0
 171 585 141 555 107 555 c 0
EndSplineSet
EndChar
StartChar: dotlessi
Encoding: 305 305 241
Width: 218
Flags: HW
LayerCount: 2
Fore
SplineSet
65 415 m 2
 65 450 52 469 30 485 c 1
 107 485 l 1
 132 484 145 490 160 501 c 1
 160 70 l 2
 160 34 171 15 195 0 c 1
 30 0 l 1
 52 15 65 34 65 70 c 2
 65 415 l 2
EndSplineSet
EndChar
StartChar: jcircumflex
Encoding: 309 309 245
Width: 225
Flags: HW
LayerCount: 2
Fore
SplineSet
68 415 m 2
 68 450 55 469 33 485 c 1
 110 485 l 1
 135 484 148 490 163 501 c 1
 163 -9 l 2
 163 -114 147 -147 73 -180 c 128
 39 -195 1 -205 -41 -209 c 1
 32 -171 68 -115 68 -4 c 2
 68 415 l 2
284 537 m 1
 213 544 154 569 104 602 c 1
 53 569 -5 544 -76 537 c 1
 104 705 l 1
 284 537 l 1
EndSplineSet
EndChar
StartChar: kgreenlandic
Encoding: 312 312 248
Width: 499
Flags: HW
LayerCount: 2
Fore
SplineSet
63 415 m 6
 63 450 50 469 28 485 c 5
 105 485 l 6
 130 485 143 490 158 501 c 5
 158 70 l 2
 158 34 169 15 193 0 c 1
 28 0 l 1
 51 15 63 35 63 70 c 2
 63 415 l 6
320 452 m 0
 320 467 308 477 297 485 c 1
 460 485 l 1
 279 282 l 1
 293 268 305 257 317 242 c 2
 450 75 l 1
 473 44 497 21 529 0 c 1
 491 -1 l 2
 394 -3 385 -5 354 36 c 2
 178 271 l 1
 278 380 l 2
 291 394 320 430 320 452 c 0
EndSplineSet
EndChar
StartChar: Lslash
Encoding: 321 321 257
Width: 528
Flags: HW
LayerCount: 2
Fore
SplineSet
103 600 m 1
 102 652 88 677 57 700 c 1
 256 700 l 1
 223 679 205 651 205 600 c 2
 205 469 l 1
 285 562 l 1
 285 492 l 1
 205 399 l 1
 205 89 l 1
 237 84 285 80 320 80 c 0
 411 80 493 103 543 145 c 1
 487 0 l 1
 57 0 l 1
 88 22 103 47 103 100 c 2
 103 281 l 1
 43 212 l 1
 43 282 l 1
 103 351 l 1
 103 600 l 1
EndSplineSet
Position2: "'cpsp' Capital Spacing lookup 0 subtable" dx=5 dy=0 dh=10 dv=0
EndChar
StartChar: lslash
Encoding: 322 322 258
Width: 240
Flags: HW
LayerCount: 2
Fore
SplineSet
85 630 m 2
 85 665 72 684 50 700 c 1
 127 700 l 1
 152 699 165 705 180 716 c 1
 180 488 l 1
 232 562 l 1
 232 492 l 1
 180 418 l 1
 180 70 l 2
 180 34 191 15 215 0 c 1
 50 0 l 1
 73 15 85 35 85 70 c 2
 85 284 l 1
 20 192 l 1
 20 262 l 1
 85 354 l 1
 85 630 l 2
EndSplineSet
EndChar
StartChar: Eng
Encoding: 330 330 266
Width: 777
Flags: HW
LayerCount: 2
Fore
SplineSet
86 600 m 1
 85 652 71 677 40 700 c 1
 189 700 l 1
 192 691 198 680 204 674 c 2
 613 164 l 1
 613 600 l 2
 613 652 598 677 567 700 c 1
 737 700 l 1
 705 677 691 653 691 600 c 2
 691 0 l 1
 691 -151 627 -188 481 -209 c 5
 558 -161 613 -103 613 0 c 1
 164 555 l 1
 164 100 l 1
 163 47 178 22 210 0 c 1
 40 0 l 1
 72 22 86 48 86 100 c 2
 86 600 l 1
EndSplineSet
EndChar
StartChar: eng
Encoding: 331 331 267
Width: 562
Flags: HW
LayerCount: 2
Fore
SplineSet
160 70 m 2
 160 34 171 15 195 0 c 1
 30 0 l 1
 52 15 65 34 65 70 c 2
 65 415 l 2
 65 450 52 469 30 485 c 1
 107 485 l 1
 132 484 145 490 160 501 c 1
 160 434 l 1
 183 476 251 505 316 505 c 0
 424 505 501 450 501 347 c 2
 501 0 l 2
 501 -150 451 -187 306 -209 c 1
 366 -168 406 -125 406 0 c 2
 406 320 l 2
 406 389 355 429 284 429 c 0
 206 429 160 392 160 314 c 2
 160 70 l 2
EndSplineSet
EndChar
StartChar: OE
Encoding: 338 338 274
Width: 1100
Flags: HW
LayerCount: 2
Fore
SplineSet
628 0 m 1
 657 20 674 47 674 96 c 2
 674 111 l 1
 616 37 539 -15 410 -15 c 0
 195 -15 36 134 36 350 c 0
 36 560 191 715 410 715 c 0
 540 715 615 664 674 591 c 1
 674 606 l 2
 674 652 656 680 628 700 c 1
 1016 700 l 1
 1016 585 l 1
 992 612 961 622 911 621 c 2
 776 618 l 1
 776 418 l 1
 920 418 l 2
 933 418 945 419 956 421 c 1
 956 312 l 1
 938 330 916 338 880 338 c 2
 776 338 l 1
 776 87 l 1
 816 82 862 80 906 80 c 0
 1003 80 1063 95 1115 141 c 1
 1064 0 l 1
 628 0 l 1
669 334 m 0
 668 496 571 633 412 633 c 0
 257 633 151 520 151 366 c 0
 150 202 249 67 408 67 c 0
 562 67 669 179 669 334 c 0
EndSplineSet
Position2: "'cpsp' Capital Spacing lookup 0 subtable" dx=5 dy=0 dh=10 dv=0
EndChar
StartChar: oe
Encoding: 339 339 275
Width: 965
Flags: HW
LayerCount: 2
Fore
SplineSet
563 257 m 1
 557 135 639 61 765 61 c 0
 842 60 897 80 948 111 c 1
 882 7 l 1
 837 -8 801 -15 744 -15 c 0
 628 -14 552 19 508 93 c 1
 467 24 393 -15 287 -15 c 0
 133 -15 27 95 27 245 c 0
 26 396 150 505 302 505 c 0
 401 504 469 463 508 400 c 1
 549 466 615 504 715 505 c 0
 860 505 949 401 946 257 c 1
 563 257 l 1
459 245 m 0
 459 351 395 429 293 429 c 0
 192 429 131 349 131 245 c 0
 131 138 194 61 297 61 c 0
 398 61 459 141 459 245 c 0
832 322 m 1
 827 386 779 429 710 429 c 0
 638 429 585 384 573 322 c 1
 832 322 l 1
EndSplineSet
EndChar
StartChar: Scedilla
Encoding: 350 350 286
Width: 511
Flags: HW
LayerCount: 2
Fore
SplineSet
288 715 m 0
 349 715 400 707 449 693 c 1
 449 576 l 1
 404 612 353 641 278 641 c 0
 201 640 141 609 141 540 c 0
 141 517 151 496 170 478 c 128
 189 460 238 433 317 398 c 0
 398 361 450 329 472 302 c 128
 494 275 506 241 506 200 c 0
 506 65 386 -14 248 -15 c 1
 224 -48 l 1
 225 -50 l 1
 228 -49 230 -49 232 -49 c 128
 234 -49 234 -49 237 -49 c 0
 287 -49 325 -77 326 -127 c 0
 326 -187 265 -225 204 -225 c 0
 159 -223 129 -205 105 -178 c 1
 137 -138 l 1
 153 -159 172 -174 206 -174 c 0
 234 -174 265 -158 265 -132 c 256
 265 -104 236 -94 205 -94 c 0
 202 -94 202 -94 197 -94 c 128
 194 -94 187 -95 177 -96 c 1
 166 -69 l 1
 202 -15 l 1
 140 -12 84 -3 34 15 c 1
 5 147 l 1
 61 97 133 65 231 65 c 0
 314 65 394 95 394 172 c 0
 394 198 386 221 368 240 c 128
 350 259 302 287 225 322 c 0
 142 359 89 392 64 422 c 128
 39 452 26 487 26 528 c 0
 24 661 142 715 288 715 c 0
EndSplineSet
Substitution2: "'locl' Localized Forms in Latin lookup 8 subtable" uni0218
Position2: "'cpsp' Capital Spacing lookup 0 subtable" dx=5 dy=0 dh=10 dv=0
EndChar
StartChar: scedilla
Encoding: 351 351 287
Width: 430
Flags: HW
LayerCount: 2
Fore
SplineSet
239 505 m 0
 290 505 329 499 370 487 c 1
 370 398 l 1
 327 421 288 438 229 438 c 0
 184 438 141 422 141 382 c 0
 141 333 195 324 266 300 c 0
 356 268 420 242 420 152 c 0
 419 45 333 -10 225 -15 c 1
 211 -53 l 1
 214 -52 216 -52 219 -52 c 128
 223 -52 223 -52 228 -52 c 0
 277 -52 312 -75 313 -122 c 0
 312 -171 264 -202 213 -202 c 0
 165 -200 128 -183 98 -160 c 1
 132 -117 l 1
 152 -135 176 -152 207 -152 c 0
 228 -152 247 -139 247 -119 c 0
 247 -97 232 -90 209 -90 c 0
 199 -89 191 -91 184 -93 c 1
 156 -50 l 1
 171 -15 l 1
 119 -12 88 -3 43 14 c 1
 5 119 l 1
 56 86 124 52 196 52 c 0
 258 51 321 70 321 124 c 0
 321 180 270 189 191 220 c 0
 104 254 42 276 42 363 c 0
 42 465 127 504 239 505 c 0
EndSplineSet
Substitution2: "'locl' Localized Forms in Latin lookup 8 subtable" uni0219
EndChar
StartChar: uni0162
Encoding: 354 354 290
Width: 492
Flags: HW
LayerCount: 2
Fore
SplineSet
487 587 m 1
 471 612 449 621 407 621 c 2
 295 620 l 1
 295 100 l 2
 295 47 309 22 341 0 c 1
 270 0 l 1
 245 -41 l 1
 246 -43 l 1
 248 -42 250 -42 253 -42 c 128
 257 -42 257 -42 262 -42 c 0
 311 -42 347 -72 347 -120 c 0
 347 -180 286 -218 225 -218 c 0
 180 -216 150 -198 126 -171 c 1
 158 -131 l 1
 174 -152 193 -167 227 -167 c 0
 256 -167 284 -151 286 -125 c 0
 286 -97 257 -86 226 -87 c 0
 223 -87 223 -87 218 -87 c 128
 215 -87 208 -88 198 -89 c 1
 187 -62 l 1
 224 0 l 1
 147 0 l 1
 179 22 193 48 193 100 c 2
 193 620 l 1
 74 621 l 2
 26 621 -4 604 -30 579 c 1
 10 704 l 1
 32 699 43 700 74 700 c 2
 461 700 l 2
 481 700 503 702 522 704 c 1
 487 587 l 1
EndSplineSet
Substitution2: "'locl' Localized Forms in Latin lookup 8 subtable" uni021A
Position2: "'cpsp' Capital Spacing lookup 0 subtable" dx=5 dy=0 dh=10 dv=0
EndChar
StartChar: uni0163
Encoding: 355 355 291
Width: 308
Flags: HW
LayerCount: 2
Fore
SplineSet
-2 451 m 1
 87 462 133 538 126 640 c 1
 163 640 l 1
 163 485 l 1
 275 485 l 2
 288 485 297 485 308 489 c 1
 308 392 l 1
 297 407 282 415 257 415 c 2
 163 415 l 1
 163 161 l 1
 162 91 197 55 267 55 c 0
 282 55 293 58 306 61 c 1
 248 -12 l 1
 237 -13 227 -15 216 -15 c 256
 208 -15 200 -14 193 -14 c 1
 179 -53 l 1
 182 -52 184 -52 187 -52 c 128
 191 -52 191 -52 196 -52 c 0
 245 -52 280 -75 281 -122 c 0
 281 -171 232 -202 181 -202 c 0
 133 -202 96 -183 66 -160 c 1
 100 -117 l 1
 120 -135 144 -152 175 -152 c 0
 195 -151 215 -139 215 -119 c 0
 215 -97 200 -90 177 -90 c 0
 167 -89 159 -91 152 -93 c 1
 124 -50 l 1
 144 0 l 1
 95 26 68 73 68 144 c 2
 68 415 l 1
 -2 415 l 1
 -2 451 l 1
EndSplineSet
Substitution2: "'locl' Localized Forms in Latin lookup 8 subtable" uni021B
EndChar
StartChar: Uogonek
Encoding: 370 370 306
Width: 730
Flags: HW
LayerCount: 2
Fore
SplineSet
86 600 m 1
 85 652 71 677 40 700 c 1
 234 700 l 1
 202 677 188 653 188 600 c 2
 188 243 l 2
 188 123 241 67 355 67 c 0
 464 67 539 124 539 230 c 2
 539 600 l 1
 538 652 524 677 493 700 c 1
 687 700 l 1
 655 677 641 653 641 600 c 2
 641 100 l 1
 640 47 655 22 687 0 c 1
 641 -2 589 -43 589 -88 c 0
 589 -113 602 -130 628 -130 c 0
 666 -130 696 -109 714 -86 c 1
 739 -118 l 1
 714 -154 679 -183 624 -183 c 0
 570 -183 524 -153 524 -101 c 0
 524 -49 558 -12 601 0 c 1
 542 0 l 1
 542 67 l 1
 493 15 432 -13 339 -15 c 0
 174 -15 86 66 86 230 c 2
 86 600 l 1
EndSplineSet
Position2: "'cpsp' Capital Spacing lookup 0 subtable" dx=5 dy=0 dh=10 dv=0
EndChar
StartChar: uogonek
Encoding: 371 371 307
Width: 554
Flags: HW
LayerCount: 2
Fore
SplineSet
61 415 m 2
 61 450 48 469 26 485 c 1
 103 485 l 1
 128 484 141 490 156 501 c 1
 156 191 l 1
 155 106 195 61 275 61 c 0
 347 60 398 113 398 185 c 2
 398 415 l 2
 398 450 385 469 363 485 c 1
 440 485 l 1
 465 484 478 490 493 501 c 1
 493 70 l 2
 493 34 504 15 528 0 c 1
 490 -10 452 -43 452 -86 c 0
 452 -111 471 -128 496 -128 c 0
 523 -128 548 -105 562 -87 c 1
 586 -116 l 1
 563 -148 527 -174 477 -176 c 0
 425 -176 382 -149 382 -99 c 0
 382 -46 420 -10 466 0 c 1
 402 0 l 1
 402 70 l 1
 371 18 321 -15 242 -15 c 0
 135 -14 61 53 61 162 c 2
 61 415 l 2
EndSplineSet
EndChar
StartChar: longs
Encoding: 383 383 319
Width: 284
Flags: HW
LayerCount: 2
Fore
SplineSet
29 0 m 1
 52 15 64 35 64 70 c 2
 64 543 l 2
 64 658 168 715 287 715 c 0
 314 715 335 712 359 708 c 1
 289 629 l 1
 273 636 256 642 234 642 c 0
 186 642 159 617 159 568 c 0
 159 70 l 0
 158 33 174 14 199 0 c 1
 29 0 l 1
EndSplineSet
EndChar
StartChar: uni0181
Encoding: 385 385 321
Width: 592
Flags: HW
LayerCount: 2
Fore
SplineSet
90 624 m 1
 -8 620 -25 606 -71 571 c 1
 -53 652 -12 698 73 700 c 1
 312 705 l 2
 421 706 513 652 513 548 c 0
 513 473 466 428 407 406 c 1
 504 395 579 324 579 218 c 0
 577 65 456 0 286 0 c 2
 43 0 l 1
 75 22 89 93 89 100 c 2
 90 624 l 1
191 625 m 1
 191 421 l 1
 246 420 l 2
 327 418 398 455 399 532 c 0
 399 635 288 633 191 625 c 1
191 352 m 1
 191 83 l 1
 325 57 463 78 464 211 c 0
 464 348 331 357 191 352 c 1
EndSplineSet
EndChar
StartChar: uni0183
Encoding: 387 387 323
Width: 579
Flags: HW
LayerCount: 2
Fore
SplineSet
63 630 m 2
 63 665 50 684 28 700 c 1
 479 700 l 25
 488 599 l 1
 466 615 444 630 394 630 c 2
 158 630 l 1
 158 73 l 1
 187 66 225 61 258 61 c 0
 375 60 447 130 448 245 c 0
 447 347 388 429 288 429 c 0
 249 429 214 418 186 404 c 1
 232 478 l 2
 246 502 278 505 320 505 c 0
 461 505 552 404 552 261 c 0
 552 81 419 -15 233 -15 c 0
 166 -14 93 -8 31 2 c 1
 52 17 63 36 63 70 c 2
 63 630 l 2
EndSplineSet
EndChar
StartChar: uni0184
Encoding: 388 388 324
Width: 581
Flags: HW
LayerCount: 2
Fore
SplineSet
542 175 m 0
 542 50 455 -9 326 -9 c 0
 195 -9 110 50 110 171 c 2
 110 545 l 2
 110 599 78 611 28 611 c 2
 15 611 l 1
 15 649 l 1
 326 649 l 1
 326 611 l 1
 293 611 l 2
 245 611 211 601 211 550 c 2
 211 359 l 1
 274 359 l 2
 422 359 542 314 542 175 c 0
211 166 m 2
 211 81 239 35 323 35 c 256
 407 35 434 85 434 171 c 0
 434 280 378 316 264 316 c 2
 211 316 l 1
 211 166 l 2
EndSplineSet
EndChar
StartChar: uni0185
Encoding: 389 389 325
Width: 604
Flags: HW
LayerCount: 2
Fore
SplineSet
549 244 m 0
 549 80 479 -9 323 -9 c 256
 167 -9 98 80 98 243 c 2
 98 591 l 2
 98 642 64 652 16 652 c 2
 8 652 l 1
 8 691 l 1
 192 691 l 1
 192 523 l 2
 192 497 190 451 189 426 c 2
 188 405 l 1
 192 405 l 1
 220 459 264 496 345 496 c 0
 492 496 549 401 549 244 c 0
192 244 m 0
 192 118 214 38 329 38 c 0
 431 38 452 125 452 245 c 0
 452 355 429 438 328 438 c 0
 215 438 192 364 192 244 c 0
EndSplineSet
EndChar
StartChar: uni0186
Encoding: 390 390 326
Width: 613
Flags: HW
LayerCount: 2
Fore
SplineSet
556 330 m 0
 556 130 458 -9 259 -9 c 0
 156 -9 45 13 45 103 c 0
 45 151 80 170 129 170 c 1
 129 90 178 39 261 39 c 0
 402 39 445 180 445 327 c 0
 445 485 413 610 272 610 c 0
 194 610 137 561 137 485 c 1
 93 485 55 501 55 542 c 0
 55 631 174 658 274 658 c 0
 464 658 556 529 556 330 c 0
EndSplineSet
EndChar
StartChar: uni0187
Encoding: 391 391 327
Width: 614
Flags: HW
LayerCount: 2
Fore
SplineSet
557 128 m 1
 568 121 576 110 576 93 c 0
 576 14 452 -9 361 -9 c 0
 160 -9 57 123 57 325 c 0
 57 530 171 658 378 658 c 0
 437 658 485 649 524 631 c 1
 524 645 l 2
 524 718 555 780 628 780 c 0
 668 780 704 767 704 730 c 0
 704 717 699 705 689 696 c 1
 673 705 661 711 637 711 c 0
 598 711 580 688 580 645 c 2
 580 556 l 2
 580 514 537 492 493 492 c 1
 493 564 451 610 376 610 c 0
 215 610 168 493 168 325 c 0
 168 169 222 51 376 51 c 0
 466 51 519 81 557 128 c 1
EndSplineSet
EndChar
StartChar: uni0188
Encoding: 392 392 328
Width: 492
Flags: HW
LayerCount: 2
Fore
SplineSet
453 78 m 0
 453 12 358 -9 283 -9 c 0
 130 -9 55 83 55 241 c 0
 55 404 122 496 278 496 c 0
 322 496 368 486 399 472 c 1
 399 556 l 2
 399 633 426 691 503 691 c 0
 543 691 579 678 579 641 c 0
 579 628 574 616 564 607 c 1
 549 616 535 621 512 621 c 0
 473 621 452 600 452 556 c 2
 452 403 l 2
 452 356 414 346 363 346 c 1
 363 407 342 451 278 451 c 0
 172 451 152 357 152 242 c 0
 152 123 189 50 303 50 c 0
 365 50 413 75 436 114 c 1
 447 105 453 93 453 78 c 0
EndSplineSet
EndChar
StartChar: uni018A
Encoding: 394 394 330
Width: 804
Flags: HW
LayerCount: 2
Fore
SplineSet
747 325 m 0
 747 117 631 0 421 0 c 2
 115 0 l 1
 115 38 l 1
 128 38 l 2
 178 38 210 50 210 104 c 2
 210 551 l 2
 210 599 186 612 143 612 c 0
 104 612 86 587 86 552 c 0
 86 530 92 518 102 504 c 1
 92 495 80 490 65 491 c 0
 31 491 10 513 10 546 c 0
 10 631 73 649 162 649 c 2
 421 649 l 2
 627 649 747 531 747 325 c 0
636 325 m 256
 636 495 565 603 399 603 c 2
 311 603 l 1
 311 46 l 1
 398 46 l 2
 564 46 636 155 636 325 c 256
EndSplineSet
EndChar
StartChar: uni018B
Encoding: 395 395 331
Width: 604
Flags: HW
LayerCount: 2
Fore
SplineSet
471 100 m 2
 471 49 505 38 553 38 c 2
 566 38 l 1
 566 0 l 1
 285 0 l 2
 143 0 39 53 39 180 c 0
 39 318 160 359 307 359 c 2
 370 359 l 1
 370 603 l 1
 219 603 l 2
 163 603 142 574 136 529 c 2
 131 490 l 1
 79 490 l 1
 84 649 l 1
 566 649 l 1
 566 611 l 1
 553 611 l 2
 503 611 471 599 471 545 c 2
 471 100 l 2
147 175 m 0
 147 78 198 44 302 44 c 2
 370 44 l 1
 370 316 l 1
 317 316 l 2
 203 316 147 284 147 175 c 0
EndSplineSet
EndChar
StartChar: uni018C
Encoding: 396 396 332
Width: 614
Flags: HW
LayerCount: 2
Fore
SplineSet
412 82 m 1
 384 28 340 -9 259 -9 c 0
 112 -9 55 86 55 243 c 0
 55 401 112 496 259 496 c 0
 337 496 383 464 412 416 c 1
 418 416 l 1
 418 416 418 416 417 428 c 0
 415 454 412 490 412 516 c 2
 412 649 l 1
 230 649 l 2
 177 649 168 631 160 584 c 2
 155 554 l 1
 106 554 l 1
 106 691 l 1
 506 691 l 1
 506 100 l 2
 506 49 540 38 588 38 c 2
 596 38 l 1
 596 0 l 1
 427 0 l 1
 416 82 l 1
 412 82 l 1
152 242 m 0
 152 132 175 49 276 49 c 0
 389 49 412 123 412 243 c 0
 412 359 387 438 275 438 c 0
 175 438 152 350 152 242 c 0
EndSplineSet
EndChar
StartChar: uni0191
Encoding: 401 401 337
Width: 590
Flags: HW
LayerCount: 2
Fore
SplineSet
234 -7 m 2
 234 -156 151 -218 6 -218 c 2
 -11 -218 l 1
 -11 -175 l 1
 -2 -175 l 2
 100 -175 133 -115 133 -8 c 2
 133 549 l 2
 133 600 99 611 51 611 c 2
 38 611 l 1
 38 649 l 1
 542 649 l 1
 547 490 l 1
 495 490 l 1
 490 529 l 2
 484 576 455 603 398 603 c 2
 234 603 l 1
 234 341 l 1
 475 341 l 1
 475 296 l 1
 234 296 l 1
 234 -7 l 2
EndSplineSet
EndChar
StartChar: florin
Encoding: 402 402 338
Width: 380
Flags: HW
LayerCount: 2
Fore
SplineSet
-104 -123 m 1
 -89 -130 -75 -136 -55 -136 c 0
 5 -136 31 -92 40 -37 c 2
 114 415 l 1
 58 415 l 1
 125 484 l 1
 134 543 l 2
 151 653 246 715 376 715 c 0
 399 715 419 714 440 711 c 1
 373 629 l 1
 358 637 342 642 320 642 c 0
 270 641 240 614 233 568 c 2
 220 485 l 1
 346 485 l 2
 353 485 361 487 367 489 c 1
 353 398 l 1
 347 411 335 415 316 415 c 2
 209 415 l 1
 140 -6 l 2
 117 -141 44 -209 -109 -209 c 0
 -137 -209 -151 -207 -174 -204 c 1
 -104 -123 l 1
EndSplineSet
EndChar
StartChar: uni0193
Encoding: 403 403 339
Width: 714
Flags: HW
LayerCount: 2
Fore
SplineSet
622 33 m 1
 557 6 491 -9 401 -9 c 0
 182 -9 57 109 57 325 c 0
 57 538 190 658 407 658 c 0
 473 658 529 649 572 629 c 1
 572 645 l 2
 572 718 603 780 676 780 c 0
 716 780 752 767 752 730 c 0
 752 717 747 705 737 696 c 1
 721 705 709 711 685 711 c 0
 646 711 628 688 628 645 c 2
 628 556 l 2
 628 513 580 492 535 492 c 1
 535 567 483 610 403 610 c 0
 229 610 168 502 168 325 c 0
 168 143 234 43 417 43 c 0
 454 43 492 46 521 54 c 1
 521 200 l 2
 521 251 487 262 439 262 c 2
 435 262 l 1
 435 300 l 1
 695 300 l 1
 695 262 l 1
 691 262 l 2
 645 262 622 248 622 196 c 2
 622 33 l 1
EndSplineSet
EndChar
StartChar: uni0194
Encoding: 404 404 340
Width: 675
Flags: HW
LayerCount: 2
Fore
SplineSet
455 -80 m 0
 455 -165 409 -218 325 -218 c 0
 250 -218 214 -176 214 -98 c 0
 214 -13 258 66 297 131 c 1
 84 562 l 2
 67 594 57 611 13 611 c 2
 0 611 l 1
 0 649 l 1
 275 649 l 1
 275 611 l 1
 252 611 l 2
 212 611 192 596 192 567 c 0
 192 554 195 544 200 533 c 2
 354 216 l 1
 511 527 l 2
 516 537 520 553 520 566 c 0
 520 596 498 611 454 611 c 2
 431 611 l 1
 431 649 l 1
 675 649 l 1
 675 611 l 1
 656 611 l 2
 607 611 598 576 580 540 c 2
 382 158 l 1
 420 76 455 11 455 -80 c 0
272 -100 m 0
 272 -138 283 -169 312 -169 c 0
 351 -169 365 -138 365 -95 c 0
 365 -28 349 16 325 71 c 1
 299 24 272 -38 272 -100 c 0
EndSplineSet
EndChar
StartChar: uni0195
Encoding: 405 405 341
Width: 911
Flags: HW
LayerCount: 2
Fore
SplineSet
813 166 m 2
 813 41 742 -9 613 -9 c 256
 485 -9 413 35 413 159 c 2
 413 313 l 2
 413 389 388 438 313 438 c 0
 233 438 202 374 202 291 c 2
 202 99 l 2
 202 48 235 38 283 38 c 2
 287 38 l 1
 287 0 l 1
 18 0 l 1
 18 38 l 1
 26 38 l 2
 76 38 108 50 108 104 c 2
 108 591 l 2
 108 642 74 652 26 652 c 2
 18 652 l 1
 18 691 l 1
 202 691 l 1
 202 491 l 2
 202 472 200 443 199 426 c 2
 198 413 l 1
 203 413 l 1
 231 468 277 496 341 496 c 0
 455 496 507 436 507 318 c 2
 507 156 l 2
 507 78 532 36 613 36 c 256
 700 36 719 85 719 173 c 2
 719 383 l 2
 719 437 688 449 638 449 c 2
 634 449 l 1
 634 487 l 1
 813 487 l 1
 813 166 l 2
EndSplineSet
EndChar
StartChar: uni0196
Encoding: 406 406 342
Width: 367
Flags: HW
LayerCount: 2
Fore
SplineSet
329 5 m 1
 318 -2 287 -9 267 -9 c 0
 174 -9 133 29 133 121 c 2
 133 545 l 2
 133 599 101 611 51 611 c 2
 38 611 l 1
 38 649 l 1
 329 649 l 1
 329 611 l 1
 316 611 l 2
 266 611 234 599 234 545 c 2
 234 118 l 2
 234 67 255 42 296 42 c 0
 307 42 318 44 329 47 c 1
 329 5 l 1
EndSplineSet
EndChar
StartChar: uni0198
Encoding: 408 408 344
Width: 700
Flags: HW
LayerCount: 2
Fore
SplineSet
234 104 m 2
 234 50 266 38 316 38 c 2
 329 38 l 1
 329 0 l 1
 38 0 l 1
 38 38 l 1
 51 38 l 2
 99 38 133 48 133 99 c 2
 133 549 l 2
 133 600 99 611 51 611 c 2
 38 611 l 1
 38 649 l 1
 329 649 l 1
 329 611 l 1
 316 611 l 2
 266 611 234 599 234 545 c 2
 234 303 l 1
 446 535 l 2
 499 594 535 655 625 655 c 0
 665 655 692 632 692 592 c 0
 692 564 672 534 646 534 c 1
 641 560 626 581 595 581 c 0
 566 581 548 562 531 544 c 2
 381 390 l 1
 600 111 l 2
 627 77 660 38 710 38 c 2
 712 38 l 1
 712 0 l 1
 701 0 l 2
 584 0 540 17 491 82 c 2
 311 318 l 1
 234 257 l 1
 234 104 l 2
EndSplineSet
EndChar
StartChar: uni0199
Encoding: 409 409 345
Width: 585
Flags: HW
LayerCount: 2
Fore
SplineSet
202 99 m 2
 202 48 235 38 283 38 c 2
 287 38 l 1
 287 0 l 1
 18 0 l 1
 18 38 l 1
 26 38 l 2
 76 38 108 50 108 104 c 2
 108 513 l 2
 108 633 158 695 275 695 c 0
 335 695 392 673 392 623 c 0
 392 585 358 571 315 571 c 1
 315 611 304 653 263 653 c 0
 207 653 202 613 202 550 c 2
 202 340 l 2
 202 308 200 267 198 238 c 1
 198 225 l 1
 323 350 l 2
 350 378 378 398 378 431 c 0
 378 450 353 449 329 449 c 1
 329 487 l 1
 550 487 l 1
 550 449 l 1
 489 449 447 403 409 364 c 2
 339 293 l 1
 472 113 l 2
 499 75 527 38 582 38 c 2
 586 38 l 1
 586 0 l 1
 572 0 l 2
 458 0 423 21 376 88 c 2
 276 231 l 1
 202 181 l 1
 202 99 l 2
EndSplineSet
EndChar
StartChar: uni019B
Encoding: 411 411 347
Width: 535
Flags: HW
LayerCount: 2
Fore
SplineSet
146 700 m 0
 216 700 253 667 280 616 c 1
 397 677 l 1
 397 625 l 1
 296 573 l 1
 302 559 306 548 310 532 c 2
 399 214 l 2
 416 151 436 106 460 79 c 128
 484 52 506 38 527 38 c 2
 532 38 l 1
 532 0 l 1
 509 0 l 2
 371 0 356 129 328 242 c 128
 317 289 304 337 300 376 c 1
 296 376 l 1
 287 330 259 271 238 234 c 2
 111 0 l 1
 8 0 l 1
 273 467 l 1
 264 497 258 523 247 549 c 1
 124 485 l 1
 124 536 l 1
 228 591 l 1
 209 622 187 640 145 640 c 0
 109 640 79 622 63 603 c 1
 52 610 46 623 46 641 c 0
 46 684 95 700 146 700 c 0
EndSplineSet
EndChar
StartChar: uni019C
Encoding: 412 412 348
Width: 1054
Flags: HW
LayerCount: 2
Fore
SplineSet
482 91 m 1
 448 31 396 -9 302 -9 c 0
 180 -9 110 53 110 178 c 2
 110 549 l 2
 110 600 76 611 28 611 c 2
 15 611 l 1
 15 649 l 1
 306 649 l 1
 306 611 l 1
 293 611 l 2
 243 611 211 599 211 545 c 2
 211 172 l 2
 211 94 246 55 316 55 c 0
 419 55 465 104 465 209 c 2
 465 549 l 2
 465 600 431 611 383 611 c 2
 370 611 l 1
 370 649 l 1
 661 649 l 1
 661 611 l 1
 648 611 l 2
 598 611 566 599 566 545 c 2
 566 183 l 2
 566 107 599 55 670 55 c 0
 770 55 820 129 820 226 c 2
 820 545 l 2
 820 599 788 611 738 611 c 2
 725 611 l 1
 725 649 l 1
 1016 649 l 1
 1016 611 l 1
 1003 611 l 2
 953 611 921 599 921 545 c 2
 921 104 l 2
 921 50 953 38 1003 38 c 2
 1016 38 l 1
 1016 0 l 1
 841 0 l 1
 826 90 l 1
 822 90 l 1
 789 32 739 -9 649 -9 c 0
 570 -9 514 24 482 91 c 1
EndSplineSet
EndChar
StartChar: uni019D
Encoding: 413 413 349
Width: 763
Flags: HW
LayerCount: 2
Fore
SplineSet
194 -7 m 2
 194 -137 166 -218 42 -218 c 2
 19 -218 l 1
 19 -175 l 1
 33 -175 l 2
 119 -175 133 -101 133 -8 c 2
 133 549 l 2
 133 600 99 611 51 611 c 2
 38 611 l 1
 38 649 l 1
 221 649 l 1
 579 146 l 1
 579 549 l 2
 579 600 545 611 497 611 c 2
 484 611 l 1
 484 649 l 1
 735 649 l 1
 735 611 l 1
 722 611 l 2
 672 611 640 599 640 545 c 2
 640 0 l 1
 569 0 l 1
 194 523 l 1
 194 -7 l 2
EndSplineSet
EndChar
StartChar: uni019E
Encoding: 414 414 350
Width: 645
Flags: HW
LayerCount: 2
Fore
SplineSet
537 -114 m 2
 537 -168 563 -180 613 -180 c 2
 617 -180 l 1
 617 -218 l 1
 363 -218 l 1
 363 -180 l 1
 367 -180 l 2
 417 -180 443 -168 443 -114 c 2
 443 313 l 2
 443 393 414 438 333 438 c 0
 247 438 212 376 212 291 c 2
 212 99 l 2
 212 48 245 38 293 38 c 2
 297 38 l 1
 297 0 l 1
 28 0 l 1
 28 38 l 1
 36 38 l 2
 86 38 118 50 118 104 c 2
 118 387 l 2
 118 438 85 449 37 449 c 2
 33 449 l 1
 33 487 l 1
 195 487 l 1
 208 413 l 1
 213 413 l 1
 248 471 288 496 369 496 c 0
 482 496 537 436 537 318 c 2
 537 -114 l 2
EndSplineSet
EndChar
StartChar: ohorn
Encoding: 417 417 353
Width: 607
Flags: HW
LayerCount: 2
Fore
SplineSet
522 244 m 0
 522 80 447 -9 287 -9 c 0
 133 -9 55 84 55 244 c 0
 55 408 130 496 290 496 c 0
 382 496 445 463 482 405 c 1
 516 414 544 428 544 462 c 0
 544 494 501 486 501 525 c 0
 501 555 526 571 558 571 c 256
 595 571 619 550 619 513 c 0
 619 436 567 401 498 376 c 1
 514 339 522 295 522 244 c 0
152 244 m 256
 152 124 178 38 289 38 c 256
 400 38 425 125 425 244 c 0
 425 364 399 448 288 448 c 256
 177 448 152 364 152 244 c 256
EndSplineSet
EndChar
StartChar: uni01A2
Encoding: 418 418 354
Width: 1102
Flags: HW
LayerCount: 2
Fore
SplineSet
989 -118 m 2
 989 -169 1023 -180 1071 -180 c 2
 1084 -180 l 1
 1084 -218 l 1
 793 -218 l 1
 793 -180 l 1
 806 -180 l 2
 856 -180 888 -168 888 -114 c 2
 888 477 l 2
 888 558 853 594 772 594 c 0
 683 594 648 542 647 447 c 2
 646 281 l 1
 646 83 547 -9 353 -9 c 0
 154 -9 56 127 56 326 c 256
 56 534 163 659 372 659 c 0
 490 659 562 618 615 547 c 1
 646 607 701 658 790 658 c 0
 916 658 989 599 989 471 c 2
 989 -118 l 2
167 325 m 0
 167 170 208 40 353 40 c 0
 502 40 544 130 544 285 c 2
 544 418 l 2
 544 535 484 610 372 610 c 0
 212 610 167 491 167 325 c 0
EndSplineSet
EndChar
StartChar: uni01A3
Encoding: 419 419 355
Width: 849
Flags: HW
LayerCount: 2
Fore
SplineSet
751 -114 m 2
 751 -168 777 -180 827 -180 c 2
 831 -180 l 1
 831 -218 l 1
 657 -218 l 1
 657 336 l 2
 657 398 639 438 584 438 c 0
 516 438 504 371 504 303 c 2
 504 244 l 2
 504 75 429 -9 280 -9 c 0
 129 -9 55 86 55 244 c 0
 55 405 125 496 282 496 c 0
 372 496 435 463 470 398 c 1
 475 398 l 1
 500 458 537 496 618 496 c 0
 707 496 751 436 751 343 c 2
 751 -114 l 2
152 244 m 256
 152 127 174 38 281 38 c 256
 388 38 410 128 410 244 c 0
 410 361 388 448 281 448 c 256
 174 448 152 361 152 244 c 256
EndSplineSet
EndChar
StartChar: uni01A4
Encoding: 420 420 356
Width: 681
Flags: HW
LayerCount: 2
Fore
SplineSet
311 99 m 2
 311 48 345 38 393 38 c 2
 426 38 l 1
 426 0 l 1
 115 0 l 1
 115 38 l 1
 128 38 l 2
 178 38 210 50 210 104 c 2
 210 551 l 2
 210 599 186 612 143 612 c 0
 104 612 86 587 86 552 c 0
 86 530 92 518 102 504 c 1
 92 495 80 490 65 491 c 0
 31 491 10 513 10 546 c 0
 10 631 73 649 162 649 c 2
 396 649 l 2
 543 649 642 594 642 459 c 0
 642 314 529 253 374 253 c 2
 311 253 l 1
 311 99 l 2
534 455 m 0
 534 561 488 605 379 605 c 2
 311 605 l 1
 311 295 l 1
 364 295 l 2
 483 295 534 338 534 455 c 0
EndSplineSet
EndChar
StartChar: uni01A5
Encoding: 421 421 357
Width: 614
Flags: HW
LayerCount: 2
Fore
SplineSet
202 -119 m 2
 202 -170 236 -180 284 -180 c 2
 287 -180 l 1
 287 -218 l 1
 18 -218 l 1
 18 -180 l 1
 26 -180 l 2
 76 -180 108 -168 108 -114 c 2
 108 513 l 2
 108 633 158 695 275 695 c 0
 335 695 392 673 392 623 c 0
 392 585 358 571 315 571 c 1
 315 611 304 653 263 653 c 0
 207 653 202 616 202 552 c 2
 202 487 l 2
 202 460 201 430 198 405 c 1
 202 405 l 1
 230 459 274 496 355 496 c 0
 502 496 559 401 559 244 c 0
 559 86 502 -9 355 -9 c 0
 277 -9 231 23 202 71 c 1
 198 71 l 1
 198 71 198 71 198 58 c 0
 200 33 202 -5 202 -32 c 2
 202 -119 l 2
202 244 m 0
 202 128 227 49 339 49 c 0
 439 49 462 137 462 245 c 0
 462 355 439 438 338 438 c 0
 225 438 202 364 202 244 c 0
EndSplineSet
EndChar
StartChar: uni01A6
Encoding: 422 422 358
Width: 656
Flags: HW
LayerCount: 2
Fore
SplineSet
564 364 m 0
 564 267 491 222 417 199 c 1
 554 2 l 2
 581 -35 605 -71 658 -71 c 2
 662 -71 l 1
 662 -109 l 1
 648 -109 l 2
 534 -109 497 -95 452 -27 c 2
 317 177 l 1
 234 177 l 1
 234 99 l 2
 234 48 268 38 316 38 c 2
 329 38 l 1
 329 0 l 1
 38 0 l 1
 38 38 l 1
 51 38 l 2
 99 38 133 48 133 99 c 2
 133 549 l 2
 133 600 99 611 51 611 c 2
 38 611 l 1
 38 649 l 1
 329 649 l 1
 329 611 l 1
 316 611 l 2
 268 611 234 601 234 550 c 2
 234 540 l 1
 307 540 l 2
 478 540 564 481 564 364 c 0
457 362 m 0
 457 465 409 496 302 496 c 2
 234 496 l 1
 234 220 l 1
 304 220 l 2
 413 220 457 259 457 362 c 0
EndSplineSet
EndChar
StartChar: uni01A7
Encoding: 423 423 359
Width: 544
Flags: HW
LayerCount: 2
Fore
SplineSet
484 128 m 1
 495 121 503 110 503 93 c 0
 503 14 375 -9 285 -9 c 0
 140 -9 51 42 51 174 c 0
 51 326 226 346 329 403 c 128
 369 425 392 452 392 509 c 0
 392 574 348 612 276 612 c 0
 199 612 158 565 158 492 c 1
 114 492 79 509 79 552 c 0
 79 631 188 658 276 658 c 0
 396 658 485 607 485 493 c 0
 485 326 318 316 208 250 c 128
 170 227 146 204 146 150 c 0
 146 71 207 47 289 47 c 0
 379 47 445 82 484 128 c 1
EndSplineSet
EndChar
StartChar: uni01A8
Encoding: 424 424 360
Width: 451
Flags: HW
LayerCount: 2
Fore
SplineSet
410 78 m 0
 410 10 310 -9 232 -9 c 0
 122 -9 44 33 44 134 c 0
 44 267 211 276 290 328 c 128
 309 340 318 358 318 381 c 0
 318 431 282 453 228 453 c 0
 165 453 137 419 137 357 c 1
 96 357 65 371 65 409 c 0
 65 476 150 495 236 495 c 0
 323 495 399 453 399 367 c 0
 399 243 256 226 173 183 c 128
 144 168 125 155 125 117 c 0
 125 61 180 45 240 45 c 0
 308 45 369 73 393 114 c 1
 404 105 410 93 410 78 c 0
EndSplineSet
EndChar
StartChar: uni01AA
Encoding: 426 426 362
Width: 300
Flags: HW
LayerCount: 2
Fore
SplineSet
342 -204 m 1
 323 -211 280 -218 253 -218 c 0
 150 -218 108 -180 108 -77 c 2
 108 484 l 1
 91 477 72 474 50 474 c 0
 -18 474 -64 517 -64 584 c 0
 -64 657 -4 695 69 695 c 256
 148 695 202 652 202 569 c 2
 202 -80 l 2
 202 -135 227 -170 278 -170 c 0
 302 -170 320 -167 342 -164 c 1
 342 -204 l 1
-10 584 m 0
 -10 548 13 526 49 526 c 0
 86 526 108 543 108 584 c 0
 108 622 85 643 49 643 c 0
 12 643 -10 620 -10 584 c 0
EndSplineSet
EndChar
StartChar: uni01AC
Encoding: 428 428 364
Width: 628
Flags: HW
LayerCount: 2
Fore
SplineSet
371 104 m 2
 371 50 403 38 453 38 c 2
 476 38 l 1
 476 0 l 1
 165 0 l 1
 165 38 l 1
 188 38 l 2
 236 38 270 48 270 99 c 2
 270 603 l 1
 158 603 l 2
 115 603 91 580 91 542 c 0
 91 520 97 509 107 495 c 1
 97 486 85 481 70 482 c 0
 36 482 10 509 10 542 c 0
 10 626 79 649 167 649 c 2
 603 649 l 1
 608 490 l 1
 556 490 l 1
 551 529 l 2
 545 574 524 603 468 603 c 2
 371 603 l 1
 371 104 l 2
EndSplineSet
EndChar
StartChar: uni01AD
Encoding: 429 429 365
Width: 352
Flags: HW
LayerCount: 2
Fore
SplineSet
329 5 m 1
 310 -2 267 -9 240 -9 c 0
 137 -9 95 29 95 132 c 2
 95 435 l 1
 19 435 l 1
 19 472 l 1
 90 472 127 526 139 585 c 0
 151 645 177 691 240 691 c 0
 280 691 316 678 316 641 c 0
 316 628 311 616 301 607 c 1
 285 616 273 621 249 621 c 0
 210 621 189 600 189 556 c 2
 189 487 l 1
 320 487 l 1
 320 435 l 1
 189 435 l 1
 189 129 l 2
 189 74 213 39 265 39 c 0
 289 39 307 42 329 45 c 1
 329 5 l 1
EndSplineSet
EndChar
StartChar: uni01AE
Encoding: 430 430 366
Width: 613
Flags: HW
LayerCount: 2
Fore
SplineSet
479 -204 m 1
 465 -211 430 -218 408 -218 c 0
 304 -218 255 -182 255 -79 c 2
 255 603 l 1
 159 603 l 2
 104 603 83 574 77 529 c 2
 72 490 l 1
 20 490 l 1
 25 649 l 1
 588 649 l 1
 593 490 l 1
 541 490 l 1
 536 529 l 2
 530 574 509 603 453 603 c 2
 356 603 l 1
 356 -81 l 2
 356 -138 380 -167 436 -167 c 0
 451 -167 465 -165 479 -162 c 1
 479 -204 l 1
EndSplineSet
EndChar
StartChar: uni01B2
Encoding: 434 434 370
Width: 685
Flags: HW
LayerCount: 2
Fore
SplineSet
534 659 m 256
 622 659 653 576 653 481 c 0
 653 277 535 99 404 22 c 128
 369 1 333 -9 296 -9 c 0
 171 -9 110 45 110 167 c 2
 110 549 l 2
 110 600 76 611 28 611 c 2
 15 611 l 1
 15 649 l 1
 306 649 l 1
 306 611 l 1
 293 611 l 2
 243 611 211 599 211 545 c 2
 211 150 l 2
 211 83 239 45 302 45 c 0
 413 45 485 160 526 238 c 128
 559 300 586 378 586 465 c 0
 586 553 548 587 459 587 c 1
 459 630 491 659 534 659 c 256
EndSplineSet
EndChar
StartChar: uni01B3
Encoding: 435 435 371
Width: 661
Flags: HW
LayerCount: 2
Fore
SplineSet
365 104 m 2
 365 50 397 38 447 38 c 2
 470 38 l 1
 470 0 l 1
 159 0 l 1
 159 38 l 1
 182 38 l 2
 230 38 264 48 264 99 c 2
 264 271 l 1
 79 562 l 2
 60 591 49 611 8 611 c 2
 -5 611 l 1
 -5 649 l 1
 270 649 l 1
 270 611 l 1
 233 611 l 2
 205 611 189 604 189 581 c 0
 189 563 200 545 207 533 c 2
 281 412 l 2
 300 380 318 342 331 308 c 1
 345 338 374 385 391 415 c 2
 432 490 l 2
 470 560 496 654 597 654 c 0
 636 654 666 639 666 606 c 0
 666 583 652 567 633 561 c 1
 627 576 613 587 593 587 c 0
 536 587 514 523 489 481 c 2
 365 271 l 1
 365 104 l 2
EndSplineSet
EndChar
StartChar: uni01B4
Encoding: 436 436 372
Width: 615
Flags: HW
LayerCount: 2
Fore
SplineSet
551 496 m 0
 592 496 620 479 620 442 c 0
 620 425 614 412 603 405 c 1
 590 426 573 436 550 436 c 256
 498 436 487 383 470 339 c 2
 334 -4 l 2
 295 -102 264 -187 157 -209 c 128
 128 -215 91 -218 47 -218 c 2
 38 -218 l 1
 38 -175 l 1
 174 -175 229 -98 263 4 c 1
 78 401 l 2
 64 432 52 449 10 449 c 2
 4 449 l 1
 4 487 l 1
 244 487 l 1
 244 449 l 1
 235 449 l 2
 199 449 181 434 181 405 c 0
 181 390 189 371 195 357 c 2
 261 210 l 2
 276 175 303 115 311 78 c 1
 323 113 338 158 350 188 c 2
 409 343 l 2
 437 417 464 496 551 496 c 0
EndSplineSet
EndChar
StartChar: uni01B6
Encoding: 438 438 374
Width: 511
Flags: HW
LayerCount: 2
Fore
SplineSet
176 435 m 2
 120 435 110 405 98 358 c 1
 56 358 l 1
 66 487 l 1
 449 487 l 1
 449 450 l 1
 318 271 l 1
 423 271 l 1
 423 228 l 1
 287 228 l 1
 158 52 l 1
 340 52 l 2
 386 52 399 89 408 126 c 2
 413 147 l 1
 455 147 l 1
 450 0 l 1
 42 0 l 1
 42 36 l 1
 181 228 l 1
 76 228 l 1
 76 271 l 1
 212 271 l 1
 332 435 l 1
 176 435 l 2
EndSplineSet
EndChar
StartChar: uni01B8
Encoding: 440 440 376
Width: 603
Flags: HW
LayerCount: 2
Fore
SplineSet
546 128 m 1
 557 121 565 110 565 93 c 0
 565 15 425 -9 335 -9 c 0
 192 -9 61 42 61 185 c 0
 61 324 190 370 338 372 c 1
 92 611 l 1
 92 649 l 1
 510 649 l 1
 515 511 l 1
 473 511 l 1
 466 568 453 575 389 575 c 2
 199 575 l 1
 422 357 l 1
 422 320 l 1
 349 320 l 2
 251 320 172 282 172 192 c 0
 172 85 241 51 345 51 c 0
 434 51 507 82 546 128 c 1
EndSplineSet
EndChar
StartChar: uni01B9
Encoding: 441 441 377
Width: 547
Flags: HW
LayerCount: 2
Fore
SplineSet
495 -127 m 0
 495 -194 382 -218 296 -218 c 0
 163 -218 55 -145 55 -9 c 0
 55 136 154 199 297 206 c 1
 81 442 l 1
 81 487 l 1
 469 487 l 1
 475 344 l 1
 426 344 l 1
 424 357 l 2
 417 399 407 414 359 414 c 2
 178 414 l 1
 375 195 l 1
 375 158 l 1
 352 158 l 2
 219 158 152 105 152 0 c 0
 152 -108 207 -161 311 -161 c 0
 379 -161 452 -135 478 -92 c 1
 489 -101 495 -112 495 -127 c 0
EndSplineSet
EndChar
StartChar: uni01BA
Encoding: 442 442 378
Width: 489
Flags: HW
LayerCount: 2
Fore
SplineSet
399 -127 m 0
 399 -195 294 -218 207 -218 c 0
 120 -218 21 -196 21 -109 c 0
 21 63 337 -69 337 114 c 0
 337 179 288 222 220 222 c 2
 162 222 l 1
 162 259 l 1
 319 414 l 1
 157 414 l 2
 109 414 99 399 92 357 c 2
 90 344 l 1
 41 344 l 1
 47 487 l 1
 415 487 l 1
 415 442 l 1
 239 270 l 1
 344 266 434 215 434 114 c 0
 434 -4 325 -33 208 -44 c 0
 153 -49 116 -59 116 -108 c 0
 116 -154 166 -173 215 -173 c 0
 294 -173 350 -143 382 -92 c 1
 393 -101 399 -112 399 -127 c 0
EndSplineSet
EndChar
StartChar: uni01BB
Encoding: 443 443 379
Width: 555
Flags: HW
LayerCount: 2
Fore
SplineSet
445 524 m 0
 445 465 422 419 396 378 c 1
 490 378 l 1
 490 335 l 1
 367 335 l 1
 344 305 320 276 293 247 c 2
 129 73 l 1
 360 73 l 2
 414 73 436 96 444 137 c 2
 448 157 l 1
 490 157 l 1
 485 0 l 1
 50 0 l 1
 50 66 l 1
 211 246 l 2
 238 275 261 303 282 335 c 1
 80 335 l 1
 80 378 l 1
 308 378 l 1
 331 419 344 459 344 515 c 0
 344 590 313 642 248 642 c 0
 170 642 148 594 148 510 c 1
 101 510 62 522 62 569 c 0
 62 656 149 691 248 691 c 0
 365 691 445 637 445 524 c 0
EndSplineSet
EndChar
StartChar: uni01BC
Encoding: 444 444 380
Width: 558
Flags: HW
LayerCount: 2
Fore
SplineSet
504 195 m 0
 504 52 398 -9 247 -9 c 0
 143 -9 32 27 32 119 c 0
 32 159 65 184 107 184 c 1
 112 93 159 40 255 40 c 0
 351 40 393 95 393 195 c 0
 393 290 347 353 255 353 c 2
 124 353 l 1
 124 545 l 2
 124 599 94 611 44 611 c 2
 39 611 l 1
 39 649 l 1
 471 649 l 1
 476 490 l 1
 424 490 l 1
 419 529 l 2
 413 574 392 603 336 603 c 2
 225 603 l 1
 225 403 l 1
 268 403 l 2
 409 403 504 337 504 195 c 0
EndSplineSet
EndChar
StartChar: uni01BD
Encoding: 445 445 381
Width: 480
Flags: HW
LayerCount: 2
Fore
SplineSet
426 155 m 0
 426 41 334 -9 217 -9 c 0
 133 -9 32 17 32 96 c 0
 32 137 62 159 101 159 c 1
 101 79 140 39 219 39 c 0
 290 39 329 78 329 149 c 256
 329 220 290 262 219 262 c 2
 101 262 l 1
 101 395 l 2
 101 435 81 449 36 449 c 1
 36 487 l 1
 402 487 l 1
 408 365 l 1
 359 365 l 1
 357 379 l 2
 350 421 340 435 292 435 c 2
 195 435 l 1
 195 310 l 1
 226 310 l 2
 340 310 426 266 426 155 c 0
EndSplineSet
EndChar
StartChar: uni01BE
Encoding: 446 446 382
Width: 430
Flags: HW
LayerCount: 2
Fore
SplineSet
386 134 m 0
 386 34 304 -9 203 -9 c 0
 108 -9 24 20 24 100 c 0
 24 136 48 157 87 157 c 1
 87 82 124 39 202 39 c 0
 259 39 305 63 305 117 c 0
 305 191 207 202 162 238 c 128
 132 263 123 297 123 353 c 2
 123 435 l 1
 47 435 l 1
 47 472 l 1
 126 472 157 530 171 599 c 1
 217 599 l 1
 217 487 l 1
 348 487 l 1
 348 435 l 1
 217 435 l 1
 217 367 l 2
 217 302 227 291 276 271 c 0
 337 245 386 211 386 134 c 0
EndSplineSet
EndChar
StartChar: uni01BF
Encoding: 447 447 383
Width: 614
Flags: HW
LayerCount: 2
Fore
SplineSet
202 -119 m 2
 202 -170 235 -180 283 -180 c 2
 297 -180 l 1
 297 -218 l 1
 18 -218 l 1
 18 -180 l 1
 26 -180 l 2
 76 -180 108 -168 108 -114 c 2
 108 387 l 2
 108 438 74 449 26 449 c 2
 13 449 l 1
 13 487 l 1
 188 487 l 1
 198 405 l 1
 202 405 l 1
 230 459 274 496 355 496 c 0
 484 496 559 422 559 294 c 0
 559 102 390 -3 202 -14 c 1
 202 -119 l 2
338 438 m 0
 225 438 202 364 202 244 c 2
 202 35 l 1
 344 45 462 145 462 296 c 0
 462 380 423 438 338 438 c 0
EndSplineSet
EndChar
StartChar: uni01C0
Encoding: 448 448 384
Width: 423
Flags: HW
LayerCount: 2
Fore
SplineSet
175 0 m 1
 175 691 l 1
 248 691 l 1
 248 0 l 1
 175 0 l 1
EndSplineSet
EndChar
StartChar: uni01C1
Encoding: 449 449 385
Width: 587
Flags: HW
LayerCount: 2
Fore
SplineSet
338 0 m 1
 338 691 l 1
 412 691 l 1
 412 0 l 1
 338 0 l 1
175 0 m 1
 175 691 l 1
 248 691 l 1
 248 0 l 1
 175 0 l 1
EndSplineSet
EndChar
StartChar: uni01C2
Encoding: 450 450 386
Width: 551
Flags: HW
LayerCount: 2
Fore
SplineSet
239 0 m 1
 239 234 l 1
 50 234 l 1
 50 301 l 1
 239 301 l 1
 239 388 l 1
 50 388 l 1
 50 454 l 1
 239 454 l 1
 239 691 l 1
 312 691 l 1
 312 454 l 1
 501 454 l 1
 501 388 l 1
 312 388 l 1
 312 301 l 1
 501 301 l 1
 501 234 l 1
 312 234 l 1
 312 0 l 1
 239 0 l 1
EndSplineSet
EndChar
StartChar: uni01E4
Encoding: 484 484 420
Width: 714
Flags: HW
LayerCount: 2
Fore
SplineSet
622 33 m 1
 557 6 491 -9 401 -9 c 0
 182 -9 57 109 57 325 c 0
 57 538 190 658 407 658 c 0
 510 658 628 638 628 556 c 0
 628 513 580 492 535 492 c 1
 535 567 483 610 403 610 c 0
 229 610 168 502 168 325 c 0
 168 143 234 43 417 43 c 0
 454 43 492 46 521 54 c 1
 521 138 l 1
 391 138 l 1
 391 183 l 1
 521 183 l 1
 521 200 l 2
 521 251 487 262 439 262 c 2
 435 262 l 1
 435 300 l 1
 695 300 l 1
 695 262 l 1
 691 262 l 2
 645 262 622 248 622 196 c 2
 622 183 l 1
 699 183 l 1
 699 138 l 1
 622 138 l 1
 622 33 l 1
EndSplineSet
EndChar
StartChar: uni01E5
Encoding: 485 485 421
Width: 538
Flags: HW
LayerCount: 2
Fore
SplineSet
488 -98 m 1
 460 -186 359 -218 231 -218 c 0
 117 -218 23 -186 23 -85 c 0
 23 -12 85 21 148 31 c 1
 121 42 93 67 93 105 c 0
 93 151 123 172 158 191 c 1
 107 210 68 261 68 328 c 0
 68 440 139 496 256 496 c 0
 298 496 349 484 370 466 c 1
 390 487 425 515 467 515 c 0
 501 515 526 498 526 468 c 256
 526 438 506 421 473 421 c 1
 473 440 462 452 440 452 c 0
 424 452 410 448 397 441 c 1
 421 415 436 382 436 331 c 0
 436 230 364 174 256 174 c 0
 240 174 216 175 204 178 c 1
 182 168 156 152 156 122 c 0
 156 90 185 87 218 87 c 2
 331 87 l 2
 436 87 493 43 496 -51 c 1
 496 -55 l 1
 552 -55 l 1
 552 -98 l 1
 488 -98 l 1
162 331 m 0
 162 259 184 218 253 218 c 0
 323 218 342 259 342 332 c 0
 342 407 323 452 252 452 c 0
 182 452 162 405 162 331 c 0
104 -80 m 0
 104 -152 156 -174 233 -174 c 0
 325 -174 390 -158 409 -98 c 1
 246 -98 l 1
 246 -55 l 1
 413 -55 l 1
 410 -3 369 6 312 6 c 2
 214 6 l 2
 150 6 104 -14 104 -80 c 0
EndSplineSet
EndChar
StartChar: uni01F7
Encoding: 503 503 439
Width: 694
Flags: HW
LayerCount: 2
Fore
SplineSet
214 -114 m 2
 214 -168 246 -180 296 -180 c 2
 309 -180 l 1
 309 -218 l 1
 18 -218 l 1
 18 -180 l 1
 31 -180 l 2
 81 -180 113 -168 113 -114 c 2
 113 545 l 2
 113 599 81 611 31 611 c 2
 18 611 l 1
 18 649 l 1
 193 649 l 1
 208 559 l 1
 212 559 l 1
 254 618 318 658 417 658 c 0
 567 658 652 578 652 432 c 0
 652 236 508 112 373 45 c 128
 321 19 268 1 214 -9 c 1
 214 -114 l 2
388 594 m 0
 282 594 214 523 214 422 c 2
 214 38 l 1
 388 82 541 217 541 434 c 0
 541 540 491 594 388 594 c 0
EndSplineSet
EndChar
StartChar: Aringacute
Encoding: 506 506 442
Width: 705
Flags: HW
LayerCount: 2
Fore
SplineSet
505 863 m 1
 467 825 401 779 349 754 c 1
 311 754 l 1
 311 763 l 1
 338 789 377 839 398 870 c 1
 505 870 l 1
 505 863 l 1
473 638 m 0
 473 590 445 563 410 549 c 1
 621 82 l 2
 635 51 650 38 692 38 c 2
 705 38 l 1
 705 0 l 1
 430 0 l 1
 430 38 l 1
 453 38 l 2
 493 38 513 51 513 78 c 0
 513 91 509 97 505 108 c 2
 465 197 l 1
 202 197 l 1
 164 114 l 2
 160 104 155 91 155 79 c 0
 155 52 177 38 221 38 c 2
 244 38 l 1
 244 0 l 1
 0 0 l 1
 0 38 l 1
 19 38 l 2
 68 38 76 62 95 103 c 2
 300 547 l 1
 262 560 233 589 233 638 c 0
 233 703 288 737 353 737 c 256
 418 737 473 703 473 638 c 0
287 638 m 256
 287 600 316 583 353 583 c 256
 390 583 419 600 419 638 c 256
 419 676 390 692 353 692 c 256
 316 692 287 676 287 638 c 256
224 243 m 1
 444 243 l 1
 385 386 l 2
 367 429 347 471 335 516 c 1
 322 469 309 440 289 393 c 2
 224 243 l 1
EndSplineSet
EndChar
StartChar: aringacute
Encoding: 507 507 443
Width: 563
Flags: HW
LayerCount: 2
Fore
SplineSet
427 863 m 1
 389 825 323 779 271 754 c 1
 233 754 l 1
 233 763 l 1
 260 789 299 839 320 870 c 1
 427 870 l 1
 427 863 l 1
400 629 m 256
 400 564 345 530 280 530 c 256
 215 530 160 564 160 629 c 256
 160 694 215 728 280 728 c 256
 345 728 400 694 400 629 c 256
214 629 m 256
 214 591 243 574 280 574 c 256
 317 574 346 591 346 629 c 256
 346 667 317 683 280 683 c 256
 243 683 214 667 214 629 c 256
361 78 m 1
 322 32 289 -9 205 -9 c 0
 112 -9 50 41 50 136 c 0
 50 251 153 278 278 282 c 1
 361 284 l 1
 361 339 l 2
 361 412 343 451 268 451 c 0
 200 451 177 418 177 352 c 1
 128 352 92 363 92 409 c 256
 92 483 193 496 272 496 c 0
 391 496 455 457 455 339 c 2
 455 104 l 2
 455 55 470 38 517 38 c 2
 520 38 l 1
 520 0 l 1
 385 0 l 1
 369 78 l 1
 361 78 l 1
228 47 m 0
 308 47 361 95 361 174 c 2
 361 247 l 1
 297 244 l 2
 203 240 147 218 147 132 c 0
 147 75 174 47 228 47 c 0
EndSplineSet
EndChar
StartChar: uni021C
Encoding: 540 540 476
Width: 605
Flags: HW
LayerCount: 2
Fore
SplineSet
370 338 m 1
 466 322 545 273 545 158 c 0
 545 21 433 -44 320 -84 c 128
 250 -109 168 -129 75 -145 c 1
 75 -95 l 1
 216 -67 337 -31 399 54 c 128
 422 86 434 122 434 159 c 0
 434 256 383 293 309 315 c 1
 268 302 225 293 182 283 c 1
 170 324 l 1
 288 353 425 370 425 500 c 0
 425 578 374 612 291 612 c 0
 196 612 151 567 151 477 c 1
 105 477 65 490 65 536 c 0
 65 628 182 658 291 658 c 0
 412 658 530 623 530 506 c 0
 530 405 448 362 370 338 c 1
EndSplineSet
EndChar
StartChar: uni021D
Encoding: 541 541 477
Width: 494
Flags: HW
LayerCount: 2
Fore
SplineSet
314 213 m 1
 387 188 449 145 449 57 c 0
 449 -141 221 -187 50 -218 c 1
 50 -173 l 1
 187 -146 352 -97 352 57 c 0
 352 130 312 166 260 188 c 1
 147 156 l 1
 135 198 l 1
 237 222 329 248 329 349 c 0
 329 416 298 452 230 452 c 0
 159 452 124 414 124 337 c 1
 79 337 50 348 50 389 c 0
 50 465 140 496 231 496 c 0
 339 496 426 456 426 354 c 0
 426 274 370 237 314 213 c 1
EndSplineSet
EndChar
StartChar: uni0220
Encoding: 544 544 480
Width: 780
Flags: HW
LayerCount: 2
Fore
SplineSet
670 -118 m 2
 670 -169 704 -180 752 -180 c 2
 765 -180 l 1
 765 -218 l 1
 474 -218 l 1
 474 -180 l 1
 487 -180 l 2
 537 -180 569 -168 569 -114 c 2
 569 458 l 2
 569 555 518 594 424 594 c 256
 310 594 234 530 234 422 c 2
 234 104 l 2
 234 50 266 38 316 38 c 2
 329 38 l 1
 329 0 l 1
 38 0 l 1
 38 38 l 1
 51 38 l 2
 101 38 133 50 133 104 c 2
 133 545 l 2
 133 599 101 611 51 611 c 2
 38 611 l 1
 38 649 l 1
 213 649 l 1
 228 545 l 1
 232 545 l 1
 276 609 344 658 448 658 c 0
 588 658 670 594 670 452 c 2
 670 -118 l 2
EndSplineSet
EndChar
StartChar: uni0221
Encoding: 545 545 481
Width: 723
Flags: HW
LayerCount: 2
Fore
SplineSet
479 10 m 1
 470 -13 461 -43 458 -68 c 1
 403 -61 l 1
 410 -29 421 15 435 44 c 1
 426 56 420 69 418 82 c 1
 413 82 l 1
 384 28 341 -9 259 -9 c 0
 112 -9 55 86 55 243 c 0
 55 401 112 496 259 496 c 0
 337 496 383 464 412 416 c 1
 418 416 l 1
 418 416 418 416 417 428 c 0
 415 454 412 490 412 516 c 2
 412 591 l 2
 412 642 378 652 330 652 c 2
 322 652 l 1
 322 691 l 1
 506 691 l 1
 506 130 l 1
 534 149 568 163 614 163 c 0
 678 163 727 141 727 82 c 0
 727 17 664 -9 586 -9 c 0
 544 -9 507 -3 479 10 c 1
152 242 m 0
 152 132 175 49 276 49 c 0
 389 49 412 123 412 243 c 0
 412 359 387 438 275 438 c 0
 175 438 152 350 152 242 c 0
516 73 m 1
 529 52 558 43 589 43 c 0
 622 43 659 51 659 78 c 256
 659 103 634 112 606 112 c 0
 569 112 539 99 516 73 c 1
EndSplineSet
EndChar
StartChar: uni0222
Encoding: 546 546 482
Width: 653
Flags: HW
LayerCount: 2
Fore
SplineSet
597 202 m 0
 597 55 480 -9 326 -9 c 0
 172 -9 56 51 56 203 c 0
 56 309 128 365 217 390 c 1
 154 411 91 456 91 531 c 0
 91 614 138 658 217 658 c 1
 204 635 194 584 194 548 c 0
 194 464 239 412 326 412 c 0
 408 412 459 465 459 547 c 0
 459 597 453 629 437 658 c 1
 518 658 562 610 562 532 c 0
 562 459 493 411 431 390 c 1
 519 366 597 308 597 202 c 0
164 202 m 256
 164 99 221 40 326 40 c 0
 427 40 489 98 489 202 c 0
 489 309 439 363 327 363 c 0
 216 363 164 309 164 202 c 256
EndSplineSet
EndChar
StartChar: uni0223
Encoding: 547 547 483
Width: 577
Flags: HW
LayerCount: 2
Fore
SplineSet
522 212 m 0
 522 62 438 -9 287 -9 c 0
 142 -9 55 65 55 212 c 0
 55 323 108 385 193 410 c 1
 131 430 80 479 80 553 c 0
 80 637 127 681 206 695 c 1
 189 662 177 618 177 564 c 0
 177 479 202 430 289 430 c 0
 377 430 400 478 400 564 c 0
 400 618 388 662 371 695 c 1
 449 681 497 638 497 553 c 0
 497 478 444 429 385 409 c 1
 466 382 522 320 522 212 c 0
152 214 m 256
 152 106 184 38 289 38 c 256
 395 38 425 105 425 214 c 0
 425 322 393 386 288 386 c 256
 183 386 152 322 152 214 c 256
EndSplineSet
EndChar
StartChar: uni0224
Encoding: 548 548 484
Width: 592
Flags: HW
LayerCount: 2
Fore
SplineSet
424 45 m 2
 508 45 564 24 564 -55 c 0
 564 -111 518 -146 465 -155 c 1
 475 -134 482 -104 482 -80 c 0
 482 -18 457 0 397 0 c 2
 36 0 l 1
 36 36 l 1
 411 603 l 1
 194 603 l 2
 139 603 118 574 112 529 c 2
 107 490 l 1
 55 490 l 1
 60 649 l 1
 534 649 l 1
 534 611 l 1
 158 45 l 1
 424 45 l 2
EndSplineSet
EndChar
StartChar: uni0225
Encoding: 549 549 485
Width: 511
Flags: HW
LayerCount: 2
Fore
SplineSet
176 435 m 2
 120 435 110 405 98 358 c 1
 56 358 l 1
 66 487 l 1
 449 487 l 1
 449 450 l 1
 158 52 l 1
 324 52 l 2
 417 52 464 16 464 -55 c 0
 464 -111 422 -140 369 -149 c 1
 379 -127 385 -104 385 -80 c 0
 385 -18 361 0 300 0 c 2
 42 0 l 1
 42 36 l 1
 332 435 l 1
 176 435 l 2
EndSplineSet
EndChar
StartChar: uni0234
Encoding: 564 564 500
Width: 392
Flags: HW
LayerCount: 2
Fore
SplineSet
241 -9 m 0
 174 -9 131 21 115 77 c 1
 98 48 84 13 74 -28 c 1
 22 -15 l 1
 41 56 70 110 108 147 c 1
 108 591 l 2
 108 642 74 652 26 652 c 2
 18 652 l 1
 18 691 l 1
 202 691 l 1
 202 200 l 1
 216 203 230 205 245 205 c 0
 319 205 374 169 374 103 c 0
 374 30 314 -9 241 -9 c 0
202 153 m 1
 202 88 201 43 261 43 c 0
 299 43 320 66 320 103 c 0
 320 142 289 160 244 160 c 0
 230 160 216 158 202 153 c 1
EndSplineSet
EndChar
StartChar: uni0235
Encoding: 565 565 501
Width: 727
Flags: HW
LayerCount: 2
Fore
SplineSet
576 -9 m 0
 509 -9 467 21 450 77 c 1
 433 48 419 13 409 -28 c 1
 357 -15 l 1
 376 56 405 110 443 147 c 1
 443 313 l 2
 443 393 414 438 333 438 c 0
 247 438 212 376 212 291 c 2
 212 99 l 2
 212 48 245 38 293 38 c 2
 297 38 l 1
 297 0 l 1
 28 0 l 1
 28 38 l 1
 36 38 l 2
 86 38 118 50 118 104 c 2
 118 387 l 2
 118 438 85 449 37 449 c 2
 33 449 l 1
 33 487 l 1
 195 487 l 1
 208 413 l 1
 213 413 l 1
 248 471 288 496 369 496 c 0
 482 496 537 436 537 318 c 2
 537 200 l 1
 550 204 568 205 584 205 c 0
 658 205 709 169 709 103 c 0
 709 29 650 -9 576 -9 c 0
537 123 m 1
 538 73 553 45 600 45 c 0
 635 45 655 68 655 103 c 0
 655 142 627 160 582 160 c 0
 566 160 551 158 537 153 c 1
 537 123 l 1
EndSplineSet
EndChar
StartChar: uni0236
Encoding: 566 566 502
Width: 379
Flags: HW
LayerCount: 2
Fore
SplineSet
105 77 m 1
 87 47 70 12 61 -28 c 1
 9 -15 l 1
 26 51 58 107 98 147 c 1
 96 167 95 187 95 206 c 2
 95 435 l 1
 19 435 l 1
 19 472 l 1
 99 472 128 529 143 599 c 1
 189 599 l 1
 189 487 l 1
 320 487 l 1
 320 435 l 1
 189 435 l 1
 189 200 l 1
 203 203 217 205 232 205 c 0
 306 205 361 169 361 103 c 0
 361 29 302 -9 228 -9 c 0
 160 -9 121 20 105 77 c 1
189 153 m 1
 189 88 187 43 248 43 c 0
 285 43 307 67 307 103 c 0
 307 142 276 160 231 160 c 0
 217 160 203 158 189 153 c 1
EndSplineSet
EndChar
StartChar: uni0237
Encoding: 567 567 503
Width: 300
Flags: HW
LayerCount: 2
Fore
SplineSet
202 -7 m 2
 202 -149 141 -218 4 -218 c 2
 -12 -218 l 1
 -12 -175 l 1
 -5 -175 l 2
 88 -175 108 -107 108 -8 c 2
 108 387 l 2
 108 438 75 449 27 449 c 2
 23 449 l 1
 23 487 l 1
 202 487 l 1
 202 -7 l 2
EndSplineSet
EndChar
StartChar: uni0238
Encoding: 568 568 504
Width: 918
Flags: HW
LayerCount: 2
Fore
SplineSet
461 88 m 1
 431 29 369 -9 281 -9 c 0
 125 -9 55 81 55 244 c 128
 55 401 112 496 259 496 c 0
 340 496 384 459 412 405 c 1
 416 405 l 1
 415 426 l 2
 414 451 412 497 412 523 c 2
 412 591 l 2
 412 642 378 652 330 652 c 2
 322 652 l 1
 322 691 l 1
 506 691 l 1
 506 523 l 2
 506 497 504 451 503 426 c 2
 503 426 503 426 502 405 c 1
 506 405 l 1
 534 459 578 496 659 496 c 0
 806 496 863 401 863 244 c 0
 863 80 793 -9 637 -9 c 0
 547 -9 498 32 461 88 c 1
152 245 m 0
 152 124 173 38 275 38 c 0
 390 38 412 118 412 244 c 0
 412 363 389 438 276 438 c 0
 175 438 152 356 152 245 c 0
506 244 m 0
 506 118 528 38 643 38 c 0
 745 38 766 125 766 245 c 0
 766 355 743 438 642 438 c 0
 529 438 506 364 506 244 c 0
EndSplineSet
EndChar
StartChar: uni0239
Encoding: 569 569 505
Width: 918
Flags: HW
LayerCount: 2
Fore
SplineSet
506 -119 m 2
 506 -169 543 -180 592 -180 c 2
 596 -180 l 1
 596 -218 l 1
 322 -218 l 1
 322 -180 l 1
 330 -180 l 2
 380 -180 412 -168 412 -114 c 2
 412 -33 l 2
 412 -8 414 34 415 58 c 2
 416 76 l 1
 412 76 l 1
 384 22 340 -9 259 -9 c 0
 112 -9 55 86 55 243 c 0
 55 399 129 496 280 496 c 0
 370 496 424 452 459 393 c 1
 486 453 547 496 637 496 c 0
 789 496 863 400 863 244 c 0
 863 86 806 -9 659 -9 c 0
 582 -9 535 29 506 76 c 1
 502 76 l 1
 502 76 502 76 502 62 c 0
 504 36 506 -5 506 -32 c 2
 506 -119 l 2
152 246 m 0
 152 135 175 49 276 49 c 0
 389 49 412 128 412 247 c 0
 412 363 387 449 275 449 c 0
 175 449 152 355 152 246 c 0
506 247 m 0
 506 129 538 49 643 49 c 256
 742 49 766 140 766 248 c 0
 766 358 743 449 642 449 c 0
 530 449 506 365 506 247 c 0
EndSplineSet
EndChar
StartChar: uni023A
Encoding: 570 570 506
Width: 705
Flags: HW
LayerCount: 2
Fore
SplineSet
0 0 m 1
 0 38 l 1
 19 38 l 2
 69 38 76 64 95 109 c 2
 317 649 l 1
 395 649 l 1
 431 561 l 1
 481 691 l 1
 536 691 l 1
 459 490 l 1
 621 86 l 2
 634 52 649 38 692 38 c 2
 705 38 l 1
 705 0 l 1
 430 0 l 1
 430 38 l 1
 453 38 l 2
 493 38 513 53 513 82 c 0
 513 95 509 104 505 115 c 2
 465 217 l 1
 354 217 l 1
 243 -73 l 1
 185 -73 l 1
 213 0 l 1
 0 0 l 1
221 263 m 1
 315 263 l 1
 381 432 l 1
 363 476 347 519 335 565 c 1
 324 512 309 481 289 430 c 2
 221 263 l 1
447 263 m 1
 409 360 l 1
 372 263 l 1
 447 263 l 1
221 38 m 2
 228 38 l 1
 297 217 l 1
 202 217 l 1
 164 122 l 2
 158 107 155 94 155 83 c 0
 155 53 177 38 221 38 c 2
EndSplineSet
EndChar
StartChar: uni023B
Encoding: 571 571 507
Width: 614
Flags: HW
LayerCount: 2
Fore
SplineSet
557 128 m 1
 568 121 576 110 576 93 c 0
 576 14 452 -9 361 -9 c 0
 329 -9 299 -5 271 2 c 1
 252 -53 l 1
 199 -53 l 1
 223 17 l 1
 117 65 57 173 57 325 c 0
 57 530 171 658 378 658 c 0
 401 658 422 657 442 654 c 1
 454 691 l 1
 507 691 l 1
 491 644 l 1
 537 631 580 606 580 556 c 256
 580 514 537 492 493 492 c 1
 493 524 483 553 467 572 c 1
 293 65 l 1
 317 55 345 50 376 51 c 0
 466 51 519 81 557 128 c 1
376 610 m 0
 215 610 168 492 168 325 c 0
 168 222 193 139 249 92 c 1
 424 602 l 1
 410 607 394 609 376 610 c 0
EndSplineSet
EndChar
StartChar: uni023C
Encoding: 572 572 508
Width: 492
Flags: HW
LayerCount: 2
Fore
SplineSet
453 78 m 0
 453 12 358 -9 283 -9 c 0
 268 -9 254 -8 241 -6 c 1
 196 -188 l 1
 145 -188 l 1
 193 5 l 1
 103 35 55 115 55 241 c 0
 55 404 122 496 278 496 c 0
 291 496 303 495 315 494 c 1
 354 649 l 1
 405 649 l 1
 364 485 l 1
 404 473 452 450 452 403 c 256
 452 356 414 346 363 346 c 1
 363 375 359 399 347 417 c 1
 257 55 l 1
 270 52 286 50 303 50 c 0
 365 50 413 75 436 114 c 1
 447 105 453 93 453 78 c 0
278 451 m 0
 172 451 152 358 152 242 c 0
 152 165 167 105 211 75 c 1
 304 448 l 1
 296 450 287 451 278 451 c 0
EndSplineSet
EndChar
StartChar: uni023D
Encoding: 573 573 509
Width: 623
Flags: HW
LayerCount: 2
Fore
SplineSet
316 611 m 2
 268 611 234 600 234 549 c 2
 234 362 l 1
 371 362 l 1
 371 317 l 1
 234 317 l 1
 234 45 l 1
 431 45 l 2
 486 45 512 80 519 127 c 2
 529 195 l 1
 581 195 l 1
 574 0 l 1
 38 0 l 1
 38 38 l 1
 51 38 l 2
 101 38 133 50 133 104 c 2
 133 317 l 1
 38 317 l 1
 38 362 l 1
 133 362 l 1
 133 545 l 2
 133 599 101 611 51 611 c 2
 38 611 l 1
 38 649 l 1
 329 649 l 1
 329 611 l 1
 316 611 l 2
EndSplineSet
EndChar
StartChar: uni023E
Encoding: 574 574 510
Width: 613
Flags: HW
LayerCount: 2
Fore
SplineSet
356 104 m 2
 356 50 388 38 438 38 c 2
 461 38 l 1
 461 0 l 1
 150 0 l 1
 150 36 l 1
 94 -53 l 1
 36 -53 l 1
 255 294 l 1
 255 603 l 1
 159 603 l 2
 104 603 83 574 77 529 c 2
 72 490 l 1
 20 490 l 1
 25 649 l 1
 479 649 l 1
 505 691 l 1
 562 691 l 1
 536 649 l 1
 588 649 l 1
 593 490 l 1
 541 490 l 1
 536 529 l 2
 533 559 522 580 500 592 c 1
 356 363 l 1
 356 104 l 2
356 603 m 1
 356 454 l 1
 450 603 l 1
 356 603 l 1
173 38 m 2
 221 38 255 48 255 99 c 2
 255 203 l 1
 151 38 l 1
 173 38 l 2
EndSplineSet
EndChar
StartChar: uni023F
Encoding: 575 575 511
Width: 451
Flags: HW
LayerCount: 2
Fore
SplineSet
450 -143 m 0
 450 -197 402 -216 344 -216 c 0
 270 -216 241 -175 227 -114 c 0
 216 -50 184 -18 127 1 c 0
 85 15 45 37 45 87 c 0
 45 127 70 150 108 150 c 1
 108 79 140 35 216 35 c 0
 277 35 326 61 326 117 c 0
 326 180 257 195 203 216 c 0
 129 245 52 271 52 367 c 0
 52 459 141 495 240 495 c 0
 311 495 386 471 386 412 c 0
 386 375 354 357 314 357 c 1
 314 416 287 453 228 453 c 0
 171 453 133 431 133 381 c 0
 133 320 196 307 257 284 c 0
 332 256 407 230 407 134 c 0
 407 39 328 -4 232 -8 c 1
 276 -32 277 -92 300 -136 c 128
 308 -151 321 -159 339 -159 c 0
 377 -159 384 -129 384 -87 c 1
 428 -89 450 -108 450 -143 c 0
EndSplineSet
EndChar
StartChar: uni0240
Encoding: 576 576 512
Width: 503
Flags: HW
LayerCount: 2
Fore
SplineSet
503 -138 m 0
 503 -191 452 -218 395 -218 c 0
 302 -218 266 -167 231 -94 c 0
 201 -33 169 0 80 0 c 2
 42 0 l 1
 42 36 l 1
 327 435 l 1
 171 435 l 2
 114 435 105 405 93 358 c 1
 51 358 l 1
 61 487 l 1
 444 487 l 1
 444 450 l 1
 153 45 l 1
 229 37 261 -8 293 -73 c 0
 315 -117 337 -159 385 -159 c 0
 428 -159 440 -132 441 -87 c 1
 477 -88 503 -102 503 -138 c 0
EndSplineSet
EndChar
StartChar: uni0241
Encoding: 577 577 513
Width: 494
Flags: HW
LayerCount: 2
Fore
SplineSet
275 104 m 2
 275 50 307 38 357 38 c 2
 370 38 l 1
 370 0 l 1
 79 0 l 1
 79 38 l 1
 92 38 l 2
 142 38 174 50 174 104 c 2
 174 298 l 1
 261 334 349 371 349 485 c 0
 349 561 311 612 233 612 c 0
 153 612 115 568 115 492 c 1
 71 492 36 509 36 552 c 0
 36 631 145 658 233 658 c 0
 354 658 442 596 442 481 c 0
 442 354 370 297 275 251 c 1
 275 104 l 2
EndSplineSet
EndChar
StartChar: uni0242
Encoding: 578 578 514
Width: 416
Flags: HW
LayerCount: 2
Fore
SplineSet
235 99 m 2
 235 48 269 38 317 38 c 2
 325 38 l 1
 325 0 l 1
 51 0 l 1
 51 38 l 1
 64 38 l 2
 114 38 141 48 141 99 c 2
 141 197 l 1
 229 254 l 2
 275 284 299 309 299 370 c 0
 299 424 253 448 196 448 c 0
 118 448 84 405 84 330 c 1
 45 330 18 351 18 387 c 0
 18 468 106 496 197 496 c 0
 298 496 380 453 380 353 c 0
 380 270 337 225 281 190 c 2
 235 161 l 1
 235 99 l 2
EndSplineSet
EndChar
StartChar: uni0243
Encoding: 579 579 515
Width: 654
Flags: HW
LayerCount: 2
Fore
SplineSet
439 340 m 1
 526 326 593 274 593 175 c 0
 593 58 507 0 336 0 c 2
 38 0 l 1
 38 38 l 1
 51 38 l 2
 101 38 133 50 133 104 c 2
 133 164 l 1
 20 164 l 1
 20 208 l 1
 133 208 l 1
 133 549 l 2
 133 600 99 611 51 611 c 2
 38 611 l 1
 38 649 l 1
 306 649 l 2
 451 649 563 617 563 486 c 0
 563 401 505 363 439 343 c 1
 439 340 l 1
456 486 m 0
 456 582 404 603 301 603 c 2
 234 603 l 1
 234 363 l 1
 303 363 l 2
 409 363 456 389 456 486 c 0
486 178 m 0
 486 281 442 317 333 317 c 2
 234 317 l 1
 234 208 l 1
 357 208 l 1
 357 164 l 1
 234 164 l 1
 234 45 l 1
 331 45 l 2
 438 45 486 75 486 178 c 0
EndSplineSet
EndChar
StartChar: uni0244
Encoding: 580 580 516
Width: 717
Flags: HW
LayerCount: 2
Fore
SplineSet
362 -9 m 0
 209 -9 110 44 110 196 c 2
 110 317 l 1
 10 317 l 1
 10 362 l 1
 110 362 l 1
 110 549 l 2
 110 600 76 611 28 611 c 2
 15 611 l 1
 15 649 l 1
 306 649 l 1
 306 611 l 1
 293 611 l 2
 243 611 211 599 211 545 c 2
 211 362 l 1
 546 362 l 1
 546 549 l 2
 546 600 512 611 464 611 c 2
 451 611 l 1
 451 649 l 1
 702 649 l 1
 702 611 l 1
 689 611 l 2
 639 611 607 599 607 545 c 2
 607 362 l 1
 707 362 l 1
 707 317 l 1
 607 317 l 1
 607 185 l 2
 607 51 505 -9 362 -9 c 0
378 45 m 0
 480 45 546 93 546 187 c 2
 546 317 l 1
 211 317 l 1
 211 191 l 2
 211 88 278 45 378 45 c 0
EndSplineSet
EndChar
StartChar: uni0246
Encoding: 582 582 518
Width: 623
Flags: HW
LayerCount: 2
Fore
SplineSet
133 545 m 2
 133 599 101 611 51 611 c 2
 38 611 l 1
 38 649 l 1
 440 649 l 1
 454 691 l 1
 507 691 l 1
 493 649 l 1
 542 649 l 1
 547 490 l 1
 495 490 l 1
 490 529 l 2
 487 550 481 566 469 579 c 1
 394 362 l 1
 475 362 l 1
 475 317 l 1
 379 317 l 1
 286 45 l 1
 427 45 l 2
 484 45 514 74 522 120 c 2
 529 159 l 1
 581 159 l 1
 574 0 l 1
 270 0 l 1
 252 -53 l 1
 199 -53 l 1
 217 0 l 1
 38 0 l 1
 38 38 l 1
 51 38 l 2
 99 38 133 48 133 99 c 2
 133 545 l 2
234 362 m 1
 341 362 l 1
 423 601 l 1
 417 602 410 603 402 603 c 2
 234 603 l 1
 234 362 l 1
234 317 m 1
 234 49 l 1
 326 317 l 1
 234 317 l 1
EndSplineSet
EndChar
StartChar: uni0247
Encoding: 583 583 519
Width: 535
Flags: HW
LayerCount: 2
Fore
SplineSet
463 81 m 0
 463 17 361 -9 287 -9 c 0
 268 -9 249 -8 232 -5 c 1
 186 -188 l 1
 135 -188 l 1
 184 10 l 1
 102 43 55 125 55 240 c 0
 55 398 125 496 277 496 c 0
 286 496 296 496 305 495 c 1
 343 649 l 1
 394 649 l 1
 353 486 l 1
 438 460 485 390 485 279 c 2
 485 237 l 1
 292 237 l 1
 247 55 l 1
 262 50 280 48 301 48 c 0
 366 48 418 76 444 112 c 1
 454 108 463 96 463 81 c 0
154 286 m 1
 253 286 l 1
 293 446 l 1
 287 447 281 447 275 447 c 0
 190 447 160 374 154 286 c 1
384 286 m 1
 384 348 372 400 339 427 c 1
 304 286 l 1
 384 286 l 1
152 237 m 1
 154 163 171 111 202 82 c 1
 241 237 l 1
 152 237 l 1
EndSplineSet
EndChar
StartChar: uni0248
Encoding: 584 584 520
Width: 357
Flags: HW
LayerCount: 2
Fore
SplineSet
234 -7 m 2
 234 -156 151 -218 6 -218 c 2
 -11 -218 l 1
 -11 -175 l 1
 -2 -175 l 2
 100 -175 133 -115 133 -8 c 2
 133 317 l 1
 20 317 l 1
 20 362 l 1
 133 362 l 1
 133 549 l 2
 133 600 99 611 51 611 c 2
 38 611 l 1
 38 649 l 1
 329 649 l 1
 329 611 l 1
 316 611 l 2
 266 611 234 599 234 545 c 2
 234 362 l 1
 347 362 l 1
 347 317 l 1
 234 317 l 1
 234 -7 l 2
EndSplineSet
EndChar
StartChar: uni0249
Encoding: 585 585 521
Width: 300
Flags: HW
LayerCount: 2
Fore
SplineSet
208 634 m 0
 208 596 186 578 151 578 c 0
 115 578 94 596 94 634 c 0
 94 673 115 691 151 691 c 0
 186 691 208 672 208 634 c 0
202 -7 m 2
 202 -149 141 -218 4 -218 c 2
 -12 -218 l 1
 -12 -175 l 1
 -5 -175 l 2
 88 -175 108 -107 108 -8 c 2
 108 237 l 1
 10 237 l 1
 10 280 l 1
 108 280 l 1
 108 387 l 2
 108 438 74 449 26 449 c 2
 23 449 l 1
 23 487 l 1
 202 487 l 1
 202 280 l 1
 290 280 l 1
 290 237 l 1
 202 237 l 1
 202 -7 l 2
EndSplineSet
EndChar
StartChar: uni024A
Encoding: 586 586 522
Width: 808
Flags: HW
LayerCount: 2
Fore
SplineSet
798 -204 m 1
 784 -211 749 -218 727 -218 c 0
 623 -218 574 -182 574 -79 c 2
 574 0 l 1
 577 38 577 75 580 113 c 1
 576 113 l 1
 533 41 471 -9 354 -9 c 0
 155 -9 56 126 56 326 c 256
 56 528 156 659 358 659 c 0
 464 659 540 611 576 545 c 1
 580 545 l 1
 595 649 l 1
 770 649 l 1
 770 611 l 1
 757 611 l 2
 707 611 675 599 675 545 c 2
 675 -81 l 2
 675 -139 698 -167 755 -167 c 0
 770 -167 784 -165 798 -162 c 1
 798 -204 l 1
167 325 m 0
 167 160 213 55 371 55 c 0
 530 55 574 159 574 325 c 256
 574 490 530 595 372 595 c 0
 212 595 167 492 167 325 c 0
EndSplineSet
EndChar
StartChar: uni024B
Encoding: 587 587 523
Width: 614
Flags: HW
LayerCount: 2
Fore
SplineSet
646 -204 m 1
 627 -211 584 -218 557 -218 c 0
 454 -218 412 -180 412 -77 c 2
 412 -36 l 2
 412 -10 414 36 415 61 c 2
 416 82 l 1
 412 82 l 1
 384 28 340 -9 259 -9 c 0
 112 -9 55 86 55 243 c 0
 55 401 112 496 259 496 c 0
 337 496 383 464 412 416 c 1
 418 416 l 1
 436 487 l 1
 596 487 l 1
 596 449 l 1
 588 449 l 2
 538 449 506 437 506 383 c 2
 506 -80 l 2
 506 -135 531 -170 582 -170 c 0
 606 -170 624 -167 646 -164 c 1
 646 -204 l 1
152 242 m 0
 152 132 175 49 276 49 c 0
 389 49 412 123 412 243 c 0
 412 359 387 438 275 438 c 0
 175 438 152 350 152 242 c 0
EndSplineSet
EndChar
StartChar: uni024C
Encoding: 588 588 524
Width: 656
Flags: HW
LayerCount: 2
Fore
SplineSet
234 99 m 2
 234 48 268 38 316 38 c 2
 329 38 l 1
 329 0 l 1
 38 0 l 1
 38 38 l 1
 51 38 l 2
 99 38 133 48 133 99 c 2
 133 286 l 1
 20 286 l 1
 20 329 l 1
 133 329 l 1
 133 549 l 2
 133 600 99 611 51 611 c 2
 38 611 l 1
 38 649 l 1
 307 649 l 2
 478 649 564 590 564 473 c 0
 564 376 491 331 417 308 c 1
 554 111 l 2
 580 74 607 38 659 38 c 2
 662 38 l 1
 662 0 l 1
 648 0 l 2
 534 0 497 14 452 82 c 2
 317 286 l 1
 234 286 l 1
 234 99 l 2
457 471 m 0
 457 574 409 605 302 605 c 2
 234 605 l 1
 234 329 l 1
 304 329 l 2
 413 329 457 368 457 471 c 0
EndSplineSet
EndChar
StartChar: uni024D
Encoding: 589 589 525
Width: 471
Flags: HW
LayerCount: 2
Fore
SplineSet
212 99 m 2
 212 48 246 38 294 38 c 2
 322 38 l 1
 322 0 l 1
 33 0 l 1
 33 38 l 1
 36 38 l 2
 86 38 118 50 118 104 c 2
 118 237 l 1
 10 237 l 1
 10 280 l 1
 118 280 l 1
 118 387 l 2
 118 438 84 449 36 449 c 2
 33 449 l 1
 33 487 l 1
 187 487 l 1
 206 397 l 1
 211 397 l 1
 238 453 264 496 348 496 c 0
 407 496 456 482 456 430 c 0
 456 383 417 365 363 365 c 1
 363 410 352 436 310 436 c 0
 242 436 220 343 214 280 c 1
 347 280 l 1
 347 237 l 1
 212 237 l 1
 212 99 l 2
EndSplineSet
EndChar
StartChar: uni024E
Encoding: 590 590 526
Width: 625
Flags: HW
LayerCount: 2
Fore
SplineSet
365 104 m 2
 365 50 397 38 447 38 c 2
 470 38 l 1
 470 0 l 1
 159 0 l 1
 159 38 l 1
 182 38 l 2
 230 38 264 48 264 99 c 2
 264 271 l 1
 137 472 l 1
 5 472 l 1
 5 516 l 1
 108 516 l 1
 79 562 l 2
 60 591 49 611 8 611 c 2
 -5 611 l 1
 -5 649 l 1
 270 649 l 1
 270 611 l 1
 233 611 l 2
 205 611 189 604 189 581 c 0
 189 563 200 545 207 533 c 2
 217 516 l 1
 455 516 l 1
 465 531 473 550 473 571 c 0
 473 598 453 611 413 611 c 2
 384 611 l 1
 384 649 l 1
 628 649 l 1
 628 611 l 1
 616 611 l 2
 574 611 556 577 533 540 c 2
 518 516 l 1
 620 516 l 1
 620 472 l 1
 490 472 l 1
 365 271 l 1
 365 104 l 2
281 412 m 2
 300 380 318 342 331 308 c 1
 346 339 372 380 391 412 c 2
 428 472 l 1
 245 472 l 1
 281 412 l 2
EndSplineSet
EndChar
StartChar: uni024F
Encoding: 591 591 527
Width: 565
Flags: HW
LayerCount: 2
Fore
SplineSet
38 -218 m 1
 38 -175 l 1
 174 -175 229 -98 263 4 c 1
 137 273 l 1
 0 273 l 1
 0 316 l 1
 117 316 l 1
 78 401 l 1
 61 434 51 449 7 449 c 2
 4 449 l 1
 4 487 l 1
 244 487 l 1
 244 449 l 1
 241 449 l 2
 201 449 181 434 181 405 c 0
 181 395 184 384 189 372 c 2
 214 316 l 1
 398 316 l 1
 417 365 l 2
 423 380 426 393 426 404 c 0
 426 434 404 449 360 449 c 2
 357 449 l 1
 357 487 l 1
 565 487 l 1
 565 449 l 1
 562 449 l 2
 512 449 504 424 486 378 c 2
 461 316 l 1
 565 316 l 1
 565 273 l 1
 444 273 l 1
 334 -4 l 2
 295 -102 264 -187 157 -209 c 128
 128 -215 91 -218 47 -218 c 2
 38 -218 l 1
262 210 m 2
 280 173 301 121 310 78 c 1
 320 113 338 155 350 188 c 2
 382 273 l 1
 233 273 l 1
 262 210 l 2
EndSplineSet
EndChar
StartChar: uni0251
Encoding: 593 593 529
Width: 614
Flags: HW
LayerCount: 2
Fore
SplineSet
412 82 m 1
 384 28 340 -9 259 -9 c 0
 115 -9 55 81 55 234 c 0
 55 401 112 496 268 496 c 0
 339 496 384 461 412 416 c 1
 418 416 l 1
 437 487 l 1
 506 487 l 1
 506 100 l 2
 506 58 520 39 558 39 c 0
 571 39 584 40 596 42 c 1
 596 2 l 1
 577 -5 553 -9 526 -9 c 0
 458 -9 421 20 416 82 c 1
 412 82 l 1
152 242 m 0
 152 132 175 49 276 49 c 0
 389 49 412 123 412 243 c 0
 412 359 387 438 275 438 c 0
 175 438 152 350 152 242 c 0
EndSplineSet
EndChar
StartChar: uni0252
Encoding: 594 594 530
Width: 614
Flags: HW
LayerCount: 2
Fore
SplineSet
559 253 m 0
 559 86 502 -9 346 -9 c 0
 275 -9 230 26 202 71 c 1
 196 71 l 1
 177 0 l 1
 108 0 l 1
 108 387 l 2
 108 429 94 448 56 448 c 0
 43 448 30 447 18 445 c 1
 18 485 l 1
 37 492 61 496 88 496 c 0
 156 496 193 467 198 405 c 1
 202 405 l 1
 230 459 274 496 355 496 c 0
 499 496 559 406 559 253 c 0
202 244 m 0
 202 128 227 49 339 49 c 0
 439 49 462 137 462 245 c 0
 462 355 439 438 338 438 c 0
 225 438 202 364 202 244 c 0
EndSplineSet
EndChar
StartChar: uni0253
Encoding: 595 595 531
Width: 614
Flags: HW
LayerCount: 2
Fore
SplineSet
559 244 m 0
 559 86 502 -9 355 -9 c 0
 277 -9 231 23 202 71 c 1
 196 71 l 1
 178 0 l 1
 18 0 l 1
 18 38 l 1
 26 38 l 2
 76 38 108 50 108 104 c 2
 108 514 l 2
 108 634 158 695 275 695 c 0
 335 695 392 673 392 623 c 0
 392 585 358 571 315 571 c 1
 315 611 304 653 263 653 c 0
 207 653 202 616 202 552 c 2
 202 523 l 2
 202 497 200 451 199 426 c 2
 198 405 l 1
 202 405 l 1
 230 459 274 496 355 496 c 0
 502 496 559 401 559 244 c 0
202 244 m 0
 202 128 227 49 339 49 c 0
 439 49 462 137 462 245 c 0
 462 355 439 438 338 438 c 0
 225 438 202 364 202 244 c 0
EndSplineSet
EndChar
StartChar: uni0254
Encoding: 596 596 532
Width: 492
Flags: HW
LayerCount: 2
Fore
SplineSet
437 241 m 0
 437 86 365 -9 216 -9 c 0
 128 -9 35 9 35 89 c 0
 35 130 77 151 124 151 c 1
 124 70 138 36 215 36 c 0
 310 36 340 136 340 242 c 0
 340 358 320 451 214 451 c 0
 150 451 129 407 129 346 c 1
 79 346 40 357 40 403 c 0
 40 474 140 496 214 496 c 0
 370 496 437 404 437 241 c 0
EndSplineSet
EndChar
StartChar: uni0255
Encoding: 597 597 533
Width: 517
Flags: HW
LayerCount: 2
Fore
SplineSet
161 22 m 1
 153 4 145 -16 137 -35 c 1
 87 -16 l 1
 97 8 108 33 119 55 c 1
 79 96 55 158 55 241 c 0
 55 404 122 496 278 496 c 0
 352 496 452 474 452 403 c 256
 452 356 414 346 363 346 c 1
 363 407 342 451 278 451 c 0
 172 451 152 357 152 242 c 0
 152 201 158 166 169 136 c 1
 209 189 257 224 343 224 c 0
 416 224 472 190 472 124 c 0
 472 35 384 -9 287 -9 c 0
 237 -9 195 3 161 22 c 1
414 124 m 0
 414 163 387 178 340 178 c 0
 272 178 232 137 198 88 c 1
 223 63 254 50 292 50 c 0
 355 50 414 67 414 124 c 0
EndSplineSet
EndChar
StartChar: uni0256
Encoding: 598 598 534
Width: 614
Flags: HW
LayerCount: 2
Fore
SplineSet
646 -204 m 1
 627 -211 584 -218 557 -218 c 0
 454 -218 412 -180 412 -77 c 2
 412 0 l 2
 412 27 415 56 416 82 c 1
 412 82 l 1
 384 28 340 -9 259 -9 c 0
 112 -9 55 86 55 243 c 0
 55 401 112 496 259 496 c 0
 337 496 383 464 412 416 c 1
 418 416 l 1
 418 416 418 416 417 428 c 0
 415 454 412 490 412 516 c 2
 412 591 l 2
 412 642 378 652 330 652 c 2
 322 652 l 1
 322 691 l 1
 506 691 l 1
 506 -80 l 2
 506 -135 531 -170 582 -170 c 0
 606 -170 624 -167 646 -164 c 1
 646 -204 l 1
152 242 m 0
 152 132 175 49 276 49 c 0
 389 49 412 123 412 243 c 0
 412 359 387 438 275 438 c 0
 175 438 152 350 152 242 c 0
EndSplineSet
EndChar
StartChar: uni0257
Encoding: 599 599 535
Width: 626
Flags: HW
LayerCount: 2
Fore
SplineSet
412 82 m 1
 384 28 340 -9 259 -9 c 0
 112 -9 55 86 55 243 c 0
 55 401 112 496 259 496 c 0
 337 496 383 464 412 416 c 1
 418 416 l 1
 416 432 l 2
 415 446 412 476 412 489 c 2
 412 513 l 2
 412 633 462 695 579 695 c 0
 639 695 696 673 696 623 c 0
 696 585 662 571 619 571 c 1
 619 611 608 653 567 653 c 0
 511 653 506 616 506 552 c 2
 506 100 l 2
 506 49 540 38 588 38 c 2
 596 38 l 1
 596 0 l 1
 427 0 l 1
 416 82 l 1
 412 82 l 1
152 242 m 0
 152 132 175 49 276 49 c 0
 389 49 412 123 412 243 c 0
 412 359 387 438 275 438 c 0
 175 438 152 350 152 242 c 0
EndSplineSet
EndChar
StartChar: uni0258
Encoding: 600 600 536
Width: 535
Flags: HW
LayerCount: 2
Fore
SplineSet
480 240 m 0
 480 88 397 -9 248 -9 c 0
 178 -9 121 8 91 42 c 128
 78 56 72 69 72 81 c 0
 72 96 81 108 91 112 c 1
 117 76 169 48 234 48 c 0
 343 48 381 121 383 237 c 1
 50 237 l 1
 50 279 l 2
 50 417 123 496 258 496 c 0
 409 496 480 398 480 240 c 0
381 286 m 1
 375 374 346 447 260 447 c 0
 175 447 151 374 151 286 c 1
 381 286 l 1
EndSplineSet
EndChar
StartChar: uni025A
Encoding: 602 602 538
Width: 734
Flags: HW
LayerCount: 2
Fore
SplineSet
480 247 m 0
 480 89 409 -9 258 -9 c 0
 123 -9 50 70 50 208 c 2
 50 214 l 1
 379 303 l 1
 366 389 323 439 234 439 c 0
 169 439 117 411 91 375 c 1
 81 379 72 391 72 406 c 0
 72 471 173 496 248 496 c 0
 370 496 447 428 471 327 c 1
 571 356 l 1
 596 277 l 2
 605 249 620 226 651 226 c 0
 678 226 696 240 707 256 c 1
 725 247 734 232 734 213 c 0
 734 178 696 155 656 155 c 0
 588 155 565 202 545 263 c 2
 535 295 l 1
 478 278 l 1
 479 269 480 257 480 247 c 0
151 190 m 1
 151 106 180 40 260 40 c 0
 360 40 382 134 383 242 c 1
 383 253 l 1
 151 190 l 1
EndSplineSet
EndChar
StartChar: uni025D
Encoding: 605 605 541
Width: 663
Flags: HW
LayerCount: 2
Fore
SplineSet
435 133 m 0
 435 31 340 -9 224 -9 c 0
 144 -9 40 9 40 78 c 0
 40 95 46 107 57 114 c 1
 86 71 130 50 207 50 c 0
 282 50 338 70 338 142 c 0
 338 206 288 231 221 231 c 2
 128 231 l 1
 128 280 l 1
 222 280 l 2
 282 280 323 312 323 367 c 0
 323 421 292 453 233 453 c 256
 169 453 130 418 130 355 c 1
 77 355 51 373 51 410 c 0
 51 476 146 495 231 495 c 0
 329 495 418 461 418 373 c 1
 507 395 l 1
 525 337 l 2
 534 309 549 286 580 286 c 0
 607 286 625 300 636 316 c 1
 654 307 663 292 663 273 c 0
 663 238 625 215 585 215 c 0
 519 215 494 257 476 317 c 2
 470 337 l 1
 404 320 l 1
 387 289 355 269 317 258 c 1
 317 253 l 1
 379 239 435 205 435 133 c 0
EndSplineSet
EndChar
StartChar: uni025E
Encoding: 606 606 542
Width: 555
Flags: HW
LayerCount: 2
Fore
SplineSet
500 142 m 0
 500 32 404 -9 287 -9 c 0
 127 -9 55 84 55 244 c 0
 55 402 131 496 290 496 c 0
 389 496 483 461 483 368 c 0
 483 310 431 273 382 259 c 1
 382 254 l 1
 443 240 500 212 500 142 c 0
152 244 m 0
 152 124 178 38 289 38 c 0
 360 38 403 73 403 143 c 0
 403 207 353 232 286 232 c 2
 233 232 l 1
 233 281 l 1
 287 281 l 2
 347 281 388 313 388 368 c 0
 388 422 346 449 288 449 c 0
 174 449 152 368 152 244 c 0
EndSplineSet
EndChar
StartChar: uni0260
Encoding: 608 608 544
Width: 614
Flags: HW
LayerCount: 2
Fore
SplineSet
506 8 m 2
 506 -140 442 -218 296 -218 c 0
 200 -218 95 -205 95 -120 c 0
 95 -79 132 -58 179 -58 c 1
 179 -143 206 -173 293 -173 c 0
 377 -173 412 -106 412 -16 c 2
 412 9 l 2
 412 35 414 69 416 91 c 1
 412 91 l 1
 384 37 340 0 259 0 c 0
 112 0 55 89 55 247 c 0
 55 405 112 496 259 496 c 0
 337 496 383 464 412 416 c 1
 418 416 l 1
 416 435 412 471 412 489 c 2
 412 513 l 2
 412 633 462 695 579 695 c 0
 639 695 696 673 696 623 c 0
 696 585 662 571 619 571 c 1
 619 611 608 653 567 653 c 0
 511 653 506 616 506 552 c 2
 506 8 l 2
152 246 m 0
 152 134 174 58 276 58 c 0
 387 58 412 131 412 247 c 0
 412 361 386 438 275 438 c 0
 175 438 152 356 152 246 c 0
EndSplineSet
EndChar
StartChar: uni0261
Encoding: 609 609 545
Width: 614
Flags: HW
LayerCount: 2
Fore
SplineSet
506 8 m 2
 506 -140 442 -218 296 -218 c 0
 200 -218 95 -205 95 -120 c 0
 95 -79 132 -58 179 -58 c 1
 179 -143 206 -173 293 -173 c 0
 377 -173 412 -106 412 -16 c 2
 412 9 l 2
 412 34 414 71 416 91 c 1
 412 91 l 1
 384 37 340 0 259 0 c 0
 112 0 55 89 55 247 c 0
 55 405 112 496 259 496 c 0
 337 496 383 464 412 416 c 1
 418 416 l 1
 436 487 l 1
 596 487 l 1
 596 449 l 1
 588 449 l 2
 538 449 506 437 506 383 c 2
 506 8 l 2
152 246 m 0
 152 134 174 58 276 58 c 0
 387 58 412 131 412 247 c 0
 412 361 386 438 275 438 c 0
 175 438 152 356 152 246 c 0
EndSplineSet
EndChar
StartChar: uni0262
Encoding: 610 610 546
Width: 585
Flags: HW
LayerCount: 2
Fore
SplineSet
489 25 m 1
 440 2 373 -9 307 -9 c 0
 145 -9 55 78 55 244 c 0
 55 399 146 496 306 496 c 0
 381 496 493 475 493 403 c 256
 493 356 455 346 404 346 c 1
 404 410 373 451 305 451 c 0
 187 451 152 368 152 244 c 0
 152 122 188 40 305 40 c 0
 340 40 367 44 395 52 c 1
 395 147 l 2
 395 198 364 208 316 208 c 2
 310 208 l 1
 310 244 l 1
 564 244 l 1
 564 208 l 1
 558 208 l 2
 508 208 489 196 489 143 c 2
 489 25 l 1
EndSplineSet
EndChar
StartChar: uni0263
Encoding: 611 611 547
Width: 579
Flags: HW
LayerCount: 2
Fore
SplineSet
398 -98 m 0
 398 -173 357 -218 279 -218 c 0
 218 -218 180 -182 180 -124 c 0
 180 -46 209 1 247 64 c 1
 78 401 l 2
 61 435 51 449 4 449 c 1
 4 487 l 1
 262 487 l 1
 262 449 l 1
 249 449 l 2
 215 449 189 443 189 411 c 0
 189 398 195 382 200 372 c 2
 268 235 l 2
 281 207 297 180 310 152 c 1
 347 223 385 294 423 365 c 0
 427 372 432 393 432 404 c 0
 432 434 410 449 366 449 c 2
 359 449 l 1
 359 487 l 1
 576 487 l 1
 576 449 l 1
 564 449 l 2
 516 449 507 413 488 378 c 2
 337 98 l 1
 370 30 398 -27 398 -98 c 0
233 -123 m 0
 233 -149 245 -173 270 -173 c 0
 295 -173 305 -147 305 -118 c 0
 305 -69 295 -40 274 7 c 1
 251 -30 233 -72 233 -123 c 0
EndSplineSet
EndChar
StartChar: uni0264
Encoding: 612 612 548
Width: 587
Flags: HW
LayerCount: 2
Fore
SplineSet
406 119 m 0
 406 44 363 -9 290 -9 c 0
 215 -9 178 24 178 96 c 0
 178 159 223 228 255 277 c 1
 220 336 153 429 67 429 c 0
 41 429 30 421 25 402 c 1
 9 405 -12 416 -12 436 c 0
 -12 480 30 496 84 496 c 0
 189 496 267 422 316 358 c 1
 364 413 437 496 530 496 c 0
 568 496 599 478 599 442 c 0
 599 425 593 412 582 405 c 1
 569 426 552 436 529 436 c 0
 451 436 383 367 342 318 c 1
 374 265 406 193 406 119 c 0
279 231 m 1
 257 192 232 144 232 93 c 0
 232 55 245 36 271 36 c 0
 304 36 312 60 312 99 c 0
 312 148 296 193 279 231 c 1
EndSplineSet
EndChar
StartChar: uni0265
Encoding: 613 613 549
Width: 635
Flags: HW
LayerCount: 2
Fore
SplineSet
527 -118 m 2
 527 -169 561 -180 609 -180 c 2
 617 -180 l 1
 617 -218 l 1
 433 -218 l 1
 433 -4 l 2
 433 15 435 44 436 62 c 2
 437 74 l 1
 432 74 l 1
 401 19 352 -9 285 -9 c 0
 167 -9 108 48 108 169 c 2
 108 383 l 2
 108 437 82 449 32 449 c 2
 28 449 l 1
 28 487 l 1
 202 487 l 1
 202 174 l 2
 202 94 231 49 312 49 c 0
 397 49 433 110 433 196 c 2
 433 388 l 2
 433 439 400 449 352 449 c 2
 348 449 l 1
 348 487 l 1
 617 487 l 1
 617 449 l 1
 609 449 l 2
 559 449 527 437 527 383 c 2
 527 -118 l 2
EndSplineSet
EndChar
StartChar: uni0266
Encoding: 614 614 550
Width: 635
Flags: HW
LayerCount: 2
Fore
SplineSet
202 99 m 2
 202 48 235 38 283 38 c 2
 287 38 l 1
 287 0 l 1
 18 0 l 1
 18 38 l 1
 26 38 l 2
 76 38 108 50 108 104 c 2
 108 514 l 2
 108 634 158 695 275 695 c 0
 335 695 392 673 392 623 c 0
 392 585 358 571 315 571 c 1
 315 611 304 653 263 653 c 0
 207 653 202 616 202 552 c 2
 202 491 l 2
 202 472 200 443 199 426 c 2
 198 413 l 1
 203 413 l 1
 233 468 282 496 350 496 c 0
 469 496 527 440 527 318 c 2
 527 104 l 2
 527 50 553 38 603 38 c 2
 607 38 l 1
 607 0 l 1
 433 0 l 1
 433 313 l 2
 433 393 404 438 323 438 c 0
 238 438 202 377 202 291 c 2
 202 99 l 2
EndSplineSet
EndChar
StartChar: uni0267
Encoding: 615 615 551
Width: 635
Flags: HW
LayerCount: 2
Fore
SplineSet
527 -7 m 2
 527 -134 484 -218 370 -218 c 0
 305 -218 240 -201 240 -146 c 0
 240 -105 272 -86 317 -85 c 1
 317 -134 327 -173 369 -173 c 0
 433 -173 433 -84 433 -8 c 2
 433 313 l 2
 433 393 404 438 323 438 c 0
 238 438 202 377 202 291 c 2
 202 99 l 2
 202 48 235 38 283 38 c 2
 287 38 l 1
 287 0 l 1
 18 0 l 1
 18 38 l 1
 26 38 l 2
 76 38 108 50 108 104 c 2
 108 513 l 2
 108 633 158 695 275 695 c 0
 335 695 392 673 392 623 c 0
 392 585 358 571 315 571 c 1
 315 611 304 653 263 653 c 0
 207 653 202 616 202 552 c 2
 202 491 l 2
 202 472 200 443 199 426 c 2
 198 413 l 1
 203 413 l 1
 233 468 282 496 350 496 c 0
 469 496 527 440 527 318 c 2
 527 -7 l 2
EndSplineSet
EndChar
StartChar: uni0268
Encoding: 616 616 552
Width: 320
Flags: HW
LayerCount: 2
Fore
SplineSet
218 634 m 0
 218 596 196 578 161 578 c 0
 125 578 104 596 104 634 c 0
 104 673 125 691 161 691 c 0
 196 691 218 672 218 634 c 0
212 104 m 2
 212 50 244 38 294 38 c 2
 307 38 l 1
 307 0 l 1
 23 0 l 1
 23 38 l 1
 36 38 l 2
 84 38 118 48 118 99 c 2
 118 237 l 1
 10 237 l 1
 10 280 l 1
 118 280 l 1
 118 387 l 2
 118 438 85 449 37 449 c 2
 33 449 l 1
 33 487 l 1
 212 487 l 1
 212 280 l 1
 310 280 l 1
 310 237 l 1
 212 237 l 1
 212 104 l 2
EndSplineSet
EndChar
StartChar: uni026A
Encoding: 618 618 554
Width: 330
Flags: HW
LayerCount: 2
Fore
SplineSet
212 104 m 2
 212 50 244 38 294 38 c 2
 307 38 l 1
 307 0 l 1
 23 0 l 1
 23 38 l 1
 36 38 l 2
 84 38 118 48 118 99 c 2
 118 383 l 2
 118 437 86 449 36 449 c 2
 23 449 l 1
 23 487 l 1
 307 487 l 1
 307 449 l 1
 294 449 l 2
 246 449 212 439 212 388 c 2
 212 104 l 2
EndSplineSet
EndChar
StartChar: uni026B
Encoding: 619 619 555
Width: 366
Flags: HW
LayerCount: 2
Fore
SplineSet
231 104 m 2
 231 50 263 38 313 38 c 2
 326 38 l 1
 326 0 l 1
 42 0 l 1
 42 38 l 1
 55 38 l 2
 105 38 137 50 137 104 c 2
 137 340 l 1
 126 345 114 352 99 352 c 0
 62 352 55 333 50 303 c 1
 5 303 l 1
 10 364 43 411 111 411 c 0
 120 411 128 410 137 408 c 1
 137 591 l 2
 137 642 103 652 55 652 c 2
 42 652 l 1
 42 691 l 1
 231 691 l 1
 231 364 l 1
 241 358 253 353 267 353 c 0
 303 353 311 373 316 402 c 1
 361 402 l 1
 356 341 323 294 256 294 c 0
 247 294 239 295 231 297 c 1
 231 104 l 2
EndSplineSet
EndChar
StartChar: uni026C
Encoding: 620 620 556
Width: 350
Flags: HW
LayerCount: 2
Fore
SplineSet
229 104 m 2
 229 50 261 38 311 38 c 2
 324 38 l 1
 324 0 l 1
 35 0 l 1
 35 38 l 1
 53 38 l 2
 103 38 135 50 135 104 c 2
 135 299 l 1
 124 299 l 2
 51 299 5 319 5 385 c 0
 5 437 51 466 107 466 c 0
 117 466 126 464 135 462 c 1
 135 591 l 2
 135 642 101 652 53 652 c 2
 40 652 l 1
 40 691 l 1
 229 691 l 1
 229 344 l 1
 335 344 l 1
 335 299 l 1
 229 299 l 1
 229 104 l 2
59 386 m 0
 59 355 90 344 126 344 c 2
 135 344 l 1
 135 371 l 2
 135 400 125 421 97 421 c 0
 75 421 59 407 59 386 c 0
EndSplineSet
EndChar
StartChar: uni026D
Encoding: 621 621 557
Width: 324
Flags: HW
LayerCount: 2
Fore
SplineSet
322 -204 m 1
 303 -211 260 -218 233 -218 c 0
 130 -218 88 -180 88 -77 c 2
 88 591 l 2
 88 642 64 652 16 652 c 2
 12 652 l 1
 12 691 l 1
 182 691 l 1
 182 -80 l 2
 182 -135 207 -170 258 -170 c 0
 282 -170 300 -167 322 -164 c 1
 322 -204 l 1
EndSplineSet
EndChar
StartChar: uni026E
Encoding: 622 622 558
Width: 647
Flags: HW
LayerCount: 2
Fore
SplineSet
592 7 m 0
 592 -143 484 -218 337 -218 c 0
 248 -218 140 -204 140 -129 c 0
 140 -89 169 -71 214 -71 c 1
 214 -137 266 -174 336 -174 c 0
 441 -174 495 -109 495 0 c 0
 495 105 428 158 295 158 c 2
 272 158 l 1
 272 195 l 1
 469 414 l 1
 202 414 l 1
 202 104 l 2
 202 50 234 38 284 38 c 2
 297 38 l 1
 297 0 l 1
 13 0 l 1
 13 38 l 1
 26 38 l 2
 76 38 108 50 108 104 c 2
 108 591 l 2
 108 642 74 652 26 652 c 2
 13 652 l 1
 13 691 l 1
 202 691 l 1
 202 487 l 1
 566 487 l 1
 566 442 l 1
 350 206 l 1
 486 198 592 151 592 7 c 0
EndSplineSet
EndChar
StartChar: uni0270
Encoding: 624 624 560
Width: 945
Flags: HW
LayerCount: 2
Fore
SplineSet
827 -118 m 2
 827 -169 855 -180 903 -180 c 2
 917 -180 l 1
 917 -218 l 1
 733 -218 l 1
 733 0 l 2
 733 25 736 50 737 74 c 1
 732 74 l 1
 698 17 660 -9 581 -9 c 0
 508 -9 459 19 436 74 c 1
 428 74 l 1
 394 17 351 -9 271 -9 c 0
 160 -9 108 52 108 169 c 2
 108 383 l 2
 108 437 82 449 32 449 c 2
 28 449 l 1
 28 487 l 1
 202 487 l 1
 202 174 l 2
 202 96 229 49 307 49 c 0
 386 49 418 106 418 184 c 2
 418 383 l 2
 418 437 392 449 342 449 c 2
 338 449 l 1
 338 487 l 1
 512 487 l 1
 512 174 l 2
 512 96 539 49 617 49 c 0
 701 49 733 113 733 196 c 2
 733 388 l 2
 733 439 700 449 652 449 c 2
 648 449 l 1
 648 487 l 1
 917 487 l 1
 917 449 l 1
 904 449 l 2
 854 449 827 437 827 383 c 2
 827 -118 l 2
EndSplineSet
EndChar
StartChar: uni0271
Encoding: 625 625 561
Width: 945
Flags: HW
LayerCount: 2
Fore
SplineSet
837 -7 m 2
 837 -134 794 -218 680 -218 c 0
 615 -218 550 -201 550 -146 c 0
 550 -105 582 -86 627 -85 c 1
 627 -146 644 -176 679 -176 c 0
 743 -176 743 -84 743 -8 c 2
 743 313 l 2
 743 391 716 438 638 438 c 0
 558 438 527 381 527 303 c 2
 527 104 l 2
 527 50 554 38 604 38 c 2
 607 38 l 1
 607 0 l 1
 433 0 l 1
 433 313 l 2
 433 391 406 438 328 438 c 0
 243 438 212 374 212 291 c 2
 212 99 l 2
 212 48 246 38 294 38 c 2
 297 38 l 1
 297 0 l 1
 28 0 l 1
 28 38 l 1
 41 38 l 2
 91 38 118 50 118 104 c 2
 118 387 l 2
 118 438 89 449 41 449 c 2
 38 449 l 1
 38 487 l 1
 195 487 l 1
 208 413 l 1
 213 413 l 1
 247 470 286 496 364 496 c 0
 437 496 486 468 509 413 c 1
 517 413 l 1
 551 470 595 496 674 496 c 0
 784 496 837 434 837 318 c 2
 837 -7 l 2
EndSplineSet
EndChar
StartChar: uni0272
Encoding: 626 626 562
Width: 645
Flags: HW
LayerCount: 2
Fore
SplineSet
212 -7 m 2
 212 -134 169 -218 55 -218 c 0
 -10 -218 -75 -201 -75 -146 c 0
 -75 -105 -43 -86 2 -85 c 1
 2 -146 19 -176 54 -176 c 0
 119 -176 118 -85 118 -8 c 2
 118 387 l 2
 118 438 85 449 37 449 c 2
 33 449 l 1
 33 487 l 1
 195 487 l 1
 208 413 l 1
 213 413 l 1
 248 471 288 496 369 496 c 0
 482 496 537 436 537 318 c 2
 537 104 l 2
 537 50 563 38 613 38 c 2
 617 38 l 1
 617 0 l 1
 443 0 l 1
 443 313 l 2
 443 393 414 438 333 438 c 0
 247 438 212 376 212 291 c 2
 212 -7 l 2
EndSplineSet
EndChar
StartChar: uni0273
Encoding: 627 627 563
Width: 645
Flags: HW
LayerCount: 2
Fore
SplineSet
677 -204 m 1
 658 -211 615 -218 588 -218 c 0
 485 -218 443 -180 443 -77 c 2
 443 313 l 2
 443 393 414 438 333 438 c 0
 247 438 212 376 212 291 c 2
 212 99 l 2
 212 48 245 38 293 38 c 2
 297 38 l 1
 297 0 l 1
 28 0 l 1
 28 38 l 1
 36 38 l 2
 86 38 118 50 118 104 c 2
 118 387 l 2
 118 438 85 449 37 449 c 2
 33 449 l 1
 33 487 l 1
 195 487 l 1
 208 413 l 1
 213 413 l 1
 248 471 288 496 369 496 c 0
 482 496 537 436 537 318 c 2
 537 -80 l 2
 537 -135 561 -170 613 -170 c 0
 637 -170 655 -167 677 -164 c 1
 677 -204 l 1
EndSplineSet
EndChar
StartChar: uni0274
Encoding: 628 628 564
Width: 663
Flags: HW
LayerCount: 2
Fore
SplineSet
171 99 m 2
 171 48 204 38 252 38 c 2
 261 38 l 1
 261 0 l 1
 28 0 l 1
 28 38 l 1
 36 38 l 2
 84 38 118 48 118 99 c 2
 118 387 l 2
 118 438 84 449 36 449 c 2
 28 449 l 1
 28 487 l 1
 191 487 l 1
 497 130 l 1
 497 387 l 2
 497 438 464 449 416 449 c 2
 407 449 l 1
 407 487 l 1
 640 487 l 1
 640 449 l 1
 632 449 l 2
 584 449 550 439 550 388 c 2
 550 0 l 1
 487 0 l 1
 171 371 l 1
 171 99 l 2
EndSplineSet
EndChar
StartChar: uni0276
Encoding: 630 630 566
Width: 790
Flags: HW
LayerCount: 2
Fore
SplineSet
385 0 m 1
 355 -7 324 -9 287 -9 c 0
 133 -9 55 84 55 244 c 0
 55 408 130 496 290 496 c 0
 325 496 357 494 385 487 c 1
 715 487 l 1
 721 342 l 1
 678 342 l 1
 673 372 l 2
 665 423 656 445 603 445 c 2
 474 445 l 1
 474 275 l 1
 663 275 l 1
 663 233 l 1
 474 233 l 1
 474 42 l 1
 610 42 l 2
 676 42 693 58 701 115 c 2
 705 145 l 1
 748 145 l 1
 742 0 l 1
 385 0 l 1
152 244 m 256
 152 125 178 35 289 35 c 0
 325 35 360 35 385 47 c 1
 385 433 l 1
 361 446 325 451 288 451 c 0
 177 451 152 363 152 244 c 256
EndSplineSet
EndChar
StartChar: uni0277
Encoding: 631 631 567
Width: 768
Flags: HW
LayerCount: 2
Fore
SplineSet
382 84 m 1
 362 32 315 -9 244 -9 c 0
 115 -9 55 91 55 229 c 0
 55 411 197 496 386 496 c 0
 568 496 713 409 713 229 c 0
 713 91 653 -9 524 -9 c 0
 453 -9 406 33 386 84 c 1
 382 84 l 1
152 229 m 0
 152 131 172 40 260 40 c 256
 320 40 343 84 354 133 c 1
 354 301 l 1
 414 301 l 1
 414 133 l 1
 426 85 448 40 508 40 c 0
 587 40 616 134 616 229 c 0
 616 387 546 451 383 451 c 0
 229 451 152 379 152 229 c 0
EndSplineSet
EndChar
StartChar: uni0278
Encoding: 632 632 568
Width: 697
Flags: HW
LayerCount: 2
Fore
SplineSet
379 -117 m 2
 379 -169 412 -180 461 -180 c 2
 474 -180 l 1
 474 -218 l 1
 224 -218 l 1
 224 -180 l 1
 237 -180 l 2
 285 -180 319 -170 319 -119 c 2
 319 -8 l 1
 159 0 55 79 55 244 c 0
 55 413 153 487 319 495 c 1
 319 590 l 2
 319 642 286 652 237 652 c 2
 224 652 l 1
 224 691 l 1
 474 691 l 1
 474 652 l 1
 461 652 l 2
 413 652 379 642 379 591 c 2
 379 495 l 1
 537 487 642 409 642 244 c 256
 642 76 544 0 379 -8 c 1
 379 -117 l 2
319 447 m 1
 199 438 152 371 152 244 c 256
 152 117 199 48 319 39 c 1
 319 447 l 1
379 39 m 1
 498 48 545 117 545 244 c 0
 545 370 498 438 379 446 c 1
 379 39 l 1
EndSplineSet
EndChar
StartChar: uni027A
Encoding: 634 634 570
Width: 471
Flags: HW
LayerCount: 2
Fore
SplineSet
260 90 m 1
 233 33 208 -9 123 -9 c 0
 64 -9 15 5 15 57 c 0
 15 104 54 122 108 122 c 1
 108 77 119 51 161 51 c 0
 238 51 259 167 259 245 c 2
 259 591 l 2
 259 642 225 652 177 652 c 2
 149 652 l 1
 149 691 l 1
 353 691 l 1
 353 100 l 2
 353 49 386 38 434 38 c 2
 438 38 l 1
 438 0 l 1
 284 0 l 1
 265 90 l 1
 260 90 l 1
EndSplineSet
EndChar
StartChar: uni027B
Encoding: 635 635 571
Width: 471
Flags: HW
LayerCount: 2
Fore
SplineSet
493 -204 m 1
 474 -211 431 -218 404 -218 c 0
 301 -218 259 -180 259 -77 c 2
 259 0 l 2
 259 32 262 60 265 90 c 1
 260 90 l 1
 233 33 208 -9 123 -9 c 0
 64 -9 15 5 15 57 c 0
 15 104 54 122 108 122 c 1
 108 77 119 51 161 51 c 0
 238 51 259 167 259 245 c 2
 259 388 l 2
 259 439 225 449 177 449 c 2
 149 449 l 1
 149 487 l 1
 438 487 l 1
 438 449 l 1
 434 449 l 2
 384 449 353 437 353 383 c 2
 353 -80 l 2
 353 -135 377 -170 429 -170 c 0
 453 -170 471 -167 493 -164 c 1
 493 -204 l 1
EndSplineSet
EndChar
StartChar: uni027C
Encoding: 636 636 572
Width: 471
Flags: HW
LayerCount: 2
Fore
SplineSet
212 -119 m 2
 212 -170 246 -180 294 -180 c 2
 322 -180 l 1
 322 -218 l 1
 33 -218 l 1
 33 -180 l 1
 37 -180 l 2
 87 -180 118 -168 118 -114 c 2
 118 387 l 2
 118 438 85 449 37 449 c 2
 33 449 l 1
 33 487 l 1
 187 487 l 1
 206 397 l 1
 211 397 l 1
 234 460 279 496 360 496 c 0
 413 496 456 479 456 430 c 0
 456 383 417 365 363 365 c 1
 363 410 352 436 310 436 c 0
 233 436 212 320 212 242 c 2
 212 -119 l 2
EndSplineSet
EndChar
StartChar: uni027D
Encoding: 637 637 573
Width: 471
Flags: HW
LayerCount: 2
Fore
SplineSet
352 -204 m 1
 333 -211 290 -218 263 -218 c 0
 160 -218 118 -180 118 -77 c 2
 118 387 l 2
 118 438 85 449 37 449 c 2
 33 449 l 1
 33 487 l 1
 187 487 l 1
 206 397 l 1
 211 397 l 1
 234 460 279 496 360 496 c 0
 413 496 456 479 456 430 c 0
 456 383 417 365 363 365 c 1
 363 410 352 436 310 436 c 0
 233 436 212 320 212 242 c 2
 212 -80 l 2
 212 -135 237 -170 288 -170 c 0
 312 -170 330 -167 352 -164 c 1
 352 -204 l 1
EndSplineSet
EndChar
StartChar: uni027E
Encoding: 638 638 574
Width: 451
Flags: HW
LayerCount: 2
Fore
SplineSet
202 99 m 2
 202 48 236 38 284 38 c 2
 312 38 l 1
 312 0 l 1
 23 0 l 1
 23 38 l 1
 27 38 l 2
 77 38 108 50 108 104 c 2
 108 317 l 2
 108 431 165 496 280 496 c 0
 361 496 436 477 436 410 c 0
 436 367 394 357 343 357 c 1
 343 409 328 454 276 454 c 0
 210 454 202 387 202 313 c 2
 202 99 l 2
EndSplineSet
EndChar
StartChar: uni027F
Encoding: 639 639 575
Width: 451
Flags: HW
LayerCount: 2
Fore
SplineSet
343 -114 m 2
 343 -168 374 -180 424 -180 c 2
 428 -180 l 1
 428 -218 l 1
 139 -218 l 1
 139 -180 l 1
 167 -180 l 2
 215 -180 249 -170 249 -119 c 2
 249 313 l 2
 249 386 241 454 175 454 c 0
 122 454 108 409 108 357 c 1
 57 357 15 367 15 410 c 0
 15 477 89 496 171 496 c 0
 286 496 343 431 343 317 c 2
 343 -114 l 2
EndSplineSet
EndChar
StartChar: uni0280
Encoding: 640 640 576
Width: 566
Flags: HW
LayerCount: 2
Fore
SplineSet
212 99 m 2
 212 48 246 38 294 38 c 2
 307 38 l 1
 307 0 l 1
 23 0 l 1
 23 38 l 1
 36 38 l 2
 84 38 118 48 118 99 c 2
 118 387 l 2
 118 438 85 449 37 449 c 2
 33 449 l 1
 33 487 l 1
 304 487 l 2
 418 487 506 457 506 358 c 0
 506 282 440 242 375 231 c 1
 473 93 l 2
 493 64 509 38 548 38 c 2
 558 38 l 1
 558 0 l 1
 524 0 l 2
 441 0 410 25 378 74 c 2
 285 214 l 1
 212 214 l 1
 212 99 l 2
409 354 m 0
 409 413 367 445 299 445 c 2
 212 445 l 1
 212 258 l 1
 299 258 l 2
 369 258 409 291 409 354 c 0
EndSplineSet
EndChar
StartChar: uni0282
Encoding: 642 642 578
Width: 451
Flags: HW
LayerCount: 2
Fore
SplineSet
223 -129 m 0
 223 -166 187 -179 147 -179 c 0
 69 -179 45 -125 45 -45 c 2
 45 87 l 2
 45 127 70 150 108 150 c 1
 108 79 140 35 216 35 c 0
 277 35 326 61 326 117 c 0
 326 180 257 195 203 216 c 0
 129 245 52 271 52 367 c 0
 52 459 141 495 240 495 c 0
 311 495 386 471 386 412 c 0
 386 375 354 357 314 357 c 1
 314 416 287 453 228 453 c 0
 171 453 133 431 133 381 c 0
 133 320 196 307 257 284 c 0
 332 256 407 230 407 134 c 0
 407 32 316 -9 210 -9 c 0
 162 -9 125 1 98 20 c 1
 98 -45 l 2
 98 -88 117 -110 156 -110 c 0
 179 -110 193 -105 208 -95 c 1
 218 -104 223 -116 223 -129 c 0
EndSplineSet
EndChar
StartChar: uni0283
Encoding: 643 643 579
Width: 334
Flags: HW
LayerCount: 2
Fore
SplineSet
214 -7 m 2
 214 -134 171 -218 57 -218 c 0
 -8 -218 -73 -201 -73 -146 c 0
 -73 -105 -41 -86 4 -85 c 1
 4 -134 14 -173 56 -173 c 0
 121 -173 120 -85 120 -8 c 2
 120 513 l 2
 120 633 170 695 287 695 c 0
 347 695 404 673 404 623 c 0
 404 585 370 571 327 571 c 1
 327 611 316 653 275 653 c 0
 219 653 214 616 214 552 c 2
 214 -7 l 2
EndSplineSet
EndChar
StartChar: uni0284
Encoding: 644 644 580
Width: 322
Flags: HW
LayerCount: 2
Fore
SplineSet
202 -7 m 2
 202 -149 141 -218 4 -218 c 2
 -12 -218 l 1
 -12 -175 l 1
 -5 -175 l 2
 88 -175 108 -107 108 -8 c 2
 108 204 l 1
 10 204 l 1
 10 247 l 1
 108 247 l 1
 108 513 l 2
 108 633 158 695 275 695 c 0
 335 695 392 673 392 623 c 0
 392 585 358 571 315 571 c 1
 315 611 304 653 263 653 c 0
 207 653 202 616 202 552 c 2
 202 247 l 1
 300 247 l 1
 300 204 l 1
 202 204 l 1
 202 -7 l 2
EndSplineSet
EndChar
StartChar: uni0285
Encoding: 645 645 581
Width: 334
Flags: HW
LayerCount: 2
Fore
SplineSet
407 -146 m 0
 407 -201 342 -218 277 -218 c 0
 164 -218 120 -134 120 -7 c 2
 120 353 l 2
 120 417 115 454 59 454 c 0
 18 454 7 413 7 373 c 1
 -36 373 -70 387 -70 424 c 0
 -70 474 -13 496 47 496 c 0
 164 496 214 434 214 314 c 2
 214 -8 l 2
 214 -85 213 -176 278 -176 c 0
 313 -176 330 -146 330 -85 c 1
 374 -86 407 -106 407 -146 c 0
EndSplineSet
EndChar
StartChar: uni0286
Encoding: 646 646 582
Width: 334
Flags: HW
LayerCount: 2
Fore
SplineSet
212 -84 m 1
 202 -175 157 -218 65 -218 c 0
 -8 -218 -62 -175 -62 -100 c 0
 -62 -28 0 9 82 9 c 0
 94 9 107 8 120 6 c 1
 120 513 l 2
 120 633 170 695 287 695 c 0
 347 695 404 673 404 623 c 0
 404 585 370 571 327 571 c 1
 327 611 316 653 275 653 c 0
 219 653 214 616 214 552 c 2
 214 -25 l 1
 262 -54 300 -97 322 -154 c 1
 272 -173 l 1
 259 -137 237 -108 212 -84 c 1
-8 -100 m 0
 -8 -140 16 -166 56 -166 c 256
 108 -166 120 -128 120 -66 c 2
 120 -40 l 1
 107 -37 94 -36 79 -36 c 0
 27 -36 -8 -56 -8 -100 c 0
EndSplineSet
EndChar
StartChar: uni0288
Encoding: 648 648 584
Width: 352
Flags: HW
LayerCount: 2
Fore
SplineSet
329 -204 m 1
 310 -211 267 -218 240 -218 c 0
 137 -218 95 -180 95 -77 c 2
 95 435 l 1
 19 435 l 1
 19 472 l 1
 98 472 129 530 143 599 c 1
 189 599 l 1
 189 487 l 1
 320 487 l 1
 320 435 l 1
 189 435 l 1
 189 -80 l 2
 189 -135 213 -170 265 -170 c 0
 289 -170 307 -167 329 -164 c 1
 329 -204 l 1
EndSplineSet
EndChar
StartChar: uni0289
Encoding: 649 649 585
Width: 635
Flags: HW
LayerCount: 2
Fore
SplineSet
273 -9 m 0
 160 -9 108 51 108 169 c 2
 108 237 l 1
 10 237 l 1
 10 280 l 1
 108 280 l 1
 108 387 l 2
 108 438 74 449 26 449 c 2
 23 449 l 1
 23 487 l 1
 202 487 l 1
 202 280 l 1
 433 280 l 1
 433 383 l 2
 433 437 401 449 351 449 c 2
 348 449 l 1
 348 487 l 1
 527 487 l 1
 527 280 l 1
 625 280 l 1
 625 237 l 1
 527 237 l 1
 527 99 l 2
 527 48 561 38 609 38 c 2
 612 38 l 1
 612 0 l 1
 453 0 l 1
 440 74 l 1
 435 74 l 1
 400 16 355 -9 273 -9 c 0
307 49 m 0
 395 49 433 108 433 196 c 2
 433 237 l 1
 202 237 l 1
 202 174 l 2
 202 94 226 49 307 49 c 0
EndSplineSet
EndChar
StartChar: uni028F
Encoding: 655 655 591
Width: 563
Flags: HW
LayerCount: 2
Fore
SplineSet
330 104 m 2
 330 50 362 38 412 38 c 2
 425 38 l 1
 425 0 l 1
 141 0 l 1
 141 38 l 1
 154 38 l 2
 202 38 236 48 236 99 c 2
 236 213 l 1
 98 401 l 2
 78 428 55 449 18 449 c 2
 5 449 l 1
 5 487 l 1
 263 487 l 1
 263 449 l 1
 258 449 l 2
 228 449 198 448 198 422 c 0
 198 393 210 382 231 356 c 2
 301 264 l 1
 368 363 l 2
 377 376 395 403 395 421 c 0
 395 447 366 449 334 449 c 2
 330 449 l 1
 330 487 l 1
 558 487 l 1
 558 449 l 1
 549 449 l 2
 494 449 478 428 449 389 c 2
 330 230 l 1
 330 104 l 2
EndSplineSet
EndChar
StartChar: uni0290
Encoding: 656 656 592
Width: 511
Flags: HW
LayerCount: 2
Fore
SplineSet
575 -129 m 0
 575 -166 539 -179 499 -179 c 0
 421 -179 397 -125 397 -45 c 2
 397 0 l 1
 42 0 l 1
 42 36 l 1
 332 435 l 1
 176 435 l 2
 120 435 110 405 98 358 c 1
 56 358 l 1
 66 487 l 1
 449 487 l 1
 449 450 l 1
 158 52 l 1
 340 52 l 2
 386 52 399 89 408 126 c 2
 413 147 l 1
 455 147 l 1
 450 0 l 1
 450 -45 l 2
 450 -88 469 -110 508 -110 c 0
 531 -110 545 -105 560 -95 c 1
 570 -104 575 -116 575 -129 c 0
EndSplineSet
EndChar
StartChar: uni0291
Encoding: 657 657 593
Width: 511
Flags: HW
LayerCount: 2
Fore
SplineSet
275 0 m 1
 268 -23 265 -48 260 -74 c 1
 208 -61 l 1
 212 -40 217 -19 222 0 c 1
 42 0 l 1
 42 36 l 1
 332 435 l 1
 176 435 l 2
 120 435 110 405 98 358 c 1
 56 358 l 1
 66 487 l 1
 449 487 l 1
 449 450 l 1
 158 52 l 1
 238 52 l 1
 267 131 302 196 391 196 c 0
 446 196 488 162 488 109 c 0
 488 28 419 0 331 0 c 2
 275 0 l 1
430 108 m 0
 430 134 412 151 383 151 c 0
 329 151 307 102 290 52 c 1
 339 52 l 2
 389 52 430 65 430 108 c 0
EndSplineSet
EndChar
StartChar: uni0293
Encoding: 659 659 595
Width: 547
Flags: HW
LayerCount: 2
Fore
SplineSet
250 206 m 1
 382 198 492 154 492 15 c 0
 492 -30 481 -70 460 -104 c 1
 487 -128 509 -157 533 -186 c 1
 490 -214 l 1
 471 -189 450 -165 428 -144 c 1
 377 -193 306 -218 216 -218 c 0
 129 -218 40 -192 40 -114 c 0
 40 -27 117 0 213 0 c 0
 278 0 337 -16 389 -48 c 1
 393 -31 395 -11 395 10 c 0
 395 119 313 158 195 158 c 2
 172 158 l 1
 172 195 l 1
 369 414 l 1
 188 414 l 2
 140 414 130 399 123 357 c 2
 121 344 l 1
 72 344 l 1
 78 487 l 1
 466 487 l 1
 466 442 l 1
 250 206 l 1
93 -112 m 0
 93 -161 154 -174 215 -174 c 0
 289 -174 343 -144 371 -95 c 1
 329 -66 278 -44 213 -44 c 0
 149 -44 93 -53 93 -112 c 0
EndSplineSet
EndChar
StartChar: uni0297
Encoding: 663 663 599
Width: 492
Flags: HW
LayerCount: 2
Fore
SplineSet
453 -129 m 0
 453 -195 358 -216 283 -216 c 0
 114 -216 55 -53 55 136 c 0
 55 333 112 496 283 496 c 0
 355 496 452 473 452 403 c 256
 452 356 414 346 363 346 c 1
 363 407 342 451 278 451 c 0
 157 451 152 276 152 134 c 0
 152 -18 173 -157 303 -157 c 0
 364 -157 413 -132 436 -94 c 1
 447 -103 453 -114 453 -129 c 0
EndSplineSet
EndChar
StartChar: uni029A
Encoding: 666 666 602
Width: 555
Flags: HW
LayerCount: 2
Fore
SplineSet
500 244 m 0
 500 83 429 -9 268 -9 c 0
 151 -9 55 32 55 142 c 0
 55 212 112 241 173 254 c 1
 173 259 l 1
 124 273 72 310 72 368 c 0
 72 460 167 496 265 496 c 0
 425 496 500 402 500 244 c 0
152 143 m 0
 152 73 195 38 266 38 c 0
 377 38 403 125 403 244 c 0
 403 367 381 449 267 449 c 0
 209 449 167 422 167 368 c 0
 167 313 208 281 268 281 c 2
 322 281 l 1
 322 232 l 1
 269 232 l 2
 202 232 152 207 152 143 c 0
EndSplineSet
EndChar
StartChar: uni029B
Encoding: 667 667 603
Width: 585
Flags: HW
LayerCount: 2
Fore
SplineSet
489 25 m 1
 440 2 373 -9 307 -9 c 0
 145 -9 55 78 55 244 c 0
 55 399 146 496 306 496 c 0
 355 496 405 485 440 470 c 1
 440 556 l 2
 440 632 467 691 544 691 c 0
 584 691 620 678 620 641 c 0
 620 628 615 616 605 607 c 1
 589 616 577 621 553 621 c 0
 514 621 493 600 493 556 c 2
 493 403 l 2
 493 356 455 346 404 346 c 1
 404 410 373 451 305 451 c 0
 187 451 152 368 152 244 c 0
 152 122 188 40 305 40 c 0
 340 40 367 44 395 52 c 1
 395 147 l 2
 395 198 364 208 316 208 c 2
 310 208 l 1
 310 244 l 1
 564 244 l 1
 564 208 l 1
 558 208 l 2
 508 208 489 196 489 143 c 2
 489 25 l 1
EndSplineSet
EndChar
StartChar: uni029D
Encoding: 669 669 605
Width: 300
Flags: HW
LayerCount: 2
Fore
SplineSet
208 634 m 0
 208 596 186 578 151 578 c 0
 115 578 94 596 94 634 c 0
 94 673 115 691 151 691 c 0
 186 691 208 672 208 634 c 0
200 -75 m 1
 188 -166 137 -218 43 -218 c 0
 -19 -218 -63 -188 -63 -131 c 0
 -63 -59 0 -32 81 -32 c 2
 108 -32 l 1
 108 387 l 2
 108 438 75 449 27 449 c 2
 23 449 l 1
 23 487 l 1
 202 487 l 1
 202 -32 l 1
 290 -32 l 1
 290 -75 l 1
 200 -75 l 1
79 -75 m 2
 28 -75 -9 -87 -9 -131 c 0
 -9 -160 8 -175 42 -175 c 0
 87 -175 108 -136 108 -82 c 2
 108 -75 l 1
 79 -75 l 2
EndSplineSet
EndChar
StartChar: uni029F
Encoding: 671 671 607
Width: 496
Flags: HW
LayerCount: 2
Fore
SplineSet
294 449 m 2
 246 449 212 439 212 388 c 2
 212 42 l 1
 347 42 l 2
 400 42 415 65 423 115 c 2
 428 145 l 1
 474 145 l 1
 468 0 l 1
 23 0 l 1
 23 38 l 1
 36 38 l 2
 84 38 118 49 118 100 c 2
 118 388 l 2
 118 439 89 449 41 449 c 2
 28 449 l 1
 28 487 l 1
 302 487 l 1
 302 449 l 1
 294 449 l 2
EndSplineSet
EndChar
StartChar: uni02A0
Encoding: 672 672 608
Width: 626
Flags: HW
LayerCount: 2
Fore
SplineSet
506 -118 m 2
 506 -169 540 -180 588 -180 c 2
 596 -180 l 1
 596 -218 l 1
 297 -218 l 1
 297 -180 l 1
 330 -180 l 2
 380 -180 412 -168 412 -114 c 2
 412 -36 l 2
 412 -10 414 36 415 61 c 2
 416 82 l 1
 412 82 l 1
 384 28 340 -9 259 -9 c 0
 112 -9 55 86 55 243 c 0
 55 401 112 496 259 496 c 0
 337 496 383 464 412 416 c 1
 418 416 l 1
 416 434 416 434 414 452 c 128
 413 464 412 476 412 489 c 2
 412 513 l 2
 412 633 462 695 579 695 c 0
 639 695 696 673 696 623 c 0
 696 585 662 571 619 571 c 1
 619 611 608 653 567 653 c 0
 511 653 506 616 506 552 c 2
 506 -118 l 2
152 242 m 0
 152 132 175 49 276 49 c 0
 389 49 412 123 412 243 c 0
 412 359 387 438 275 438 c 0
 175 438 152 350 152 242 c 0
EndSplineSet
EndChar
StartChar: uni02A1
Encoding: 673 673 609
Width: 485
Flags: HW
LayerCount: 2
Fore
SplineSet
267 104 m 2
 267 50 299 38 349 38 c 2
 362 38 l 1
 362 0 l 1
 78 0 l 1
 78 38 l 1
 91 38 l 2
 141 38 173 50 173 104 c 2
 173 170 l 1
 68 170 l 1
 68 213 l 1
 173 213 l 1
 173 331 l 1
 261 367 345 403 345 518 c 0
 345 594 307 645 229 645 c 0
 149 645 111 601 111 525 c 1
 67 525 32 542 32 584 c 0
 32 664 140 691 229 691 c 0
 351 691 439 629 439 513 c 0
 439 387 362 334 267 288 c 1
 267 213 l 1
 372 213 l 1
 372 170 l 1
 267 170 l 1
 267 104 l 2
EndSplineSet
EndChar
StartChar: uni02A2
Encoding: 674 674 610
Width: 485
Flags: HW
LayerCount: 2
Fore
SplineSet
312 104 m 2
 312 50 344 38 394 38 c 2
 407 38 l 1
 407 0 l 1
 123 0 l 1
 123 38 l 1
 136 38 l 2
 186 38 218 50 218 104 c 2
 218 170 l 1
 113 170 l 1
 113 213 l 1
 218 213 l 1
 218 288 l 1
 123 334 46 387 46 513 c 0
 46 629 134 691 256 691 c 0
 344 691 453 664 453 584 c 0
 453 542 418 525 374 525 c 1
 374 601 336 645 256 645 c 0
 178 645 140 594 140 518 c 0
 140 404 225 367 312 331 c 1
 312 213 l 1
 417 213 l 1
 417 170 l 1
 312 170 l 1
 312 104 l 2
EndSplineSet
EndChar
StartChar: uni02A3
Encoding: 675 675 611
Width: 961
Flags: HW
LayerCount: 2
Fore
SplineSet
412 82 m 1
 384 28 340 -9 259 -9 c 0
 112 -9 55 86 55 243 c 0
 55 401 112 496 259 496 c 0
 337 496 383 464 412 416 c 1
 418 416 l 1
 418 416 418 416 417 428 c 0
 415 454 412 490 412 516 c 2
 412 591 l 2
 412 642 378 652 330 652 c 2
 322 652 l 1
 322 691 l 1
 506 691 l 1
 506 487 l 1
 899 487 l 1
 899 450 l 1
 608 52 l 1
 790 52 l 2
 836 52 849 89 858 126 c 2
 863 147 l 1
 905 147 l 1
 900 0 l 1
 427 0 l 1
 416 82 l 1
 412 82 l 1
152 242 m 0
 152 132 175 49 276 49 c 0
 389 49 412 123 412 243 c 0
 412 359 387 438 275 438 c 0
 175 438 152 350 152 242 c 0
506 55 m 1
 782 435 l 1
 506 435 l 1
 506 55 l 1
EndSplineSet
EndChar
StartChar: uni02A4
Encoding: 676 676 612
Width: 951
Flags: HW
LayerCount: 2
Fore
SplineSet
896 7 m 0
 896 -143 788 -218 641 -218 c 0
 552 -218 444 -204 444 -129 c 0
 444 -89 473 -71 518 -71 c 1
 518 -137 570 -174 640 -174 c 0
 745 -174 799 -109 799 0 c 0
 799 105 732 158 599 158 c 2
 576 158 l 1
 576 195 l 1
 773 414 l 1
 506 414 l 1
 506 100 l 2
 506 49 540 38 588 38 c 2
 596 38 l 1
 596 0 l 1
 427 0 l 1
 416 82 l 1
 412 82 l 1
 384 28 340 -9 259 -9 c 0
 112 -9 55 86 55 243 c 0
 55 401 112 496 259 496 c 0
 337 496 383 464 412 416 c 1
 418 416 l 1
 418 416 418 416 417 428 c 0
 415 454 412 490 412 516 c 2
 412 591 l 2
 412 642 378 652 330 652 c 2
 322 652 l 1
 322 691 l 1
 506 691 l 1
 506 487 l 1
 870 487 l 1
 870 442 l 1
 654 206 l 1
 790 198 896 151 896 7 c 0
152 242 m 0
 152 132 175 49 276 49 c 0
 389 49 412 123 412 243 c 0
 412 359 387 438 275 438 c 0
 175 438 152 350 152 242 c 0
EndSplineSet
EndChar
StartChar: uni02A5
Encoding: 677 677 613
Width: 961
Flags: HW
LayerCount: 2
Fore
SplineSet
725 0 m 1
 718 -23 715 -48 710 -74 c 1
 658 -61 l 1
 662 -40 667 -19 672 0 c 1
 427 0 l 1
 416 82 l 1
 412 82 l 1
 384 28 340 -9 259 -9 c 0
 112 -9 55 86 55 243 c 0
 55 401 112 496 259 496 c 0
 337 496 383 464 412 416 c 1
 418 416 l 1
 418 416 418 416 417 428 c 0
 415 454 412 490 412 516 c 2
 412 591 l 2
 412 642 378 652 330 652 c 2
 322 652 l 1
 322 691 l 1
 506 691 l 1
 506 487 l 1
 899 487 l 1
 899 450 l 1
 608 52 l 1
 688 52 l 1
 717 131 752 196 841 196 c 0
 896 196 938 162 938 109 c 0
 938 28 869 0 781 0 c 2
 725 0 l 1
152 242 m 0
 152 132 175 49 276 49 c 0
 389 49 412 123 412 243 c 0
 412 359 387 438 275 438 c 0
 175 438 152 350 152 242 c 0
506 55 m 1
 782 435 l 1
 506 435 l 1
 506 55 l 1
880 108 m 0
 880 134 862 151 833 151 c 0
 779 151 757 102 740 52 c 1
 789 52 l 2
 839 52 880 65 880 108 c 0
EndSplineSet
EndChar
StartChar: uni02A6
Encoding: 678 678 614
Width: 721
Flags: HW
LayerCount: 2
Fore
SplineSet
371 9 m 1
 337 -2 284 -9 240 -9 c 0
 137 -9 95 29 95 132 c 2
 95 435 l 1
 19 435 l 1
 19 472 l 1
 98 472 129 530 143 599 c 1
 189 599 l 1
 189 482 l 1
 417 482 l 1
 445 491 476 495 510 495 c 0
 581 495 656 471 656 412 c 0
 656 375 624 357 584 357 c 1
 584 416 557 453 498 453 c 0
 441 453 403 431 403 381 c 0
 403 320 466 307 527 284 c 0
 602 256 677 230 677 134 c 0
 677 32 586 -9 480 -9 c 0
 436 -9 400 -3 371 9 c 1
378 150 m 1
 378 79 410 35 486 35 c 0
 547 35 596 61 596 117 c 0
 596 180 527 195 473 216 c 0
 399 245 322 271 322 367 c 256
 322 394 329 416 344 435 c 1
 189 435 l 1
 189 129 l 2
 189 74 213 35 265 35 c 0
 290 35 307 39 328 43 c 1
 319 55 315 70 315 87 c 0
 315 127 340 150 378 150 c 1
EndSplineSet
EndChar
StartChar: uni02A7
Encoding: 679 679 615
Width: 552
Flags: HW
LayerCount: 2
Fore
SplineSet
453 -7 m 2
 453 -134 410 -218 296 -218 c 0
 231 -218 166 -201 166 -146 c 0
 166 -105 198 -86 243 -85 c 1
 243 -146 260 -176 295 -176 c 0
 359 -176 359 -84 359 -8 c 2
 359 5 l 1
 338 -2 289 -9 259 -9 c 0
 149 -9 95 24 95 132 c 2
 95 435 l 1
 19 435 l 1
 19 472 l 1
 98 472 129 530 143 599 c 1
 189 599 l 1
 189 487 l 1
 359 487 l 1
 359 524 l 1
 360 640 401 695 514 695 c 0
 571 695 622 672 622 623 c 0
 622 585 588 571 545 571 c 1
 545 607 539 653 503 653 c 0
 455 653 453 611 453 552 c 2
 453 -7 l 2
189 129 m 2
 189 70 223 39 281 39 c 0
 310 39 333 42 359 45 c 1
 359 435 l 1
 189 435 l 1
 189 129 l 2
EndSplineSet
EndChar
StartChar: uni02A8
Encoding: 680 680 616
Width: 784
Flags: HW
LayerCount: 2
Fore
SplineSet
387 49 m 1
 351 16 309 -9 240 -9 c 0
 137 -9 95 29 95 132 c 2
 95 435 l 1
 19 435 l 1
 19 472 l 1
 100 472 126 535 143 599 c 1
 189 599 l 1
 189 487 l 1
 320 487 l 1
 320 435 l 1
 189 435 l 1
 189 129 l 2
 189 77 211 39 257 39 c 0
 302 39 333 61 358 84 c 1
 331 123 318 175 318 241 c 0
 318 404 385 496 541 496 c 0
 614 496 715 474 715 403 c 256
 715 356 677 346 626 346 c 1
 626 407 605 451 541 451 c 0
 435 451 415 357 415 242 c 0
 415 205 418 175 425 151 c 1
 473 196 524 224 610 224 c 0
 682 224 739 189 739 124 c 0
 739 36 650 -9 556 -9 c 0
 483 -9 426 11 387 49 c 1
681 124 m 0
 681 163 654 178 607 178 c 0
 524 178 488 152 443 106 c 1
 466 69 505 50 559 50 c 0
 626 50 681 70 681 124 c 0
EndSplineSet
EndChar
StartChar: uni02A9
Encoding: 681 681 617
Width: 902
Flags: HW
LayerCount: 2
Fore
SplineSet
804 -7 m 2
 804 -145 750 -218 619 -218 c 2
 604 -218 l 1
 604 -175 l 1
 610 -175 l 2
 696 -175 710 -101 710 -8 c 2
 710 313 l 2
 710 388 689 438 615 438 c 0
 536 438 510 370 510 291 c 2
 510 99 l 2
 510 48 543 38 591 38 c 2
 595 38 l 1
 595 0 l 1
 416 0 l 1
 416 383 l 2
 416 429 387 444 344 444 c 2
 216 444 l 1
 216 104 l 2
 216 50 248 38 298 38 c 2
 306 38 l 1
 306 0 l 1
 27 0 l 1
 27 38 l 1
 40 38 l 2
 90 38 122 50 122 104 c 2
 122 444 l 1
 31 444 l 1
 31 487 l 1
 122 487 l 1
 122 532 l 2
 122 640 191 700 299 700 c 0
 371 700 439 690 439 636 c 0
 439 598 398 585 357 585 c 1
 357 627 337 658 291 658 c 0
 228 658 216 608 216 541 c 2
 216 487 l 1
 493 487 l 1
 506 413 l 1
 511 413 l 1
 542 470 577 496 652 496 c 0
 758 496 804 431 804 318 c 2
 804 -7 l 2
EndSplineSet
EndChar
StartChar: uni02AA
Encoding: 682 682 618
Width: 681
Flags: HW
LayerCount: 2
Fore
SplineSet
637 134 m 0
 637 32 546 -9 440 -9 c 0
 410 -9 382 -6 359 0 c 1
 13 0 l 1
 13 38 l 1
 26 38 l 2
 76 38 108 50 108 104 c 2
 108 591 l 2
 108 642 74 652 26 652 c 2
 13 652 l 1
 13 691 l 1
 202 691 l 1
 202 104 l 2
 202 50 234 38 284 38 c 2
 291 38 l 1
 280 51 275 68 275 87 c 0
 275 127 300 150 338 150 c 1
 338 79 370 35 446 35 c 0
 507 35 556 61 556 117 c 0
 556 180 487 195 433 216 c 0
 359 245 282 271 282 367 c 0
 282 459 371 495 470 495 c 0
 541 495 616 471 616 412 c 0
 616 375 584 357 544 357 c 1
 544 416 517 453 458 453 c 0
 401 453 363 431 363 381 c 0
 363 320 426 307 487 284 c 0
 562 256 637 230 637 134 c 0
EndSplineSet
EndChar
StartChar: uni02AB
Encoding: 683 683 619
Width: 657
Flags: HW
LayerCount: 2
Fore
SplineSet
108 591 m 2
 108 642 74 652 26 652 c 2
 13 652 l 1
 13 691 l 1
 202 691 l 1
 202 487 l 1
 595 487 l 1
 595 450 l 1
 304 52 l 1
 486 52 l 2
 532 52 545 89 554 126 c 2
 559 147 l 1
 601 147 l 1
 596 0 l 1
 13 0 l 1
 13 38 l 1
 26 38 l 2
 76 38 108 50 108 104 c 2
 108 591 l 2
202 55 m 1
 478 435 l 1
 202 435 l 1
 202 55 l 1
EndSplineSet
EndChar
StartChar: uni02AC
Encoding: 684 684 620
Width: 558
Flags: HW
LayerCount: 2
Fore
SplineSet
139 344 m 1
 60 582 l 2
 53 604 37 615 5 615 c 1
 5 649 l 1
 191 649 l 1
 191 615 l 1
 176 615 l 2
 151 615 138 607 138 592 c 0
 138 584 144 563 146 556 c 2
 161 505 l 2
 166 490 177 447 180 430 c 1
 184 430 l 1
 189 450 199 482 206 500 c 2
 262 644 l 1
 306 644 l 1
 361 503 l 2
 369 480 377 455 385 428 c 1
 389 428 l 1
 394 449 403 478 409 499 c 2
 428 558 l 2
 430 565 434 581 434 590 c 0
 434 607 420 615 393 615 c 2
 380 615 l 1
 380 649 l 1
 553 649 l 1
 553 615 l 1
 528 615 l 2
 499 615 489 594 481 568 c 2
 403 344 l 1
 348 344 l 1
 287 505 l 2
 282 516 276 534 275 549 c 1
 271 549 l 1
 194 344 l 1
 139 344 l 1
139 0 m 1
 60 238 l 2
 53 260 37 271 5 271 c 1
 5 304 l 1
 191 304 l 1
 191 271 l 1
 176 271 l 2
 151 271 138 263 138 248 c 0
 138 240 144 219 146 212 c 2
 161 161 l 2
 167 141 176 106 180 85 c 1
 184 85 l 1
 188 99 188 99 194 120 c 128
 198 134 202 146 206 155 c 2
 262 300 l 1
 306 300 l 1
 361 159 l 2
 369 136 377 111 385 84 c 1
 389 84 l 1
 394 104 403 134 409 154 c 2
 428 214 l 2
 430 220 434 238 434 245 c 0
 434 262 420 270 393 271 c 2
 380 271 l 1
 380 304 l 1
 553 304 l 1
 553 271 l 1
 528 271 l 2
 499 271 489 250 481 224 c 2
 403 0 l 1
 348 0 l 1
 287 161 l 2
 282 173 276 190 275 204 c 1
 271 204 l 1
 194 0 l 1
 139 0 l 1
EndSplineSet
EndChar
StartChar: uni02AD
Encoding: 685 685 621
Width: 527
Flags: HW
LayerCount: 2
Fore
SplineSet
184 576 m 2
 132 576 96 549 96 502 c 2
 96 454 l 1
 48 454 l 1
 48 649 l 1
 479 649 l 1
 479 454 l 1
 431 454 l 1
 431 502 l 2
 431 549 395 576 343 576 c 2
 184 576 l 2
184 122 m 2
 132 122 96 94 96 47 c 2
 96 0 l 1
 48 0 l 1
 48 194 l 1
 479 194 l 1
 479 0 l 1
 431 0 l 1
 431 47 l 2
 431 94 395 122 343 122 c 2
 184 122 l 2
EndSplineSet
EndChar
StartChar: uni02AE
Encoding: 686 686 622
Width: 743
Flags: HW
LayerCount: 2
Fore
SplineSet
635 -118 m 2
 635 -169 669 -180 717 -180 c 2
 725 -180 l 1
 725 -218 l 1
 541 -218 l 1
 541 -4 l 2
 541 15 543 44 544 62 c 2
 545 74 l 1
 540 74 l 1
 509 19 460 -9 393 -9 c 0
 275 -9 216 48 216 169 c 2
 216 351 l 2
 216 407 205 454 159 454 c 0
 116 454 108 401 108 357 c 1
 57 357 15 367 15 410 c 0
 15 474 78 496 155 496 c 0
 257 496 310 444 310 343 c 2
 310 174 l 2
 310 94 339 49 420 49 c 0
 505 49 541 110 541 196 c 2
 541 388 l 2
 541 439 508 449 460 449 c 2
 456 449 l 1
 456 487 l 1
 725 487 l 1
 725 449 l 1
 717 449 l 2
 667 449 635 437 635 383 c 2
 635 -118 l 2
EndSplineSet
EndChar
StartChar: uni02AF
Encoding: 687 687 623
Width: 743
Flags: HW
LayerCount: 2
Fore
SplineSet
775 -204 m 1
 756 -211 713 -218 686 -218 c 0
 583 -218 541 -180 541 -77 c 2
 541 -4 l 2
 541 15 543 44 544 62 c 2
 545 74 l 1
 540 74 l 1
 509 19 460 -9 393 -9 c 0
 275 -9 216 48 216 169 c 2
 216 351 l 2
 216 407 205 454 159 454 c 0
 116 454 108 401 108 357 c 1
 57 357 15 367 15 410 c 0
 15 474 78 496 155 496 c 0
 257 496 310 444 310 343 c 2
 310 174 l 2
 310 94 339 49 420 49 c 0
 505 49 541 110 541 196 c 2
 541 388 l 2
 541 439 508 449 460 449 c 2
 456 449 l 1
 456 487 l 1
 725 487 l 1
 725 449 l 1
 717 449 l 2
 667 449 635 437 635 383 c 2
 635 -80 l 2
 635 -142 653 -170 711 -170 c 0
 735 -170 753 -167 775 -164 c 1
 775 -204 l 1
EndSplineSet
EndChar
StartChar: uni02B9
Encoding: 697 697 633
Width: 175
Flags: HW
LayerCount: 2
Fore
SplineSet
149 639 m 1
 135 569 110 486 83 426 c 1
 26 426 l 1
 38 492 48 580 54 649 c 1
 141 649 l 1
 149 639 l 1
EndSplineSet
EndChar
StartChar: uni02BA
Encoding: 698 698 634
Width: 363
Flags: HW
LayerCount: 2
Fore
SplineSet
337 639 m 1
 323 569 298 486 271 426 c 1
 214 426 l 1
 226 492 236 580 242 649 c 1
 329 649 l 1
 337 639 l 1
149 639 m 1
 135 569 110 486 83 426 c 1
 26 426 l 1
 38 492 48 580 54 649 c 1
 141 649 l 1
 149 639 l 1
EndSplineSet
EndChar
StartChar: uni02BC
Encoding: 700 700 636
Width: 210
Flags: HW
LayerCount: 2
Fore
SplineSet
170 648 m 0
 170 583 121 523 81 488 c 1
 40 488 l 1
 64 514 104 552 104 587 c 0
 104 603 65 608 56 618 c 128
 47 628 43 640 43 655 c 0
 43 691 67 715 104 715 c 256
 143 715 170 687 170 648 c 0
EndSplineSet
EndChar
StartChar: uni02BE
Encoding: 702 702 638
Width: 180
Flags: HW
LayerCount: 2
Fore
SplineSet
30 712 m 1
 95 712 150 678 150 613 c 256
 150 548 95 514 30 514 c 1
 30 559 l 1
 67 559 96 575 96 613 c 256
 96 651 67 668 30 668 c 1
 30 712 l 1
EndSplineSet
EndChar
StartChar: uni02BF
Encoding: 703 703 639
Width: 180
Flags: HW
LayerCount: 2
Fore
SplineSet
84 613 m 256
 84 575 113 559 150 559 c 1
 150 514 l 1
 85 514 30 548 30 613 c 256
 30 678 85 712 150 712 c 1
 150 668 l 1
 113 668 84 651 84 613 c 256
EndSplineSet
EndChar
StartChar: uni02C0
Encoding: 704 704 640
Width: 293
Flags: HW
LayerCount: 2
Fore
SplineSet
264 598 m 0
 264 533 213 511 155 493 c 1
 155 441 l 1
 103 441 l 1
 103 516 l 1
 149 531 186 556 186 605 c 0
 186 635 169 654 137 654 c 0
 101 654 83 630 83 595 c 1
 50 595 19 601 19 630 c 0
 19 677 75 691 133 691 c 0
 198 691 264 660 264 598 c 0
EndSplineSet
EndChar
StartChar: uni02C1
Encoding: 705 705 641
Width: 293
Flags: HW
LayerCount: 2
Fore
SplineSet
107 605 m 0
 107 556 144 532 190 516 c 1
 190 441 l 1
 138 441 l 1
 138 493 l 1
 79 510 29 533 29 598 c 0
 29 662 93 691 160 691 c 0
 217 691 274 677 274 630 c 0
 274 601 243 595 210 595 c 1
 210 629 191 654 156 654 c 0
 124 654 107 635 107 605 c 0
EndSplineSet
EndChar
StartChar: uni02C2
Encoding: 706 706 642
Width: 272
Flags: HW
LayerCount: 2
Fore
SplineSet
123 595 m 1
 169 576 204 553 242 524 c 1
 242 478 l 1
 232 478 l 1
 169 520 105 545 30 572 c 1
 30 617 l 1
 104 645 172 671 232 712 c 1
 242 712 l 1
 242 666 l 1
 204 637 169 616 123 595 c 1
EndSplineSet
EndChar
StartChar: uni02C3
Encoding: 707 707 643
Width: 272
Flags: HW
LayerCount: 2
Fore
SplineSet
242 573 m 1
 174 549 96 516 40 478 c 1
 30 478 l 1
 30 524 l 1
 68 553 103 576 149 595 c 1
 103 616 68 637 30 666 c 1
 30 712 l 1
 40 712 l 1
 100 671 168 645 242 618 c 1
 242 573 l 1
EndSplineSet
EndChar
StartChar: uni02C4
Encoding: 708 708 644
Width: 272
Flags: HW
LayerCount: 2
Fore
SplineSet
136 628 m 1
 115 586 89 554 58 520 c 1
 7 520 l 1
 7 529 l 1
 50 582 83 646 111 712 c 1
 160 712 l 1
 193 640 222 583 265 529 c 1
 265 520 l 1
 214 520 l 1
 184 554 158 587 136 628 c 1
EndSplineSet
EndChar
StartChar: uni02C5
Encoding: 709 709 645
Width: 272
Flags: HW
LayerCount: 2
Fore
SplineSet
265 703 m 1
 220 646 191 589 161 520 c 1
 112 520 l 1
 82 587 53 651 7 703 c 1
 7 712 l 1
 58 712 l 1
 89 678 115 646 136 604 c 1
 158 645 184 678 214 712 c 1
 265 712 l 1
 265 703 l 1
EndSplineSet
EndChar
StartChar: circumflex
Encoding: 710 710 646
Width: 360
Flags: HW
LayerCount: 2
Fore
SplineSet
360 537 m 1
 289 544 230 569 180 602 c 1
 130 570 70 544 0 537 c 1
 180 705 l 1
 360 537 l 1
EndSplineSet
EndChar
StartChar: caron
Encoding: 711 711 647
Width: 360
Flags: HW
LayerCount: 2
Fore
SplineSet
0 700 m 1
 69 691 129 667 180 635 c 1
 230 667 290 691 360 700 c 1
 180 532 l 1
 0 700 l 1
EndSplineSet
EndChar
StartChar: uni02C8
Encoding: 712 712 648
Width: 139
Flags: HW
LayerCount: 2
Fore
SplineSet
40 545 m 1
 40 691 l 1
 99 691 l 1
 99 545 l 1
 40 545 l 1
EndSplineSet
EndChar
StartChar: uni02CC
Encoding: 716 716 651
Width: 139
Flags: HW
LayerCount: 2
Fore
SplineSet
40 -181 m 1
 40 -35 l 1
 99 -35 l 1
 99 -181 l 1
 40 -181 l 1
EndSplineSet
EndChar
StartChar: uni02CD
Encoding: 717 717 652
Width: 370
Flags: HW
LayerCount: 2
Fore
SplineSet
40 -138 m 1
 40 -84 l 1
 330 -84 l 1
 330 -138 l 1
 40 -138 l 1
EndSplineSet
EndChar
StartChar: uni02D0
Encoding: 720 720 655
Width: 336
Flags: HW
LayerCount: 2
Fore
SplineSet
169 363 m 1
 81 487 l 1
 257 487 l 1
 169 363 l 1
81 0 m 1
 169 124 l 1
 257 0 l 1
 81 0 l 1
EndSplineSet
EndChar
StartChar: uni02D1
Encoding: 721 721 656
Width: 336
Flags: HW
LayerCount: 2
Fore
SplineSet
169 363 m 1
 81 487 l 1
 257 487 l 1
 169 363 l 1
EndSplineSet
EndChar
StartChar: uni02D4
Encoding: 724 724 659
Width: 300
Flags: HW
LayerCount: 2
Fore
SplineSet
44 178 m 1
 44 226 l 1
 124 226 l 1
 124 316 l 1
 177 316 l 1
 177 226 l 1
 256 226 l 1
 256 178 l 1
 44 178 l 1
EndSplineSet
EndChar
StartChar: uni02D5
Encoding: 725 725 660
Width: 300
Flags: HW
LayerCount: 2
Fore
SplineSet
124 178 m 1
 124 268 l 1
 44 268 l 1
 44 316 l 1
 256 316 l 1
 256 268 l 1
 177 268 l 1
 177 178 l 1
 124 178 l 1
EndSplineSet
EndChar
StartChar: uni02D6
Encoding: 726 726 661
Width: 300
Flags: HW
LayerCount: 2
Fore
SplineSet
124 145 m 1
 124 218 l 1
 44 218 l 1
 44 266 l 1
 124 266 l 1
 124 338 l 1
 177 338 l 1
 177 266 l 1
 256 266 l 1
 256 218 l 1
 177 218 l 1
 177 145 l 1
 124 145 l 1
EndSplineSet
EndChar
StartChar: uni02D7
Encoding: 727 727 662
Width: 300
Flags: HW
LayerCount: 2
Fore
SplineSet
44 218 m 1
 44 266 l 1
 256 266 l 1
 256 218 l 1
 44 218 l 1
EndSplineSet
EndChar
StartChar: breve
Encoding: 728 728 663
Width: 316
Flags: HW
LayerCount: 2
Fore
SplineSet
316 725 m 1
 306 639 252 565 158 565 c 0
 63 565 9 638 0 725 c 1
 56 725 l 1
 64 664 94 625 158 625 c 0
 222 625 251 665 260 725 c 1
 316 725 l 1
EndSplineSet
EndChar
StartChar: dotaccent
Encoding: 729 729 664
Width: 128
Flags: HW
LayerCount: 2
Fore
SplineSet
64 555 m 0
 27 555 0 583 0 619 c 0
 0 654 28 683 64 683 c 0
 100 683 128 655 128 619 c 0
 128 582 100 555 64 555 c 0
EndSplineSet
EndChar
StartChar: ring
Encoding: 730 730 665
Width: 172
Flags: HW
LayerCount: 2
Fore
SplineSet
86 533 m 0
 37 533 0 570 0 619 c 0
 0 667 38 705 86 705 c 0
 134 705 172 667 172 619 c 0
 172 571 134 533 86 533 c 0
86 674 m 0
 59 674 46 648 46 619 c 0
 46 588 58 564 86 564 c 0
 113 564 126 589 126 619 c 0
 126 647 113 674 86 674 c 0
EndSplineSet
EndChar
StartChar: ogonek
Encoding: 731 731 666
Width: 204
Flags: HW
LayerCount: 2
Fore
SplineSet
0 -99 m 0
 0 -44 44 -2 98 2 c 1
 139 2 l 1
 102 -22 70 -42 70 -86 c 0
 70 -111 89 -128 114 -128 c 0
 141 -128 166 -105 180 -87 c 1
 204 -116 l 1
 181 -148 145 -176 95 -176 c 0
 43 -176 0 -149 0 -99 c 0
EndSplineSet
EndChar
StartChar: tilde
Encoding: 732 732 667
Width: 382
Flags: HW
LayerCount: 2
Fore
SplineSet
0 553 m 1
 25 612 l 2
 40 647 56 666 101 666 c 0
 115 666 136 662 166 655 c 128
 196 648 237 644 290 645 c 0
 333 645 356 654 382 675 c 1
 357 616 l 2
 341 581 326 562 281 562 c 0
 266 561 244 565 214 572 c 128
 184 579 144 583 92 583 c 0
 49 583 25 573 0 553 c 1
EndSplineSet
EndChar
StartChar: hungarumlaut
Encoding: 733 733 668
Width: 460
Flags: HW
LayerCount: 2
Fore
SplineSet
239 758 m 1
 316 704 l 1
 64 524 l 1
 60 526 l 1
 239 758 l 1
443 758 m 1
 520 704 l 1
 268 524 l 1
 264 526 l 1
 443 758 l 1
EndSplineSet
EndChar
StartChar: uni02DE
Encoding: 734 734 669
Width: 193
Flags: HW
LayerCount: 2
Fore
SplineSet
193 214 m 0
 193 179 155 157 115 157 c 0
 49 157 26 199 7 258 c 2
 0 279 l 1
 -136 243 l 1
 -150 289 l 1
 37 337 l 1
 55 279 l 2
 64 251 79 228 110 228 c 0
 137 228 155 242 166 258 c 1
 184 249 193 234 193 214 c 0
EndSplineSet
EndChar
StartChar: uni02DF
Encoding: 735 735 670
Width: 282
Flags: HW
LayerCount: 2
Fore
SplineSet
78 550 m 1
 40 584 l 1
 104 641 l 1
 40 700 l 1
 78 733 l 1
 141 676 l 1
 205 733 l 1
 242 700 l 1
 179 641 l 1
 242 584 l 1
 204 550 l 1
 141 607 l 1
 78 550 l 1
EndSplineSet
EndChar
StartChar: uni02E5
Encoding: 741 741 676
Width: 418
Flags: HW
LayerCount: 2
Fore
SplineSet
274 0 m 1
 274 565 l 1
 78 565 l 1
 78 625 l 1
 340 625 l 1
 340 0 l 1
 274 0 l 1
EndSplineSet
EndChar
StartChar: uni02E6
Encoding: 742 742 677
Width: 418
Flags: HW
LayerCount: 2
Fore
SplineSet
274 0 m 1
 274 415 l 1
 78 415 l 1
 78 475 l 1
 274 475 l 1
 274 625 l 1
 340 625 l 1
 340 0 l 1
 274 0 l 1
EndSplineSet
EndChar
StartChar: uni02E7
Encoding: 743 743 678
Width: 418
Flags: HW
LayerCount: 2
Fore
SplineSet
274 0 m 1
 274 296 l 1
 78 296 l 1
 78 356 l 1
 274 356 l 1
 274 625 l 1
 340 625 l 1
 340 0 l 1
 274 0 l 1
EndSplineSet
EndChar
StartChar: uni02E8
Encoding: 744 744 679
Width: 418
Flags: HW
LayerCount: 2
Fore
SplineSet
274 0 m 1
 274 152 l 1
 78 152 l 1
 78 212 l 1
 274 212 l 1
 274 625 l 1
 340 625 l 1
 340 0 l 1
 274 0 l 1
EndSplineSet
EndChar
StartChar: uni02E9
Encoding: 745 745 680
Width: 418
Flags: HW
LayerCount: 2
Fore
SplineSet
340 0 m 1
 78 0 l 1
 78 60 l 1
 274 60 l 1
 274 625 l 1
 340 625 l 1
 340 0 l 1
EndSplineSet
EndChar
StartChar: uni02EA
Encoding: 746 746 681
Width: 418
Flags: HW
LayerCount: 2
Fore
SplineSet
78 480 m 1
 144 480 l 1
 144 211 l 1
 340 211 l 1
 340 151 l 1
 78 151 l 1
 78 480 l 1
EndSplineSet
EndChar
StartChar: uni02EB
Encoding: 747 747 682
Width: 418
Flags: HW
LayerCount: 2
Fore
SplineSet
78 151 m 1
 78 480 l 1
 144 480 l 1
 144 345 l 1
 340 345 l 1
 340 285 l 1
 144 285 l 1
 144 151 l 1
 78 151 l 1
EndSplineSet
EndChar
StartChar: uni02EC
Encoding: 748 748 683
Width: 375
Flags: HW
LayerCount: 2
Fore
SplineSet
335 -75 m 1
 302 -113 260 -163 235 -209 c 1
 140 -209 l 1
 117 -162 73 -112 40 -75 c 1
 40 -64 l 1
 79 -64 l 1
 117 -84 157 -117 187 -146 c 1
 216 -118 259 -84 296 -64 c 1
 335 -64 l 1
 335 -75 l 1
EndSplineSet
EndChar
StartChar: uni02ED
Encoding: 749 749 684
Width: 496
Flags: HW
LayerCount: 2
Fore
SplineSet
40 677 m 1
 40 723 l 1
 456 723 l 1
 456 677 l 1
 40 677 l 1
40 582 m 1
 40 630 l 1
 456 630 l 1
 456 582 l 1
 40 582 l 1
EndSplineSet
EndChar
StartChar: uni02EF
Encoding: 751 751 686
Width: 338
Flags: HW
LayerCount: 2
Fore
SplineSet
298 -35 m 1
 254 -92 224 -150 194 -218 c 1
 145 -218 l 1
 114 -149 86 -93 40 -35 c 1
 40 -25 l 1
 91 -25 l 1
 121 -58 147 -93 169 -134 c 1
 191 -93 217 -59 247 -25 c 1
 298 -25 l 1
 298 -35 l 1
EndSplineSet
EndChar
StartChar: uni02F0
Encoding: 752 752 687
Width: 338
Flags: HW
LayerCount: 2
Fore
SplineSet
169 -110 m 1
 147 -151 121 -185 91 -218 c 1
 40 -218 l 1
 40 -209 l 1
 85 -152 114 -94 144 -25 c 1
 193 -25 l 1
 224 -94 252 -151 298 -209 c 1
 298 -218 l 1
 247 -218 l 1
 217 -185 191 -151 169 -110 c 1
EndSplineSet
EndChar
StartChar: uni02F1
Encoding: 753 753 688
Width: 292
Flags: HW
LayerCount: 2
Fore
SplineSet
133 -101 m 1
 178 -121 215 -144 252 -172 c 1
 252 -218 l 1
 242 -218 l 1
 179 -177 114 -151 40 -124 c 1
 40 -79 l 1
 115 -51 177 -25 242 16 c 1
 252 16 l 1
 252 -30 l 1
 215 -58 178 -81 133 -101 c 1
EndSplineSet
EndChar
StartChar: uni02F2
Encoding: 754 754 689
Width: 292
Flags: HW
LayerCount: 2
Fore
SplineSet
252 -123 m 1
 177 -151 114 -176 50 -218 c 1
 40 -218 l 1
 40 -172 l 1
 77 -144 114 -120 159 -101 c 1
 114 -81 77 -58 40 -30 c 1
 40 16 l 1
 50 16 l 1
 113 -25 178 -51 252 -78 c 1
 252 -123 l 1
EndSplineSet
EndChar
StartChar: uni02F3
Encoding: 755 755 690
Width: 333
Flags: HW
LayerCount: 2
Fore
SplineSet
277 -127 m 0
 277 -187 226 -218 166 -218 c 256
 106 -218 55 -187 55 -127 c 256
 55 -67 106 -36 166 -36 c 256
 226 -36 277 -67 277 -127 c 0
109 -127 m 0
 109 -160 134 -174 166 -174 c 256
 198 -174 223 -160 223 -127 c 0
 223 -94 198 -81 166 -81 c 256
 135 -81 109 -95 109 -127 c 0
EndSplineSet
EndChar
StartChar: uni02F4
Encoding: 756 756 691
Width: 274
Flags: HW
LayerCount: 2
Fore
SplineSet
147 403 m 1
 167 364 206 301 234 269 c 1
 234 257 l 1
 196 257 l 1
 144 289 77 347 40 393 c 1
 40 403 l 1
 147 403 l 1
EndSplineSet
EndChar
StartChar: uni02F7
Encoding: 759 759 694
Width: 436
Flags: HW
LayerCount: 2
Fore
SplineSet
396 -67 m 1
 391 -128 358 -174 291 -174 c 0
 236 -174 202 -145 166 -126 c 128
 155 -120 145 -117 134 -117 c 0
 97 -117 90 -136 85 -165 c 1
 40 -165 l 1
 45 -104 79 -58 146 -58 c 0
 201 -58 234 -87 270 -106 c 128
 281 -112 291 -115 302 -115 c 0
 338 -115 346 -95 351 -67 c 1
 396 -67 l 1
EndSplineSet
EndChar
StartChar: uni02F8
Encoding: 760 760 695
Width: 284
Flags: HW
LayerCount: 2
Fore
SplineSet
205 629 m 0
 205 589 180 567 143 567 c 0
 105 567 81 588 81 629 c 0
 81 672 104 691 143 691 c 0
 181 691 205 670 205 629 c 0
205 240 m 0
 205 200 180 178 143 178 c 0
 105 178 81 199 81 240 c 0
 81 283 104 302 143 302 c 0
 181 302 205 281 205 240 c 0
EndSplineSet
EndChar
StartChar: uni02F9
Encoding: 761 761 696
Width: 246
Flags: HW
LayerCount: 2
Fore
SplineSet
40 377 m 1
 40 619 l 1
 206 619 l 1
 206 571 l 1
 93 571 l 1
 93 377 l 1
 40 377 l 1
EndSplineSet
EndChar
StartChar: uni02FA
Encoding: 762 762 697
Width: 246
Flags: HW
LayerCount: 2
Fore
SplineSet
153 377 m 1
 153 571 l 1
 40 571 l 1
 40 619 l 1
 206 619 l 1
 206 377 l 1
 153 377 l 1
EndSplineSet
EndChar
StartChar: uni02FB
Encoding: 763 763 698
Width: 246
Flags: HW
LayerCount: 2
Fore
SplineSet
40 0 m 1
 40 242 l 1
 93 242 l 1
 93 48 l 1
 206 48 l 1
 206 0 l 1
 40 0 l 1
EndSplineSet
EndChar
StartChar: uni02FC
Encoding: 764 764 699
Width: 246
Flags: HW
LayerCount: 2
Fore
SplineSet
40 0 m 1
 40 48 l 1
 153 48 l 1
 153 242 l 1
 206 242 l 1
 206 0 l 1
 40 0 l 1
EndSplineSet
EndChar
StartChar: uni02FD
Encoding: 765 765 700
Width: 526
Flags: HW
LayerCount: 2
Fore
SplineSet
40 -189 m 1
 40 -39 l 1
 88 -39 l 1
 88 -129 l 1
 437 -129 l 1
 437 -39 l 1
 486 -39 l 1
 486 -189 l 1
 40 -189 l 1
EndSplineSet
EndChar
StartChar: uni02FE
Encoding: 766 766 701
Width: 526
Flags: HW
LayerCount: 2
Fore
SplineSet
40 -189 m 1
 40 -39 l 1
 88 -39 l 1
 88 -129 l 1
 486 -129 l 1
 486 -189 l 1
 40 -189 l 1
EndSplineSet
EndChar
StartChar: uni02FF
Encoding: 767 767 702
Width: 512
Flags: HW
LayerCount: 2
Fore
SplineSet
160 -123 m 1
 192 -138 226 -157 252 -176 c 1
 252 -218 l 1
 242 -218 l 1
 179 -177 114 -151 40 -124 c 1
 40 -79 l 1
 115 -51 177 -25 242 16 c 1
 252 16 l 1
 252 -26 l 1
 226 -45 193 -64 161 -79 c 1
 472 -79 l 1
 472 -123 l 1
 160 -123 l 1
EndSplineSet
EndChar
StartChar: acutecomb
Encoding: 769 769 2785
AltUni2: 00f400.ffffffff.0
Width: 2
Flags: HW
LayerCount: 2
Fore
SplineSet
-153 710 m 1
 -99 633 l 1
 -397 550 l 1
 -400 553 l 1
 -153 710 l 1
EndSplineSet
Substitution2: "Single Substitution lookup 13 subtable" uniF401
EndChar
StartChar: uni0305
Encoding: 773 773 707
Width: 0
Flags: HW
LayerCount: 2
Fore
SplineSet
-204 691 m 1
 -204 744 l 1
 204 744 l 1
 204 691 l 1
 -204 691 l 1
EndSplineSet
EndChar
StartChar: uni030D
Encoding: 781 781 715
Width: 0
Flags: HW
LayerCount: 2
Fore
SplineSet
-28 542 m 1
 -28 691 l 1
 28 691 l 1
 28 542 l 1
 -28 542 l 1
EndSplineSet
EndChar
StartChar: uni030E
Encoding: 782 782 716
Width: 0
Flags: HW
LayerCount: 2
Fore
SplineSet
-100 542 m 1
 -100 691 l 1
 -44 691 l 1
 -44 542 l 1
 -100 542 l 1
44 542 m 1
 44 691 l 1
 100 691 l 1
 100 542 l 1
 44 542 l 1
EndSplineSet
EndChar
StartChar: uni030F
Encoding: 783 783 717
Width: 0
Flags: HW
LayerCount: 2
Fore
SplineSet
-244 696 m 1
 -223 656 -185 596 -159 562 c 1
 -159 551 l 1
 -208 551 l 1
 -253 584 -310 642 -341 687 c 1
 -341 696 l 1
 -244 696 l 1
-421 696 m 1
 -400 656 -362 596 -336 562 c 1
 -336 551 l 1
 -385 551 l 1
 -430 582 -489 641 -518 687 c 1
 -518 696 l 1
 -421 696 l 1
EndSplineSet
EndChar
StartChar: uni0310
Encoding: 784 784 718
Width: 0
Flags: HW
LayerCount: 2
Fore
SplineSet
51 706 m 256
 51 671 32 655 0 655 c 0
 -32 655 -51 672 -51 706 c 256
 -51 740 -32 757 0 757 c 0
 32 757 51 741 51 706 c 256
140 666 m 1
 137 589 86 542 0 542 c 256
 -86 542 -137 589 -140 666 c 1
 -94 666 l 1
 -84 624 -51 604 0 604 c 256
 51 604 84 624 94 666 c 1
 140 666 l 1
EndSplineSet
EndChar
StartChar: uni0311
Encoding: 785 785 719
Width: 0
Flags: HW
LayerCount: 2
Fore
SplineSet
0 612 m 256
 -51 612 -84 592 -94 551 c 1
 -140 551 l 1
 -137 628 -86 675 0 675 c 256
 85 675 137 627 140 551 c 1
 94 551 l 1
 84 593 51 612 0 612 c 256
EndSplineSet
EndChar
StartChar: uni0318
Encoding: 792 792 726
Width: 0
Flags: HW
LayerCount: 2
Fore
SplineSet
23 -192 m 1
 23 -137 l 1
 -76 -137 l 1
 -76 -89 l 1
 23 -89 l 1
 23 -35 l 1
 76 -35 l 1
 76 -192 l 1
 23 -192 l 1
EndSplineSet
EndChar
StartChar: uni0319
Encoding: 793 793 727
Width: 0
Flags: HW
LayerCount: 2
Fore
SplineSet
-76 -193 m 1
 -76 -35 l 1
 -23 -35 l 1
 -23 -90 l 1
 76 -90 l 1
 76 -138 l 1
 -23 -138 l 1
 -23 -193 l 1
 -76 -193 l 1
EndSplineSet
EndChar
StartChar: uni031A
Encoding: 794 794 728
Width: 0
Flags: HW
LayerCount: 2
Fore
SplineSet
85 551 m 1
 85 641 l 1
 -138 641 l 1
 -138 689 l 1
 138 689 l 1
 138 551 l 1
 85 551 l 1
EndSplineSet
EndChar
StartChar: uni031B
Encoding: 795 795 729
Width: 0
Flags: HW
LayerCount: 2
Fore
SplineSet
7 700 m 0
 45 700 68 680 68 642 c 0
 68 545 -2 509 -93 493 c 1
 -93 529 l 1
 -46 536 -7 551 -7 591 c 0
 -7 623 -50 615 -50 654 c 0
 -50 684 -25 700 7 700 c 0
EndSplineSet
EndChar
StartChar: uni031C
Encoding: 796 796 730
Width: 0
Flags: HW
LayerCount: 2
Fore
SplineSet
-6 -119 m 256
 -6 -157 23 -174 60 -174 c 1
 60 -218 l 1
 -5 -218 -60 -184 -60 -119 c 256
 -60 -54 -5 -20 60 -20 c 1
 60 -65 l 1
 23 -65 -6 -81 -6 -119 c 256
EndSplineSet
EndChar
StartChar: uni031D
Encoding: 797 797 731
Width: 0
Flags: HW
LayerCount: 2
Fore
SplineSet
-96 -185 m 1
 -96 -137 l 1
 -26 -137 l 1
 -26 -47 l 1
 27 -47 l 1
 27 -137 l 1
 96 -137 l 1
 96 -185 l 1
 -96 -185 l 1
EndSplineSet
EndChar
StartChar: uni031E
Encoding: 798 798 732
Width: 0
Flags: HW
LayerCount: 2
Fore
SplineSet
-27 -185 m 1
 -27 -95 l 1
 -96 -95 l 1
 -96 -47 l 1
 96 -47 l 1
 96 -95 l 1
 26 -95 l 1
 26 -185 l 1
 -27 -185 l 1
EndSplineSet
EndChar
StartChar: uni031F
Encoding: 799 799 733
Width: 0
Flags: HW
LayerCount: 2
Fore
SplineSet
-27 -209 m 1
 -27 -145 l 1
 -96 -145 l 1
 -96 -97 l 1
 -26 -97 l 1
 -26 -34 l 1
 27 -34 l 1
 27 -97 l 1
 96 -97 l 1
 96 -145 l 1
 26 -145 l 1
 26 -209 l 1
 -27 -209 l 1
EndSplineSet
EndChar
StartChar: uni0320
Encoding: 800 800 734
Width: 0
Flags: HW
LayerCount: 2
Fore
SplineSet
-106 -135 m 1
 -106 -87 l 1
 106 -87 l 1
 106 -135 l 1
 -106 -135 l 1
EndSplineSet
EndChar
StartChar: uni0321
Encoding: 801 801 735
Width: 0
Flags: HW
LayerCount: 2
Fore
SplineSet
0 -45 m 2
 0 -126 -26 -179 -104 -179 c 0
 -144 -179 -180 -166 -180 -129 c 0
 -180 -116 -175 -104 -165 -95 c 1
 -149 -104 -137 -110 -113 -110 c 0
 -74 -110 -56 -88 -56 -45 c 2
 -56 38 l 1
 0 38 l 1
 0 -45 l 2
EndSplineSet
EndChar
StartChar: uni0322
Encoding: 802 802 736
Width: 0
Flags: HW
LayerCount: 2
Fore
SplineSet
180 -129 m 0
 180 -166 144 -179 104 -179 c 0
 26 -179 0 -125 0 -45 c 2
 0 38 l 1
 56 38 l 1
 56 -45 l 2
 56 -88 74 -110 113 -110 c 0
 137 -110 150 -105 165 -95 c 1
 175 -104 180 -116 180 -129 c 0
EndSplineSet
EndChar
StartChar: dotbelowcomb
Encoding: 803 803 737
Width: 0
Flags: HW
LayerCount: 2
Fore
SplineSet
-242 -110 m 256
 -242 -149 -264 -166 -299 -166 c 0
 -335 -166 -356 -149 -356 -110 c 256
 -356 -71 -335 -54 -299 -54 c 0
 -264 -54 -242 -71 -242 -110 c 256
EndSplineSet
EndChar
StartChar: uni0325
Encoding: 805 805 739
Width: 0
Flags: HW
LayerCount: 2
Fore
SplineSet
111 -127 m 0
 111 -187 60 -218 0 -218 c 256
 -60 -218 -111 -187 -111 -127 c 256
 -111 -67 -60 -36 0 -36 c 256
 60 -36 111 -67 111 -127 c 0
-57 -127 m 0
 -57 -160 -32 -174 0 -174 c 256
 32 -174 57 -160 57 -127 c 0
 57 -94 32 -81 0 -81 c 256
 -31 -81 -57 -95 -57 -127 c 0
EndSplineSet
EndChar
StartChar: uni0327
Encoding: 807 807 741
Width: 0
Flags: HW
LayerCount: 2
Fore
SplineSet
105 -114 m 0
 105 -185 49 -218 -27 -218 c 0
 -51 -218 -84 -214 -104 -208 c 1
 -104 -162 l 1
 -79 -167 -56 -169 -36 -169 c 0
 -1 -169 25 -152 25 -118 c 0
 25 -80 -12 -65 -50 -63 c 1
 -29 8 l 1
 18 8 l 1
 8 -31 l 1
 64 -36 105 -59 105 -114 c 0
EndSplineSet
EndChar
StartChar: uni0328
Encoding: 808 808 742
Width: 0
Flags: HW
LayerCount: 2
Fore
SplineSet
107 -204 m 1
 89 -212 54 -218 30 -218 c 0
 -48 -218 -107 -193 -107 -118 c 0
 -107 -54 -45 0 11 0 c 2
 68 0 l 1
 23 -11 -25 -48 -25 -104 c 0
 -25 -144 4 -162 44 -162 c 0
 67 -162 86 -159 107 -154 c 1
 107 -204 l 1
EndSplineSet
EndChar
StartChar: uni0329
Encoding: 809 809 743
Width: 0
Flags: HW
LayerCount: 2
Fore
SplineSet
-29 -181 m 1
 -29 -35 l 1
 30 -35 l 1
 30 -181 l 1
 -29 -181 l 1
EndSplineSet
EndChar
StartChar: uni032A
Encoding: 810 810 744
Width: 0
Flags: HW
LayerCount: 2
Fore
SplineSet
-44 -120 m 2
 -104 -120 -132 -140 -132 -194 c 2
 -132 -205 l 1
 -180 -205 l 1
 -180 -65 l 1
 180 -65 l 1
 180 -205 l 1
 132 -205 l 1
 132 -194 l 2
 132 -139 105 -120 44 -120 c 2
 -44 -120 l 2
EndSplineSet
EndChar
StartChar: uni032B
Encoding: 811 811 745
Width: 0
Flags: HW
LayerCount: 2
Fore
SplineSet
-5 -129 m 1
 -16 -153 -40 -166 -77 -166 c 0
 -145 -166 -158 -123 -160 -59 c 1
 -118 -59 l 1
 -117 -99 -113 -123 -77 -123 c 0
 -36 -123 -26 -101 -25 -59 c 1
 15 -59 l 1
 16 -102 26 -123 67 -123 c 256
 108 -123 117 -102 118 -59 c 1
 160 -59 l 1
 157 -123 136 -166 67 -166 c 0
 30 -166 6 -153 -5 -129 c 1
EndSplineSet
EndChar
StartChar: uni032C
Encoding: 812 812 746
Width: 0
Flags: HW
LayerCount: 2
Fore
SplineSet
147 -66 m 1
 114 -104 72 -154 47 -200 c 1
 -48 -200 l 1
 -71 -153 -115 -103 -148 -66 c 1
 -148 -55 l 1
 -109 -55 l 1
 -71 -75 -29 -107 0 -136 c 1
 28 -108 71 -74 108 -55 c 1
 147 -55 l 1
 147 -66 l 1
EndSplineSet
EndChar
StartChar: uni032D
Encoding: 813 813 747
Width: 0
Flags: HW
LayerCount: 2
Fore
SplineSet
-1 -118 m 1
 -31 -147 -71 -180 -109 -200 c 1
 -148 -200 l 1
 -148 -188 l 1
 -114 -152 -71 -101 -48 -55 c 1
 47 -55 l 1
 72 -101 114 -150 147 -188 c 1
 147 -200 l 1
 108 -200 l 1
 71 -180 28 -146 -1 -118 c 1
EndSplineSet
EndChar
StartChar: uni032E
Encoding: 814 814 748
Width: 0
Flags: HW
LayerCount: 2
Fore
SplineSet
140 -62 m 1
 137 -139 86 -186 0 -186 c 256
 -86 -186 -137 -139 -140 -62 c 1
 -94 -62 l 1
 -84 -104 -51 -124 0 -124 c 256
 51 -124 84 -103 94 -62 c 1
 140 -62 l 1
EndSplineSet
EndChar
StartChar: uni032F
Encoding: 815 815 749
Width: 0
Flags: HW
LayerCount: 2
Fore
SplineSet
0 -124 m 256
 -51 -124 -84 -145 -94 -186 c 1
 -140 -186 l 1
 -137 -109 -86 -62 0 -62 c 256
 86 -62 137 -109 140 -186 c 1
 94 -186 l 1
 84 -144 51 -124 0 -124 c 256
EndSplineSet
EndChar
StartChar: uni0330
Encoding: 816 816 750
Width: 0
Flags: HW
LayerCount: 2
Fore
SplineSet
178 -62 m 1
 174 -122 139 -169 73 -169 c 0
 18 -169 -16 -139 -52 -120 c 128
 -63 -114 -73 -112 -84 -112 c 0
 -121 -112 -128 -131 -133 -160 c 1
 -178 -160 l 1
 -173 -99 -139 -53 -72 -53 c 0
 -17 -53 16 -83 52 -102 c 128
 63 -108 73 -110 84 -110 c 0
 120 -110 128 -90 133 -62 c 1
 178 -62 l 1
EndSplineSet
EndChar
StartChar: uni0331
Encoding: 817 817 751
Width: 0
Flags: HW
LayerCount: 2
Fore
SplineSet
-145 -125 m 1
 -145 -72 l 1
 145 -72 l 1
 145 -125 l 1
 -145 -125 l 1
EndSplineSet
EndChar
StartChar: uni0332
Encoding: 818 818 752
Width: 0
Flags: HW
LayerCount: 2
Fore
SplineSet
-210 -125 m 1
 -210 -72 l 1
 210 -72 l 1
 210 -125 l 1
 -210 -125 l 1
EndSplineSet
EndChar
StartChar: uni0333
Encoding: 819 819 753
Width: 0
Flags: HW
LayerCount: 2
Fore
SplineSet
-210 -91 m 1
 -210 -37 l 1
 210 -37 l 1
 210 -91 l 1
 -210 -91 l 1
-210 -200 m 1
 -210 -146 l 1
 210 -146 l 1
 210 -200 l 1
 -210 -200 l 1
EndSplineSet
EndChar
StartChar: uni0335
Encoding: 821 821 755
Width: 0
Flags: HW
LayerCount: 2
Fore
SplineSet
-175 227 m 1
 -175 281 l 1
 175 281 l 1
 175 227 l 1
 -175 227 l 1
EndSplineSet
EndChar
StartChar: uni0336
Encoding: 822 822 756
Width: 0
Flags: HW
LayerCount: 2
Fore
SplineSet
-310 227 m 1
 -310 281 l 1
 310 281 l 1
 310 227 l 1
 -310 227 l 1
EndSplineSet
EndChar
StartChar: uni0337
Encoding: 823 823 757
Width: 0
Flags: HW
LayerCount: 2
Fore
SplineSet
-135 151 m 1
 -165 197 l 1
 135 359 l 1
 165 313 l 1
 -135 151 l 1
EndSplineSet
EndChar
StartChar: uni0338
Encoding: 824 824 758
Width: 0
Flags: HW
LayerCount: 2
Fore
SplineSet
-149 -73 m 1
 -204 -53 l 1
 127 700 l 1
 182 680 l 1
 -149 -73 l 1
EndSplineSet
EndChar
StartChar: uni0339
Encoding: 825 825 759
Width: 0
Flags: HW
LayerCount: 2
Fore
SplineSet
-60 -20 m 1
 5 -20 60 -54 60 -119 c 256
 60 -184 5 -218 -60 -218 c 1
 -60 -174 l 1
 -23 -174 6 -157 6 -119 c 256
 6 -81 -23 -65 -60 -65 c 1
 -60 -20 l 1
EndSplineSet
EndChar
StartChar: uni033A
Encoding: 826 826 760
Width: 0
Flags: HW
LayerCount: 2
Fore
SplineSet
44 -151 m 2
 105 -151 132 -131 132 -76 c 2
 132 -65 l 1
 180 -65 l 1
 180 -205 l 1
 -180 -205 l 1
 -180 -65 l 1
 -132 -65 l 1
 -132 -76 l 2
 -132 -131 -105 -151 -44 -151 c 2
 44 -151 l 2
EndSplineSet
EndChar
StartChar: uni033B
Encoding: 827 827 761
Width: 0
Flags: HW
LayerCount: 2
Fore
SplineSet
-182 -209 m 1
 -182 -42 l 1
 182 -42 l 1
 182 -209 l 1
 -182 -209 l 1
-135 -166 m 1
 135 -166 l 1
 135 -84 l 1
 -135 -84 l 1
 -135 -166 l 1
EndSplineSet
EndChar
StartChar: uni033C
Encoding: 828 828 762
Width: 0
Flags: HW
LayerCount: 2
Fore
SplineSet
-67 -103 m 256
 -108 -103 -117 -123 -118 -166 c 1
 -160 -166 l 1
 -157 -102 -136 -59 -67 -59 c 0
 -30 -59 -6 -72 5 -96 c 1
 16 -72 40 -59 77 -59 c 0
 145 -59 158 -102 160 -166 c 1
 118 -166 l 1
 117 -126 113 -103 77 -103 c 0
 36 -103 26 -123 25 -166 c 1
 -15 -166 l 1
 -16 -123 -26 -103 -67 -103 c 256
EndSplineSet
EndChar
StartChar: uni033D
Encoding: 829 829 763
Width: 0
Flags: HW
LayerCount: 2
Fore
SplineSet
-50 527 m 1
 -87 561 l 1
 -38 605 l 1
 -87 651 l 1
 -50 684 l 1
 0 639 l 1
 50 684 l 1
 87 650 l 1
 38 605 l 1
 86 561 l 1
 49 527 l 1
 0 571 l 1
 -50 527 l 1
EndSplineSet
EndChar
StartChar: uni033E
Encoding: 830 830 764
Width: 0
Flags: HW
LayerCount: 2
Fore
SplineSet
54 751 m 1
 28 748 1 745 1 715 c 0
 1 671 64 651 64 599 c 256
 64 541 2 524 -54 520 c 1
 -54 561 l 1
 -27 564 -1 566 -1 597 c 0
 -1 642 -64 661 -64 714 c 0
 -64 772 -1 788 54 792 c 1
 54 751 l 1
EndSplineSet
EndChar
StartChar: uni033F
Encoding: 831 831 765
Width: 0
Flags: HW
LayerCount: 2
Fore
SplineSet
-210 800 m 1
 -210 853 l 1
 210 853 l 1
 210 800 l 1
 -210 800 l 1
-210 691 m 1
 -210 744 l 1
 210 744 l 1
 210 691 l 1
 -210 691 l 1
EndSplineSet
EndChar
StartChar: uni0343
Encoding: 835 835 769
Width: 0
Flags: HW
LayerCount: 2
Fore
SplineSet
68 640 m 1
 46 594 14 542 -15 503 c 1
 -59 503 l 1
 -59 515 l 1
 -48 555 -37 606 -29 649 c 1
 68 649 l 1
 68 640 l 1
EndSplineSet
EndChar
StartChar: uni0347
Encoding: 839 839 773
Width: 0
Flags: HW
LayerCount: 2
Fore
SplineSet
-210 -91 m 1
 -210 -37 l 1
 210 -37 l 1
 210 -91 l 1
 -210 -91 l 1
-210 -200 m 1
 -210 -146 l 1
 210 -146 l 1
 210 -200 l 1
 -210 -200 l 1
EndSplineSet
EndChar
StartChar: uni0349
Encoding: 841 841 775
Width: 0
Flags: HW
LayerCount: 2
Fore
SplineSet
25 -208 m 1
 25 -118 l 1
 -78 -118 l 1
 -78 -70 l 1
 78 -70 l 1
 78 -208 l 1
 25 -208 l 1
EndSplineSet
EndChar
StartChar: uni034A
Encoding: 842 842 776
Width: 0
Flags: HW
LayerCount: 2
Fore
SplineSet
73 551 m 0
 45 551 23 559 4 568 c 1
 -24 518 l 1
 -67 538 l 1
 -37 591 l 1
 -50 599 -65 608 -84 608 c 0
 -121 608 -128 589 -133 560 c 1
 -178 560 l 1
 -173 621 -139 667 -72 667 c 0
 -45 667 -24 658 -4 650 c 1
 24 700 l 1
 68 680 l 1
 37 626 l 1
 51 618 66 610 84 610 c 0
 120 610 128 630 133 658 c 1
 178 658 l 1
 173 597 140 551 73 551 c 0
EndSplineSet
EndChar
